<svg width="45" height="45" viewBox="0 0 45 45" fill="none" xmlns="http://www.w3.org/2000/svg">
<g clip-path="url(#clip0_186_442)">
<path d="M22.5 9.84375C22.5 9.47079 22.3518 9.1131 22.0881 8.84938C21.8244 8.58566 21.4667 8.4375 21.0937 8.4375C20.7208 8.4375 20.3631 8.58566 20.0994 8.84938C19.8357 9.1131 19.6875 9.47079 19.6875 9.84375V25.3125C19.6876 25.5604 19.7532 25.8038 19.8776 26.0182C20.0021 26.2325 20.181 26.4102 20.3962 26.5331L30.24 32.1581C30.563 32.3327 30.9416 32.374 31.2946 32.2732C31.6477 32.1724 31.9474 31.9375 32.1296 31.6187C32.3118 31.2999 32.362 30.9224 32.2696 30.5671C32.1772 30.2117 31.9494 29.9065 31.635 29.7169L22.5 24.4969V9.84375Z" fill="#037E78"/>
<path d="M22.5 45C28.4674 45 34.1903 42.6295 38.4099 38.4099C42.6295 34.1903 45 28.4674 45 22.5C45 16.5326 42.6295 10.8097 38.4099 6.5901C34.1903 2.37053 28.4674 0 22.5 0C16.5326 0 10.8097 2.37053 6.5901 6.5901C2.37053 10.8097 0 16.5326 0 22.5C0 28.4674 2.37053 34.1903 6.5901 38.4099C10.8097 42.6295 16.5326 45 22.5 45ZM42.1875 22.5C42.1875 27.7214 40.1133 32.729 36.4212 36.4212C32.729 40.1133 27.7214 42.1875 22.5 42.1875C17.2786 42.1875 12.271 40.1133 8.57883 36.4212C4.88671 32.729 2.8125 27.7214 2.8125 22.5C2.8125 17.2786 4.88671 12.271 8.57883 8.57883C12.271 4.88671 17.2786 2.8125 22.5 2.8125C27.7214 2.8125 32.729 4.88671 36.4212 8.57883C40.1133 12.271 42.1875 17.2786 42.1875 22.5Z" fill="#037E78"/>
</g>
<defs>
<clipPath id="clip0_186_442">
<rect width="45" height="45" fill="white"/>
</clipPath>
</defs>
</svg>
