<svg width="82" height="74" viewBox="0 0 82 74" fill="none" xmlns="http://www.w3.org/2000/svg">
<path d="M19.9162 40.1585C17.8429 40.1585 16.0145 39.7831 14.4474 39.0321C12.57 38.1343 11.1171 36.714 10.1376 34.853C7.96644 30.7392 8.65208 25.352 10.6274 23.1155C11.0681 22.6095 11.8517 22.5605 12.3578 23.0012C12.8639 23.442 12.9128 24.2256 12.4721 24.7317C11.2477 26.1193 10.5621 30.4127 12.3088 33.7266C13.925 36.812 17.2389 38.1506 21.8751 37.6119C22.5444 37.5303 23.1484 38.02 23.2301 38.6893C23.3117 39.3586 22.822 39.9626 22.1526 40.0443C21.3691 40.1096 20.6344 40.1585 19.9162 40.1585Z" fill="white"/>
<path d="M12.4067 26.0703C12.0965 26.0703 11.7864 25.956 11.5415 25.7112C9.37029 23.5563 9.35396 20.0302 11.5088 17.8426C12.5536 16.7815 13.9575 16.1938 15.4431 16.1938C15.4594 16.1938 15.4594 16.1938 15.4757 16.1938C16.945 16.1938 18.3489 16.7652 19.3937 17.81C19.8671 18.2834 19.8834 19.067 19.3937 19.5404C18.9203 20.0138 18.1367 20.0302 17.6633 19.5404C17.0756 18.9527 16.292 18.6426 15.4757 18.6426H15.4594C14.6269 18.6426 13.8433 18.9691 13.2556 19.5731C12.0475 20.7974 12.0639 22.7727 13.2719 23.9807C13.7453 24.4542 13.7616 25.2378 13.2719 25.7112C13.0434 25.9397 12.7169 26.0703 12.4067 26.0703Z" fill="white"/>
<path d="M24.1442 33.3835C24.03 33.3835 23.8994 33.3835 23.7851 33.3672C20.716 33.1713 18.3979 30.5267 18.5938 27.4577C18.6428 26.7883 19.2142 26.2659 19.8998 26.3149C20.5691 26.3639 21.0915 26.9353 21.0425 27.6209C20.9283 29.335 22.2342 30.8205 23.9483 30.9348C25.6624 31.0491 27.148 29.7431 27.2623 28.029C27.2949 27.6209 27.5235 27.2454 27.8826 27.0332C28.2417 26.8373 28.6825 26.821 29.058 27.0169C29.3845 27.1965 37.2367 31.196 43.6033 23.5234C44.0278 23.001 44.8113 22.9357 45.3337 23.3601C45.8561 23.7846 45.9214 24.5682 45.497 25.0906C41.4974 29.9064 36.9428 30.7716 33.8085 30.641C31.9801 30.5757 30.4129 30.1512 29.3682 29.7921C28.5519 31.898 26.495 33.3835 24.1442 33.3835Z" fill="white"/>
<path d="M43.2115 14.8062C43.1136 14.8062 43.0156 14.7899 42.9177 14.7736C42.2647 14.6103 41.8566 13.941 42.0361 13.288C42.232 12.4881 42.1178 11.6392 41.6933 10.9372C41.2689 10.219 40.5832 9.71289 39.7833 9.517C38.1182 9.09255 36.4204 10.1047 35.996 11.7698C35.8327 12.4228 35.1634 12.8309 34.5104 12.6513C33.8574 12.4881 33.4493 11.8188 33.6289 11.1658C34.3798 8.19469 37.3999 6.38265 40.3873 7.13359C41.8239 7.49273 43.0483 8.40691 43.7992 9.68024C44.5665 10.9536 44.7787 12.4554 44.4195 13.892C44.2563 14.4307 43.7665 14.8062 43.2115 14.8062Z" fill="white"/>
<path d="M32.1924 21.3527C32.0455 21.3527 31.8822 21.3527 31.7353 21.3364C30.4457 21.2384 29.2376 20.6834 28.3071 19.7855C27.8174 19.3121 27.8174 18.5448 28.2908 18.0551C28.7642 17.5654 29.5315 17.5654 30.0212 18.0388C30.5436 18.5448 31.2129 18.855 31.9312 18.904C33.6453 19.0346 35.1472 17.7613 35.2941 16.0472C35.3431 15.3778 35.9471 14.8718 36.6164 14.9208C37.2857 14.9697 37.7918 15.5737 37.7428 16.2431C37.4816 19.1489 35.0492 21.3527 32.1924 21.3527Z" fill="white"/>
<path d="M31.5393 38.0856C31.3924 38.0856 31.2292 38.0856 31.0822 38.0693C29.7926 37.9713 28.5846 37.4163 27.654 36.5184C27.1643 36.045 27.1643 35.2778 27.6377 34.788C28.1111 34.2983 28.8784 34.2983 29.3681 34.7717C29.8905 35.2778 30.5598 35.5879 31.2781 35.6369C32.1107 35.7022 32.9106 35.441 33.5473 34.9023C34.1839 34.3636 34.5757 33.6126 34.641 32.7801C34.69 32.1108 35.294 31.6047 35.9633 31.6537C36.6326 31.7026 37.1387 32.3067 37.0897 32.976C36.9755 34.4615 36.2735 35.8001 35.1471 36.7633C34.1023 37.6285 32.8453 38.0856 31.5393 38.0856Z" fill="white"/>
<path d="M24.8136 23.5563C24.683 23.5563 24.536 23.5563 24.4054 23.54C23.7361 23.491 23.2301 22.9033 23.279 22.234C23.328 21.5647 23.9157 21.0586 24.585 21.1076C25.3196 21.1566 26.0216 20.9607 26.6093 20.5362C28.0132 19.5404 28.3397 17.5978 27.3602 16.1938C26.9684 15.6388 27.099 14.8715 27.6541 14.4797C28.2091 14.088 28.9764 14.2186 29.3682 14.7736C31.1476 17.2713 30.5435 20.7648 28.0459 22.5278C27.0827 23.1972 25.9563 23.5563 24.8136 23.5563Z" fill="white"/>
<path d="M56.4673 30.2006C56.0102 30.2006 55.5694 29.9394 55.3572 29.4987C55.0796 28.8783 55.3408 28.16 55.9449 27.8662C57.4957 27.1479 58.1814 25.2869 57.4631 23.736C56.7448 22.1852 54.8838 21.4996 53.3329 22.2178C52.7126 22.4954 51.9943 22.2342 51.7004 21.6301C51.4229 21.0098 51.6841 20.2915 52.2881 19.9977C55.0633 18.708 58.3936 19.9161 59.6832 22.6913C60.3036 24.0462 60.3689 25.5481 59.8628 26.952C59.3567 28.3559 58.3283 29.466 56.9896 30.0864C56.8101 30.168 56.6468 30.2006 56.4673 30.2006Z" fill="white"/>
<path d="M52.9084 40.0277C52.4024 40.0277 51.8963 39.9787 51.3902 39.8808C49.268 39.489 47.4233 38.2809 46.199 36.4852C45.8235 35.9302 45.9541 35.1629 46.5255 34.7874C47.0805 34.412 47.8478 34.5426 48.2232 35.1139C49.9863 37.6932 53.4961 38.3462 56.0754 36.5832C58.6547 34.8201 59.3077 31.3103 57.5447 28.731C57.1692 28.1759 57.2998 27.4087 57.8711 27.0332C58.4262 26.6577 59.1934 26.7883 59.5689 27.3597C62.0829 31.0491 61.1361 36.0934 57.4467 38.6074C56.1081 39.5543 54.5246 40.0277 52.9084 40.0277Z" fill="white"/>
<path d="M54.6062 21.6135C54.0021 21.6135 53.4798 21.1728 53.3981 20.5524C52.99 17.4834 50.8841 15.3938 49.1864 14.1695C46.7213 12.3901 44.093 11.7208 43.489 11.8187C42.8524 12.0146 42.1667 11.6718 41.9708 11.0351C41.7586 10.3984 42.1177 9.69649 42.7544 9.48426C44.1257 9.0435 47.1131 9.94136 49.7087 11.5738C53.1859 13.7613 55.3571 16.8304 55.8305 20.2259C55.9285 20.8953 55.455 21.5156 54.7857 21.5972C54.7204 21.5972 54.6551 21.6135 54.6062 21.6135Z" fill="white"/>
<path d="M29.8415 44.8112C24.9931 44.8112 21.0425 41.2524 21.0425 36.8937C21.0425 34.7552 21.973 32.7473 23.6708 31.2454C24.1768 30.8046 24.9441 30.8536 25.4012 31.3597C25.842 31.8657 25.793 32.633 25.2869 33.0901C24.1279 34.1185 23.4749 35.4735 23.4749 36.9101C23.4749 39.9301 26.3317 42.3789 29.8252 42.3789C31.6536 42.3789 33.4003 41.6932 34.6083 40.5178C35.0981 40.0444 35.8653 40.0444 36.3388 40.5342C36.8122 41.0239 36.8122 41.7912 36.3224 42.2646C34.6736 43.8644 32.3065 44.8112 29.8415 44.8112Z" fill="white"/>
<path d="M40.9424 43.3255C37.5795 43.3255 35.3104 42.395 35.1798 42.3297C34.5594 42.0685 34.2656 41.3502 34.5268 40.7298C34.788 40.1095 35.5063 39.8157 36.1266 40.0768C36.1919 40.1095 39.9956 41.6277 44.8114 40.387C45.4644 40.2238 46.1337 40.6156 46.2969 41.2686C46.4602 41.9215 46.0684 42.5909 45.4154 42.7541C43.7992 43.1622 42.281 43.3255 40.9424 43.3255Z" fill="white"/>
<path d="M49.317 45.3173C48.6803 45.3173 48.1579 44.8275 48.0926 44.1909C48.0436 43.5216 48.5334 42.9339 49.219 42.8686C54.4103 42.4441 55.5204 37.563 55.5693 37.3508C55.7163 36.6978 56.3692 36.2734 57.0222 36.404C57.6752 36.5509 58.0997 37.1876 57.9691 37.8569C57.4793 40.224 55.0469 44.8439 49.4149 45.301C49.3986 45.3173 49.3659 45.3173 49.317 45.3173Z" fill="white"/>
<path d="M52.3696 53.9366C51.7983 53.9366 51.2759 53.5285 51.1616 52.9408C50.7045 50.5084 47.7497 48.174 43.7828 47.1455C38.918 45.8722 38.3793 42.4113 38.3467 42.2644L40.7791 41.9216V41.9053C40.7954 41.9869 41.1872 43.9459 44.4032 44.7784C49.3332 46.0681 52.9247 49.1045 53.5613 52.5C53.6919 53.1693 53.2512 53.806 52.5818 53.9366C52.5329 53.9366 52.4512 53.9366 52.3696 53.9366Z" fill="white"/>
<path d="M55.2265 53.3817H55.2102C54.5409 53.3654 54.0022 52.8104 54.0022 52.1411C54.0838 47.7007 50.6882 45.1051 50.6556 45.0724C50.1169 44.6643 50.0026 43.8971 50.4107 43.3584C50.8188 42.8196 51.5861 42.7054 52.1248 43.1135C52.3044 43.2441 56.5651 46.509 56.4509 52.19C56.4345 52.8593 55.8958 53.3817 55.2265 53.3817Z" fill="white"/>
<path d="M14.8229 18.6427C14.8065 18.6427 14.8065 18.6427 14.7902 18.6427C14.1209 18.6264 13.5822 18.055 13.5985 17.3857C13.5985 17.2551 13.7128 14.0228 16.2105 11.8516C17.9572 10.3334 20.3896 9.72941 23.4097 10.0886C24.079 10.1702 24.5687 10.7742 24.4871 11.4435C24.4055 12.1128 23.8015 12.6026 23.1321 12.5209C20.814 12.2597 19.0346 12.6515 17.8266 13.7126C16.1615 15.1492 16.0472 17.4347 16.0472 17.4673C16.0309 18.1203 15.4759 18.6427 14.8229 18.6427Z" fill="white"/>
<path d="M22.267 13.9575C22.1037 13.9575 21.9242 13.9249 21.7609 13.8433C21.1406 13.5657 20.8794 12.8311 21.1569 12.2271C21.1895 12.1455 22.1364 10.1375 24.5361 8.68465C28.4377 6.31756 33.1556 7.10115 36.4368 8.19491C37.0735 8.40713 37.4327 9.09277 37.2204 9.74576C37.0082 10.3824 36.3226 10.7416 35.6696 10.5293C26.1849 7.41132 23.4097 13.2066 23.3771 13.2719C23.1648 13.6963 22.7241 13.9575 22.267 13.9575Z" fill="white"/>
<path d="M45.8398 29.3844C45.5459 29.3844 45.2521 29.2865 45.0235 29.0743C44.9256 28.9927 42.7544 27.001 43.44 23.981C43.5869 23.328 44.2399 22.9035 44.9092 23.0668C45.5622 23.2137 45.9867 23.8667 45.8234 24.536C45.4643 26.1358 46.6397 27.2459 46.656 27.2622C47.1621 27.7193 47.1947 28.4866 46.7539 28.9927C46.5091 29.2375 46.1663 29.3844 45.8398 29.3844Z" fill="white"/>
<path d="M18.3979 32.5188C17.598 32.5188 16.9124 32.3393 16.3737 32.127C15.2636 31.6863 14.6106 31.0006 14.5453 30.919C14.0882 30.4293 14.1208 29.6457 14.6106 29.1886C15.1003 28.7315 15.8676 28.7642 16.3247 29.2539C16.4879 29.4171 17.8429 30.7068 19.9651 29.6783C20.5691 29.3845 21.3037 29.6294 21.5976 30.2334C21.8914 30.8374 21.6465 31.572 21.0425 31.8659C20.0794 32.3393 19.1815 32.5188 18.3979 32.5188Z" fill="white"/>
<path d="M37.7591 38.8362C37.2041 38.8362 36.698 38.4444 36.5674 37.873C36.3062 36.6976 35.1798 36.3712 35.1635 36.3712C34.5105 36.1916 34.1187 35.5223 34.2983 34.8693C34.4778 34.2163 35.1471 33.8245 35.8001 34.0041C36.7633 34.2653 38.51 35.2447 38.9671 37.3506C39.114 38.0036 38.7059 38.6729 38.0366 38.8199C37.9387 38.8199 37.857 38.8362 37.7591 38.8362Z" fill="white"/>
<path d="M47.9457 26.0703C47.9294 26.0703 47.913 26.0703 47.8804 26.0703C45.7255 25.9724 44.0604 25.2541 42.9666 23.9318C41.3015 21.9565 41.6117 19.3935 41.628 19.2792C41.7096 18.6099 42.33 18.1365 42.9993 18.2181C43.6686 18.2998 44.142 18.9201 44.0604 19.5731C44.0604 19.6221 43.8971 21.2219 44.8603 22.3646C45.5133 23.1319 46.5581 23.54 48.011 23.6216C48.6803 23.6543 49.2027 24.2256 49.17 24.9113C49.1374 25.5479 48.5823 26.0703 47.9457 26.0703Z" fill="white"/>
<path d="M67.209 62.6707C66.5397 62.6707 65.9847 62.1156 65.9847 61.4463V49.6272C65.9847 48.5008 65.0705 47.5703 63.9277 47.5703C62.8013 47.5703 61.8708 48.4845 61.8708 49.6272V61.4463C61.8708 62.1156 61.3158 62.6707 60.6465 62.6707C59.9772 62.6707 59.4221 62.1156 59.4221 61.4463V49.6272C59.4221 47.1459 61.4464 45.1216 63.9277 45.1216C66.4091 45.1216 68.4334 47.1459 68.4334 49.6272V61.4463C68.4334 62.1156 67.8947 62.6707 67.209 62.6707Z" fill="white"/>
<path d="M76.3835 74C75.7141 74 75.1591 73.445 75.1591 72.7757V68.0252C75.1591 67.2579 75.2407 66.4743 75.4203 65.7234L79.1423 49.6109C79.3872 48.109 79.0934 46.5582 78.3261 45.2522L70.8983 32.8291C70.5555 32.2414 70.7351 31.4904 71.3228 31.1476C71.9105 30.8048 72.6614 30.9844 73.0042 31.5721L80.432 44.0115C81.5257 45.8236 81.9175 47.9784 81.5584 50.068C81.5584 50.0843 81.5421 50.117 81.5421 50.1333L77.82 66.2784C77.6894 66.8498 77.6241 67.4375 77.6241 68.0252V72.7757C77.6078 73.4613 77.0691 74 76.3835 74Z" fill="white"/>
<path d="M57.8712 74C57.2019 74 56.6468 73.4449 56.6468 72.7756V68.5475C56.6468 67.5354 56.3693 66.5559 55.8632 65.6907L52.0106 59.1608C51.6678 58.5731 51.8637 57.8222 52.4351 57.4794C53.0227 57.1365 53.7737 57.3324 54.1165 57.9038L57.9691 64.4337C58.7037 65.6744 59.0955 67.0946 59.0955 68.5475V72.7756C59.0955 73.4613 58.5568 74 57.8712 74Z" fill="white"/>
<path d="M71.9432 59.7485H67.209C66.5397 59.7485 65.9846 59.1935 65.9846 58.5242C65.9846 57.8549 66.5397 57.2998 67.209 57.2998H70.7188V2.44871H2.66099V57.2998H56.6959C57.3652 57.2998 57.9202 57.8549 57.9202 58.5242C57.9202 59.1935 57.3652 59.7485 56.6959 59.7485H1.43664C0.767321 59.7485 0.21228 59.1935 0.21228 58.5242V1.22436C0.21228 0.555041 0.767321 0 1.43664 0H71.9432C72.6125 0 73.1675 0.555041 73.1675 1.22436V58.5242C73.1675 59.1935 72.6288 59.7485 71.9432 59.7485Z" fill="white"/>
<path d="M66.0663 8.68455H57.8386C57.1693 8.68455 56.6143 8.12951 56.6143 7.46019C56.6143 6.79088 57.1693 6.23584 57.8386 6.23584H66.0663C66.7356 6.23584 67.2906 6.79088 67.2906 7.46019C67.2906 8.12951 66.7519 8.68455 66.0663 8.68455Z" fill="white"/>
<path d="M66.0662 13.958H61.9524C61.2831 13.958 60.728 13.4029 60.728 12.7336C60.728 12.0643 61.2831 11.5093 61.9524 11.5093H66.0662C66.7355 11.5093 67.2906 12.0643 67.2906 12.7336C67.2906 13.4193 66.7519 13.958 66.0662 13.958Z" fill="white"/>
<path d="M15.6881 53.9043H7.44408C6.77477 53.9043 6.21973 53.3492 6.21973 52.6799C6.21973 52.0106 6.77477 51.4556 7.44408 51.4556H15.6717C16.3411 51.4556 16.8961 52.0106 16.8961 52.6799C16.9124 53.3656 16.3574 53.9043 15.6881 53.9043Z" fill="white"/>
<path d="M11.5742 48.6313H7.44408C6.77477 48.6313 6.21973 48.0763 6.21973 47.407C6.21973 46.7377 6.77477 46.1826 7.44408 46.1826H11.5579C12.2272 46.1826 12.7823 46.7377 12.7823 47.407C12.7986 48.0763 12.2436 48.6313 11.5742 48.6313Z" fill="white"/>
</svg>
