<svg width="65" height="82" viewBox="0 0 65 82" fill="none" xmlns="http://www.w3.org/2000/svg">
<path d="M32.817 8.57733V5.24512" stroke="white" stroke-width="3" stroke-miterlimit="10" stroke-linecap="round" stroke-linejoin="round"/>
<path d="M31.1509 6.91113H34.4293" stroke="white" stroke-width="3" stroke-miterlimit="10" stroke-linecap="round" stroke-linejoin="round"/>
<path d="M29.3235 29.1084L27.7111 31.9032C27.1737 32.8168 26.3137 33.5155 25.2926 33.8917L19.3806 35.9341C19.1656 35.9878 18.8969 36.0953 18.5744 36.2028C18.5207 36.2028 18.5207 36.2028 18.4669 36.2565C15.5109 37.3314 13.5761 40.2337 13.5761 43.4584L12.5549 52.0576" stroke="white" stroke-width="2" stroke-miterlimit="10" stroke-linecap="round" stroke-linejoin="round"/>
<path d="M36.2566 29.1084L37.869 31.9032C38.4064 32.8168 39.2663 33.5155 40.2875 33.8917L46.1995 35.9341C46.4145 35.9878 46.6832 36.0953 47.0057 36.2028C47.0594 36.2028 47.0594 36.2028 47.1131 36.2565C50.1229 37.3852 52.004 40.2874 52.004 43.5121L53.0251 52.1114" stroke="white" stroke-width="2" stroke-miterlimit="10" stroke-linecap="round" stroke-linejoin="round"/>
<path d="M40.5563 47.0596H47.0595" stroke="white" stroke-width="3" stroke-miterlimit="10" stroke-linecap="round" stroke-linejoin="round"/>
<path d="M23.519 13.4684C23.6265 15.7794 24.3789 22.8738 26.7975 26.6897C28.1948 28.8396 30.4522 30.1294 32.8169 30.1294C35.1817 30.1294 37.439 28.8396 38.8364 26.6897C40.7175 23.7875 41.4699 18.0368 41.6849 15.3495C41.7387 14.5433 41.2012 13.8446 40.4488 13.6834C37.4928 13.0922 34.5905 12.8235 31.5271 12.716C28.5173 12.5547 25.1314 12.071 23.1965 9.49124V4.97664C23.1965 3.20304 24.6477 1.80566 26.3675 1.80566H39.2126C40.9862 1.80566 42.3836 3.25679 42.3836 4.97664V11.4261" stroke="white" stroke-width="2" stroke-miterlimit="10" stroke-linecap="round" stroke-linejoin="round"/>
<path d="M34.5368 36.418L36.2566 47.5432L32.8169 52.0579L29.3235 47.5432L31.0433 36.418L32.8169 38.2991L34.5368 36.418Z" fill="#178680"/>
<path d="M47.0595 11.0508H54.3689H58.6147C61.087 11.0508 63.1294 13.0931 63.1294 15.5654V51.4673C63.1294 53.9395 61.087 55.9819 58.6147 55.9819H7.01925C4.54696 55.9819 2.50464 53.9395 2.50464 51.4673V15.5654C2.50464 13.0931 4.54696 11.0508 7.01925 11.0508H10.7814H19.4882" stroke="white" stroke-width="2" stroke-miterlimit="10" stroke-linecap="round" stroke-linejoin="round"/>
<path d="M17.3383 55.9814L14.5973 62.9146H32.817H50.9829L48.2419 55.9814" stroke="white" stroke-width="2" stroke-miterlimit="10" stroke-linecap="round" stroke-linejoin="round"/>
<path d="M58.2385 68.2354L63.5056 77.7483C64.3118 79.1994 63.2906 80.9192 61.6245 80.9192H32.817H3.95578C2.34342 80.9192 1.26851 79.1457 2.07469 77.7483L7.34173 68.2354H58.2385V68.2354Z" stroke="white" stroke-width="2" stroke-miterlimit="10" stroke-linecap="round" stroke-linejoin="round"/>
<path d="M15.0272 74.5776H53.0789" stroke="white" stroke-width="3" stroke-miterlimit="10" stroke-linecap="round" stroke-linejoin="round"/>
</svg>
