<svg width="73" height="75" viewBox="0 0 73 75" fill="none" xmlns="http://www.w3.org/2000/svg">
<path d="M14.7315 55.3811C11.9639 55.3811 9.52545 54.8725 7.43107 53.8702C4.94774 52.6734 3.04785 50.8184 1.74634 48.365C0.429877 45.8517 -0.168516 42.7551 0.0409216 39.6434C0.235399 36.816 1.10307 34.2728 2.35969 32.8367C2.76361 32.3729 3.48168 32.3281 3.94543 32.732C4.40919 33.1359 4.45407 33.854 4.05015 34.3177C1.35739 37.3845 2.09042 44.1762 3.75096 47.3328C5.77053 51.1625 9.54041 53.1521 14.7464 53.1521C15.6141 53.1521 16.5416 53.0923 17.4841 52.9876C18.0974 52.9128 18.6509 53.3616 18.7257 53.9749C18.8005 54.5883 18.3517 55.1418 17.7384 55.2166C16.7062 55.3213 15.7039 55.3811 14.7315 55.3811Z" fill="white"/>
<path d="M4.40923 35.9634C4.125 35.9634 3.84076 35.8587 3.61636 35.6343C0.833837 32.8817 0.818877 28.3787 3.57148 25.5962C6.32409 22.8137 10.827 22.7987 13.6095 25.5513C14.0434 25.9852 14.0583 26.7032 13.6095 27.1371C13.1757 27.5709 12.4576 27.5859 12.0238 27.1371C10.1239 25.2521 7.04216 25.2671 5.15723 27.167C3.28725 29.0819 3.30221 32.1636 5.2021 34.0485C5.63594 34.4824 5.6509 35.2004 5.2021 35.6343C4.97771 35.8437 4.69347 35.9634 4.40923 35.9634Z" fill="white"/>
<path d="M20.5808 46.0462C20.4312 46.0462 20.2816 46.0462 20.132 46.0313C16.2275 45.7769 13.2505 42.396 13.5048 38.4915C13.5497 37.8782 14.0733 37.3994 14.7016 37.4443C15.3149 37.4892 15.7936 38.0128 15.7488 38.6411C15.5842 41.3189 17.6187 43.6227 20.2816 43.7873C22.9444 43.9518 25.2632 41.9173 25.4278 39.2545C25.4577 38.8805 25.6671 38.5364 25.9962 38.3419C26.3253 38.1624 26.7293 38.1474 27.0733 38.327C27.1182 38.3569 32.2794 41.0347 38.3231 39.5985C38.9215 39.4489 39.5349 39.8229 39.6695 40.4363C39.8191 41.0347 39.4451 41.648 38.8318 41.7827C33.8651 42.9645 29.5118 41.7378 27.3875 40.915C26.5198 43.907 23.7672 46.0462 20.5808 46.0462Z" fill="white"/>
<path d="M28.6141 31.8348C28.5842 31.8348 28.5543 31.8348 28.5244 31.8348C26.8788 31.7001 25.3379 30.997 24.1561 29.8451C23.7073 29.4113 23.7073 28.7082 24.1412 28.2594C24.575 27.8106 25.2781 27.8106 25.7269 28.2444C26.5347 29.0223 27.5969 29.516 28.7189 29.6058C29.3322 29.6507 29.796 30.2042 29.7511 30.8175C29.6763 31.401 29.1826 31.8348 28.6141 31.8348Z" fill="white"/>
<path d="M30.7535 52.5092C30.559 52.5092 30.3646 52.4942 30.1551 52.4793C28.5095 52.3446 26.9687 51.6415 25.7869 50.4896C25.3381 50.0558 25.3381 49.3527 25.7719 48.9039C26.2057 48.4551 26.9088 48.4551 27.3576 48.8889C28.1655 49.6668 29.2276 50.1605 30.3496 50.2503C31.6361 50.355 32.8928 49.9511 33.8801 49.1133C34.8675 48.2756 35.4659 47.0938 35.5855 45.8072C35.6304 45.1939 36.1839 44.7301 36.7973 44.775C37.4106 44.8199 37.8744 45.3734 37.8295 45.9867C37.6799 47.8717 36.7973 49.592 35.3462 50.8187C34.0297 51.9258 32.429 52.5092 30.7535 52.5092Z" fill="white"/>
<path d="M18.9502 34.9015C18.7707 34.9015 18.6061 34.9015 18.4266 34.8866C17.8132 34.8417 17.3495 34.3031 17.3944 33.6898C17.4392 33.0764 17.9778 32.6127 18.5911 32.6576C19.7131 32.7473 20.8351 32.4332 21.7477 31.7749C23.9318 30.2341 24.4554 27.1972 22.8996 25.0131C22.5405 24.5045 22.6602 23.8013 23.1688 23.4423C23.6775 23.0833 24.3806 23.203 24.7396 23.7116C26.9986 26.913 26.2356 31.3411 23.0492 33.6C21.8524 34.4527 20.4162 34.9015 18.9502 34.9015Z" fill="white"/>
<path d="M65.0862 41.6629C64.6674 41.6629 64.2634 41.4236 64.069 41.0197C63.8147 40.4512 64.054 39.7929 64.6075 39.5237C67.4948 38.1773 68.3475 36.4868 67.6294 33.45C67.4948 32.8516 67.8688 32.2382 68.4672 32.1036C69.0656 31.969 69.6789 32.343 69.8135 32.9413C70.756 36.9655 69.3498 39.778 65.55 41.5582C65.4004 41.618 65.2508 41.6629 65.0862 41.6629Z" fill="white"/>
<path d="M60.1944 55.202C59.5362 55.202 58.878 55.1421 58.2197 55.0225C55.4372 54.4989 53.0287 52.9281 51.4429 50.5944C51.0988 50.0857 51.2185 49.3826 51.7421 49.0385C52.2508 48.6945 52.9539 48.8141 53.2979 49.3377C54.5546 51.1778 56.4545 52.4195 58.6386 52.8234C60.8227 53.2423 63.0517 52.7635 64.8918 51.5069C68.6916 48.9039 69.664 43.7128 67.0759 39.913C66.7319 39.4044 66.8515 38.7013 67.3751 38.3572C67.8838 38.0132 68.5869 38.1328 68.931 38.6564C72.2221 43.4735 70.9804 50.0708 66.1634 53.3769C64.3682 54.5737 62.3038 55.202 60.1944 55.202Z" fill="white"/>
<path d="M28.4197 61.7688C22.0468 61.7688 16.8557 57.1313 16.8557 51.4316C16.8557 48.649 18.0824 46.0311 20.2965 44.0713C20.7602 43.6674 21.4633 43.7123 21.8822 44.176C22.2861 44.6398 22.2413 45.3429 21.7775 45.7618C20.0571 47.2877 19.0997 49.3073 19.0997 51.4316C19.0997 55.8896 23.2735 59.5248 28.4197 59.5248C31.0825 59.5248 33.6257 58.5375 35.3909 56.8021C35.8397 56.3683 36.5428 56.3683 36.9767 56.8171C37.4105 57.2659 37.3955 57.969 36.9617 58.4028C34.7776 60.5421 31.6659 61.7688 28.4197 61.7688Z" fill="white"/>
<path d="M43.6787 59.7191C39.1758 59.7191 36.139 58.4625 35.9744 58.3877C35.4059 58.1484 35.1366 57.4901 35.376 56.9217C35.6154 56.3532 36.2736 56.0839 36.8421 56.3233C36.9019 56.3532 42.2874 58.5373 49.154 56.787C49.7524 56.6374 50.3657 56.9965 50.5153 57.5949C50.6649 58.1932 50.3059 58.8066 49.7075 58.9562C47.5383 59.5247 45.4888 59.7191 43.6787 59.7191Z" fill="white"/>
<path d="M55.2426 62.4724C54.6592 62.4724 54.1805 62.0236 54.1206 61.4401C54.0758 60.8268 54.5246 60.2882 55.1529 60.2284C62.7225 59.615 64.3382 52.4942 64.413 52.195C64.5476 51.5966 65.146 51.2076 65.7444 51.3273C66.3428 51.4619 66.7318 52.0454 66.6121 52.6587C66.5971 52.7485 66.1184 54.9625 64.5028 57.2663C62.9918 59.4206 60.1943 62.0684 55.3474 62.4724C55.3174 62.4724 55.2726 62.4724 55.2426 62.4724Z" fill="white"/>
<path d="M59.4465 74.3653C58.9229 74.3653 58.4442 73.9913 58.3395 73.4528C57.6663 69.8325 53.5074 66.5264 47.7778 65.0154C41.4349 63.3549 40.7467 58.9417 40.7168 58.7622L42.9458 58.4481V58.4331C42.9608 58.5677 43.5292 61.5747 48.3613 62.8463C54.9436 64.5666 59.7307 68.5609 60.5685 73.0339C60.6882 73.6472 60.2842 74.2307 59.6709 74.3504C59.5811 74.3504 59.5213 74.3653 59.4465 74.3653Z" fill="white"/>
<path d="M63.3808 73.5872H63.3658C62.7524 73.5723 62.2588 73.0636 62.2588 72.4503C62.3784 66.0475 57.4716 62.2926 57.4267 62.2627C56.9331 61.8887 56.8283 61.1856 57.2023 60.6919C57.5763 60.1982 58.2795 60.0935 58.7731 60.4675C59.0125 60.647 64.6523 64.9704 64.5027 72.4952C64.4878 73.0936 63.9941 73.5872 63.3808 73.5872Z" fill="white"/>
<path d="M7.73035 25.7309C7.71539 25.7309 7.70043 25.7309 7.70043 25.7309C7.08708 25.7159 6.5934 25.1923 6.60836 24.579C6.60836 24.3994 6.75796 20.1957 10.0192 17.3683C12.3081 15.3787 15.4945 14.6157 19.4888 15.0645C20.1021 15.1393 20.5509 15.6928 20.4761 16.3062C20.4013 16.9195 19.8478 17.3683 19.2345 17.2935C15.8984 16.9046 13.2954 17.503 11.5002 19.0438C8.98697 21.198 8.85234 24.5939 8.85234 24.6388C8.82242 25.2521 8.32874 25.7309 7.73035 25.7309Z" fill="white"/>
<path d="M17.9778 19.2981C17.8282 19.2981 17.6636 19.2682 17.514 19.1934C16.9456 18.9391 16.7062 18.2659 16.9605 17.7124C16.9904 17.6376 17.888 15.7227 20.132 13.9575C22.1665 12.3717 25.7419 10.5766 31.307 11.1151C31.9203 11.175 32.3691 11.7285 32.3093 12.3418C32.2495 12.9552 31.6959 13.404 31.0826 13.3441C21.9421 12.4465 19.0399 18.5651 19.01 18.6399C18.8155 19.0588 18.3967 19.2981 17.9778 19.2981Z" fill="white"/>
<path d="M12.6521 44.8499C11.6198 44.8499 10.7522 44.6255 10.079 44.3562C8.67274 43.7877 7.84995 42.935 7.76019 42.8303C7.34132 42.3815 7.37124 41.6634 7.82003 41.2446C8.26883 40.8257 8.9869 40.8556 9.40577 41.3044C9.51049 41.4091 11.7096 43.6531 15.0755 42.0075C15.6291 41.7382 16.3023 41.9626 16.5715 42.5162C16.8408 43.0697 16.6164 43.7429 16.0629 44.0121C14.8063 44.6255 13.6544 44.8499 12.6521 44.8499Z" fill="white"/>
<path d="M39.3254 53.5559C38.8167 53.5559 38.353 53.1968 38.2333 52.6733C37.7995 50.7434 35.9594 50.2049 35.8846 50.175C35.2862 50.0104 34.9272 49.3971 35.0917 48.7987C35.2563 48.2003 35.8696 47.8412 36.468 48.0058C36.6027 48.0357 39.6993 48.8884 40.4324 52.1796C40.567 52.778 40.193 53.3913 39.5797 53.526C39.4899 53.5409 39.4151 53.5559 39.3254 53.5559Z" fill="white"/>
<path d="M50.4406 39.8528C40.8364 39.8528 33.0273 32.0438 33.0273 22.4396C33.0273 12.8354 40.8364 5.02637 50.4406 5.02637C60.0448 5.02637 67.8538 12.8354 67.8538 22.4396C67.8538 32.0438 60.0448 39.8528 50.4406 39.8528ZM50.4406 7.27034C42.078 7.27034 35.2713 14.0771 35.2713 22.4396C35.2713 30.8021 42.078 37.6089 50.4406 37.6089C58.8031 37.6089 65.6098 30.8021 65.6098 22.4396C65.6098 14.0771 58.8031 7.27034 50.4406 7.27034Z" fill="white"/>
<path d="M50.4405 34.5123C43.7834 34.5123 38.3679 29.0969 38.3679 22.4398C38.3679 15.7826 43.7834 10.3672 50.4405 10.3672C57.0976 10.3672 62.5131 15.7826 62.5131 22.4398C62.5131 29.0969 57.0976 34.5123 50.4405 34.5123ZM50.4405 12.6112C45.025 12.6112 40.6119 17.0243 40.6119 22.4398C40.6119 27.8552 45.025 32.2684 50.4405 32.2684C55.856 32.2684 60.2691 27.8552 60.2691 22.4398C60.2691 17.0243 55.856 12.6112 50.4405 12.6112Z" fill="white"/>
<path d="M50.4406 16.0818C49.8272 16.0818 49.3186 15.5732 49.3186 14.9598V1.12199C49.3186 0.508634 49.8272 0 50.4406 0C51.0539 0 51.5626 0.508634 51.5626 1.12199V14.9598C51.5626 15.5732 51.0539 16.0818 50.4406 16.0818Z" fill="white"/>
<path d="M50.4406 45.1189C49.8272 45.1189 49.3186 44.6103 49.3186 43.9969V30.1591C49.3186 29.5457 49.8272 29.0371 50.4406 29.0371C51.0539 29.0371 51.5626 29.5457 51.5626 30.1591V43.9969C51.5626 44.6103 51.0539 45.1189 50.4406 45.1189Z" fill="white"/>
<path d="M42.8409 23.6815H29.0031C28.3897 23.6815 27.8811 23.1728 27.8811 22.5595C27.8811 21.9461 28.3897 21.4375 29.0031 21.4375H42.8409C43.4543 21.4375 43.9629 21.9461 43.9629 22.5595C43.9629 23.1728 43.4543 23.6815 42.8409 23.6815Z" fill="white"/>
<path d="M71.878 23.6815H58.0402C57.4268 23.6815 56.9182 23.1728 56.9182 22.5595C56.9182 21.9461 57.4268 21.4375 58.0402 21.4375H71.878C72.4914 21.4375 73 21.9461 73 22.5595C73 23.1728 72.4914 23.6815 71.878 23.6815Z" fill="white"/>
</svg>
