<svg width="32" height="30" viewBox="0 0 32 30" fill="none" xmlns="http://www.w3.org/2000/svg">
<path d="M6.5 7.5H27.185C27.6041 7.50002 28.0186 7.58786 28.4017 7.75786C28.7848 7.92786 29.128 8.17625 29.4093 8.48702C29.6905 8.79779 29.9035 9.16404 30.0345 9.56217C30.1656 9.96029 30.2117 10.3815 30.17 10.7985L29.27 19.7985C29.196 20.5388 28.8495 21.2251 28.2979 21.7243C27.7464 22.2235 27.029 22.5 26.285 22.5H11.96C11.2662 22.5003 10.5938 22.2601 10.0572 21.8203C9.52057 21.3805 9.15298 20.7683 9.017 20.088L6.5 7.5Z" stroke="white" stroke-width="3" stroke-linejoin="round"/>
<path d="M6.5 7.5L5.285 2.6355C5.20374 2.31113 5.01643 2.02321 4.75281 1.81748C4.48919 1.61175 4.16439 1.50001 3.83 1.5H2" stroke="white" stroke-width="3" stroke-linecap="round" stroke-linejoin="round"/>
<path d="M11 28.5H14" stroke="white" stroke-width="3" stroke-linecap="round" stroke-linejoin="round"/>
<path d="M23 28.5H26" stroke="white" stroke-width="3" stroke-linecap="round" stroke-linejoin="round"/>
</svg>
