<svg width="66" height="78" viewBox="0 0 66 78" fill="none" xmlns="http://www.w3.org/2000/svg">
<path d="M23.0762 76.0188C23.8827 73.5455 23.829 70.427 23.2913 67.6312C22.9687 66.0182 21.7321 64.7278 20.1191 64.2976C18.6136 63.9213 17.1081 63.76 15.5489 63.76C13.9359 63.76 12.3767 64.0288 10.7637 63.8675C7.10753 63.5449 4.90309 61.0716 6.40856 57.2542C7.21506 55.4261 6.3548 54.2433 5.76336 53.2217C4.04283 50.157 6.56986 49.458 6.62363 47.3074C6.62363 46.3396 5.8709 45.5868 4.90309 45.4793C3.50516 45.318 2.32229 44.7266 1.56956 43.9738C0.92436 43.3286 0.816826 42.3071 1.30073 41.5006C7.69896 31.1774 6.40856 33.8657 8.613 19.2949C10.0647 9.77822 20.6567 -1.51279 41.8408 1.98204C46.3034 2.73478 50.7123 4.02518 54.476 6.55221C63.1324 12.4665 67.7564 24.8867 63.24 39.3499C60.7129 47.4687 55.0137 56.1789 56.788 65.2654L59.2612 75.3736" stroke="white" stroke-width="2" stroke-miterlimit="10" stroke-linecap="round" stroke-linejoin="round"/>
<path d="M54.1535 31.9844C54.6912 33.8662 54.1535 35.9093 52.8093 37.3073C50.6587 39.673 46.7337 40.587 44.0454 39.9418C39.1526 38.759 40.0129 34.2426 37.4858 31.9844" stroke="white" stroke-width="2" stroke-miterlimit="10" stroke-linecap="round" stroke-linejoin="round"/>
<path d="M33.5609 33.3281C32.8619 35.0487 33.1308 37.1456 34.2061 38.651C35.3352 40.1565 37.217 41.0168 39.0989 40.8555" stroke="white" stroke-width="2" stroke-miterlimit="10" stroke-linecap="round" stroke-linejoin="round"/>
<path d="M24.3665 28.5425C24.4202 30.2093 25.2267 31.7685 26.5709 32.7363C27.9151 33.7041 29.6356 33.8116 31.3561 33.5966C35.2273 33.0051 45.2817 28.1124 53.6156 31.7685C55.121 32.4137 57.1104 31.7147 58.1319 30.3706C62.4871 24.6713 55.6587 5.69165 34.6359 6.06802C18.9898 6.33685 11.0323 18.058 14.7422 26.0155C16.9467 30.6932 22.861 31.1233 25.7106 27.037C27.1623 24.9401 27.001 23.3271 32.1089 22.5206C32.8078 22.4131 33.8294 22.2518 34.7434 22.0367C36.5177 21.7141 38.0232 20.5313 38.7222 18.8645C38.7759 18.757 38.8297 18.5957 38.8297 18.4881C39.0985 17.5203 39.3136 16.3912 40.0663 15.746C40.9266 14.9933 42.1632 15.0471 43.131 14.5094C44.1526 13.9717 44.8516 12.8426 45.1204 11.7135C45.3892 10.5844 45.3355 9.34779 45.2279 8.21869" stroke="white" stroke-width="2" stroke-miterlimit="10" stroke-linecap="round" stroke-linejoin="round"/>
<path d="M44.9056 76.0187C40.2816 65.7493 38.2923 51.985 42.1097 39.1348" stroke="white" stroke-width="2" stroke-miterlimit="10" stroke-linecap="round" stroke-linejoin="round"/>
<path d="M50.7122 76.0187C46.0883 65.7493 43.8301 52.8991 47.6475 40.0488" stroke="white" stroke-width="2" stroke-miterlimit="10" stroke-linecap="round" stroke-linejoin="round"/>
<path d="M42.0557 27.4131C41.8944 27.5207 41.7331 27.6282 41.5718 27.7357C43.2385 27.4669 44.9591 27.2518 46.7334 27.2518C49.4217 27.2518 52.2176 27.682 54.9059 28.8648C55.0672 28.8648 55.4436 28.7035 55.6049 28.4885C56.4114 27.4131 56.6264 24.0796 54.5833 20.0471C54.0456 19.0255 53.1854 17.5738 51.8412 16.0684C51.4111 18.5954 50.3895 21.0687 48.6152 22.9505C46.7871 24.8323 44.2601 25.9077 42.0557 27.4131Z" fill="white"/>
</svg>
