<svg width="34" height="32" viewBox="0 0 34 32" fill="none" xmlns="http://www.w3.org/2000/svg">
<path d="M6.91675 8.08325H28.7509C29.1933 8.08327 29.6308 8.17599 30.0352 8.35544C30.4396 8.53488 30.8019 8.79707 31.0988 9.12511C31.3956 9.45314 31.6204 9.83974 31.7588 10.26C31.8971 10.6802 31.9458 11.1248 31.9017 11.565L30.9517 21.065C30.8736 21.8464 30.5079 22.5709 29.9257 23.0978C29.3435 23.6247 28.5862 23.9166 27.8009 23.9166H12.6801C11.9477 23.9169 11.2379 23.6633 10.6715 23.1991C10.1051 22.7349 9.71712 22.0887 9.57358 21.3706L6.91675 8.08325Z" stroke="white" stroke-width="3" stroke-linejoin="round"/>
<path d="M6.91675 8.08333L5.63425 2.94858C5.54848 2.60619 5.35076 2.30228 5.07249 2.08512C4.79423 1.86796 4.45138 1.75001 4.09841 1.75H2.16675" stroke="white" stroke-width="3" stroke-linecap="round" stroke-linejoin="round"/>
<path d="M11.6667 30.25H14.8334" stroke="white" stroke-width="3" stroke-linecap="round" stroke-linejoin="round"/>
<path d="M24.3334 30.25H27.5001" stroke="white" stroke-width="3" stroke-linecap="round" stroke-linejoin="round"/>
</svg>
