<svg width="27" height="23" viewBox="0 0 27 23" fill="none" xmlns="http://www.w3.org/2000/svg">
<path fill-rule="evenodd" clip-rule="evenodd" d="M1.14307 18.1667V4.83333C1.14307 3.94928 1.50429 3.10143 2.14727 2.47631C2.79025 1.85119 3.66232 1.5 4.57164 1.5H21.7145C22.6238 1.5 23.4959 1.85119 24.1389 2.47631C24.7818 3.10143 25.1431 3.94928 25.1431 4.83333V18.1667C25.1431 19.0507 24.7818 19.8986 24.1389 20.5237C23.4959 21.1488 22.6238 21.5 21.7145 21.5H4.57164C3.66232 21.5 2.79025 21.1488 2.14727 20.5237C1.50429 19.8986 1.14307 19.0507 1.14307 18.1667Z" stroke="#178680" stroke-width="2" stroke-linecap="round" stroke-linejoin="round"/>
<path d="M4.57178 7.3335L13.1432 12.3335L21.7146 7.3335" stroke="#178680" stroke-width="2" stroke-linecap="round" stroke-linejoin="round"/>
</svg>
