<svg width="21" height="29" viewBox="0 0 21 29" fill="none" xmlns="http://www.w3.org/2000/svg">
<g clip-path="url(#clip0_179_531)">
<path d="M10.5 28C8.68085 28 1 15.4135 1 10.5414C1 5.26316 5.24468 1 10.5 1C15.7553 1 20 5.26316 20 10.5414C20 15.4135 12.3191 28 10.5 28ZM10.5 2.01504C5.85106 2.01504 2.01064 5.87218 2.01064 10.5414C2.01064 15.2105 9.08511 25.9699 10.5 26.985C11.7128 25.9699 18.9894 15.2105 18.9894 10.5414C18.9894 5.87218 15.1489 2.01504 10.5 2.01504Z" fill="#178680" stroke="#178680" stroke-width="0.5"/>
<path d="M10.4999 16.4285C7.26586 16.4285 4.84033 13.7894 4.84033 10.7443C4.84033 7.49615 7.46799 5.06006 10.4999 5.06006C13.5318 5.06006 16.1595 7.69916 16.1595 10.7443C16.1595 13.7894 13.7339 16.4285 10.4999 16.4285ZM10.4999 5.87209C7.87225 5.87209 5.85097 8.10517 5.85097 10.5413C5.85097 13.1804 8.07437 15.2104 10.4999 15.2104C13.1276 15.4134 15.1488 13.3834 15.1488 10.7443C15.1488 8.10517 13.1276 5.87209 10.4999 5.87209Z" fill="#178680" stroke="#178680" stroke-width="0.5"/>
</g>
<defs>
<clipPath id="clip0_179_531">
<rect width="21" height="29" fill="white"/>
</clipPath>
</defs>
</svg>
