<svg width="26" height="27" viewBox="0 0 26 27" fill="none" xmlns="http://www.w3.org/2000/svg">
<path d="M17.5313 25.9201C16.8513 25.9201 15.9447 25.9201 15.2647 25.6965C12.318 24.8019 9.3714 23.0128 6.42477 20.3291C2.11815 15.8563 0.758161 11.6071 0.304833 8.69979C0.0781685 6.01611 1.21149 3.10878 3.47813 1.31966L3.7048 1.09602C4.61145 0.425096 6.1981 0.648737 7.10476 1.31966L9.3714 3.55606C9.82473 4.22698 10.0514 4.67426 10.0514 5.34519C10.0514 6.01611 9.82473 6.68703 9.3714 7.13431L8.23808 8.47615C7.78475 9.14707 7.55809 10.0416 8.01142 10.7126C9.14474 13.1726 11.4114 17.4218 15.2647 18.3163C15.9447 18.54 16.6247 18.3163 17.3047 17.8691L19.118 16.5272C19.5713 16.3036 20.0246 15.8563 20.7046 15.8563C21.3846 15.8563 22.0646 16.0799 22.5179 16.5272L24.7846 18.7636C25.6912 19.6582 25.6912 21 25.0112 21.8946L24.7846 22.1182C22.9713 24.5783 20.2513 25.9201 17.5313 25.9201ZM5.29145 1.76694C5.06478 1.76694 4.61145 1.76694 4.38479 1.99058L4.15813 2.21422C2.34481 3.7797 1.21149 6.23975 1.43815 8.69979C1.66482 11.3835 3.0248 15.409 7.10476 19.4345C9.82473 22.1182 12.5447 23.6837 15.2647 24.5783C18.438 25.4728 21.6113 24.3546 23.6513 21.6709L23.8779 21.4473C24.3312 21 24.3312 20.1055 23.8779 19.6582L21.6113 17.4218C21.1579 16.9745 20.2513 16.9745 19.798 17.4218L17.9846 18.7636C17.078 19.4345 15.9447 19.6582 15.038 19.4345C10.7314 18.54 8.01142 13.8435 6.8781 11.3835C6.42477 10.0416 6.65143 8.69979 7.33143 7.80523L8.46475 6.23975C8.69141 6.01611 8.91808 5.79247 8.91808 5.34519C8.91808 4.89791 8.69141 4.67426 8.46475 4.45062L6.1981 2.21422C5.97144 1.99058 5.51811 1.76694 5.29145 1.76694Z" fill="#178680" stroke="#178680" stroke-width="0.5"/>
</svg>
