<svg width="26" height="26" viewBox="0 0 26 26" fill="none" xmlns="http://www.w3.org/2000/svg">
<g clip-path="url(#clip0_179_545)">
<path d="M13 0C16.5736 0 19.8252 1.45525 22.1802 3.79493C24.5352 6.13462 26 9.36502 26 12.9153V22.1173C26 22.4183 25.7538 22.6692 25.4444 22.6692H0.55561C0.25255 22.6692 0 22.4246 0 22.1173V12.9153C0 9.36502 1.46479 6.13462 3.81982 3.79493C6.17484 1.45525 9.42642 0 13 0ZM21.4036 4.56647C19.2443 2.42123 16.2768 1.09771 13.0063 1.09771C9.7358 1.09771 6.76202 2.4275 4.60272 4.56647C2.44342 6.70543 1.11122 9.6661 1.11122 12.909V21.5653H24.9014V12.909C24.8951 9.6661 23.5566 6.7117 21.4036 4.56647Z" fill="#178680"/>
<path d="M3.03706 12.2378H22.9569C23.26 12.2378 23.5125 12.4824 23.5125 12.7898V19.928C23.5125 20.2291 23.2663 20.48 22.9569 20.48H3.03706C2.734 20.48 2.48145 20.2354 2.48145 19.928V12.7898C2.48776 12.4824 2.734 12.2378 3.03706 12.2378ZM22.4076 13.3355H3.59267V19.3698H22.4076V13.3355Z" fill="#178680"/>
<path d="M6.96428 9.6348H19.0298V8.374H6.96428V9.6348ZM19.5855 10.7325H6.41498C6.11192 10.7325 5.85938 10.4879 5.85938 10.1805V7.82201C5.85938 7.52092 6.10561 7.27002 6.41498 7.27002H19.5855C19.8885 7.27002 20.1411 7.51465 20.1411 7.82201V10.1805C20.1411 10.4879 19.8948 10.7325 19.5855 10.7325Z" fill="#178680"/>
<path d="M5.26557 7.27637C4.96251 7.27637 4.70996 7.521 4.70996 7.82836C4.70996 8.13572 4.9562 8.38035 5.26557 8.38035H20.7342C21.0373 8.38035 21.2899 8.13572 21.2899 7.82836C21.2899 7.521 21.0436 7.27637 20.7342 7.27637H5.26557Z" fill="#178680"/>
<path d="M6.06139 13.3357L13.0002 16.5724L19.939 13.3357H6.06139ZM12.7666 17.6764L3.40331 13.3044C3.18864 13.2291 3.03711 13.0221 3.03711 12.79C3.03711 12.4889 3.28335 12.238 3.59272 12.238H22.4014C22.6097 12.2318 22.8181 12.3509 22.9128 12.5517C23.0454 12.8277 22.9254 13.1538 22.6476 13.2793L22.414 12.7837L22.6476 13.2793L13.2843 17.6513C13.1265 17.7391 12.9371 17.7579 12.7666 17.6764Z" fill="#178680"/>
<path d="M8.30263 22.1174C8.30263 21.8163 8.05639 21.5654 7.74702 21.5654C7.43764 21.5654 7.19141 21.8101 7.19141 22.1174V25.4545C7.19141 25.7555 7.43764 26.0064 7.74702 26.0064C8.05639 26.0064 8.30263 25.7618 8.30263 25.4545V22.1174Z" fill="#178680"/>
<path d="M18.8021 22.1174C18.8021 21.8163 18.5559 21.5654 18.2465 21.5654C17.9372 21.5654 17.6909 21.8101 17.6909 22.1174V25.4545C17.6909 25.7555 17.9372 26.0064 18.2465 26.0064C18.5559 26.0064 18.8021 25.7618 18.8021 25.4545V22.1174Z" fill="#178680"/>
</g>
<defs>
<clipPath id="clip0_179_545">
<rect width="26" height="26" fill="white"/>
</clipPath>
</defs>
</svg>
