<svg width="59" height="51" viewBox="0 0 59 51" fill="none" xmlns="http://www.w3.org/2000/svg">
<g clip-path="url(#clip0_213_73)">
<path d="M57.0354 17.228V46.2677C57.0354 47.7797 55.8136 49.0249 54.3299 49.0249H4.67211C3.18848 49.0249 1.96667 47.7797 1.96667 46.2677V17.228" stroke="#434343" stroke-width="2" stroke-miterlimit="10" stroke-linecap="round" stroke-linejoin="round"/>
<path d="M11.3924 7.1333C11.2615 7.4446 11.1742 7.7559 11.1742 8.11167C11.1742 9.53474 12.3087 10.691 13.7051 10.691C15.1014 10.691 16.236 9.53474 16.236 8.11167C16.236 7.7559 16.1487 7.40013 16.0178 7.1333" stroke="#434343" stroke-width="2" stroke-miterlimit="10" stroke-linecap="round" stroke-linejoin="round"/>
<path d="M13.7484 8.06716V1.97461" stroke="#434343" stroke-width="2" stroke-miterlimit="10" stroke-linecap="round" stroke-linejoin="round"/>
<path d="M47.61 7.1333C47.7409 7.4446 47.8281 7.7559 47.8281 8.11167C47.8281 9.53474 46.6936 10.691 45.2972 10.691C43.9009 10.691 42.7664 9.53474 42.7664 8.11167C42.7664 7.7559 42.8536 7.40013 42.9845 7.1333" stroke="#434343" stroke-width="2" stroke-miterlimit="10" stroke-linecap="round" stroke-linejoin="round"/>
<path d="M45.2544 8.06716V1.97461" stroke="#434343" stroke-width="2" stroke-miterlimit="10" stroke-linecap="round" stroke-linejoin="round"/>
<path d="M42.4173 3.66455H16.5847" stroke="#434343" stroke-width="2" stroke-miterlimit="10" stroke-linecap="round" stroke-linejoin="round"/>
<path d="M10.9121 3.66455H4.67211C3.18848 3.66455 1.96667 4.90974 1.96667 6.42176V17.2283H57.0354V6.42176C57.0354 4.90974 55.8136 3.66455 54.3299 3.66455H48.0463" stroke="#434343" stroke-width="2" stroke-miterlimit="10" stroke-linecap="round" stroke-linejoin="round"/>
<path d="M29.5013 44.4889C35.6467 44.4889 40.6285 39.4117 40.6285 33.1487C40.6285 26.8858 35.6467 21.8086 29.5013 21.8086C23.356 21.8086 18.3741 26.8858 18.3741 33.1487C18.3741 39.4117 23.356 44.4889 29.5013 44.4889Z" stroke="#434343" stroke-width="2" stroke-miterlimit="10" stroke-linecap="round" stroke-linejoin="round"/>
<path d="M29.5015 27.4121V38.8412" stroke="#434343" stroke-width="2" stroke-miterlimit="10" stroke-linecap="round" stroke-linejoin="round"/>
<path d="M23.915 33.1489H35.0859" stroke="#434343" stroke-width="2" stroke-miterlimit="10" stroke-linecap="round" stroke-linejoin="round"/>
</g>
<defs>
<clipPath id="clip0_213_73">
<rect width="59" height="51" fill="white"/>
</clipPath>
</defs>
</svg>
