<svg width="53" height="54" viewBox="0 0 53 54" fill="none" xmlns="http://www.w3.org/2000/svg">
<path d="M10.6954 40.2083C8.68611 40.2083 6.91573 39.839 5.39516 39.1113C3.59219 38.2424 2.21282 36.8957 1.26789 35.1144C0.312102 33.2897 -0.122347 31.0414 0.0297102 28.7823C0.170906 26.7295 0.800858 24.8831 1.7132 23.8405C2.00645 23.5038 2.52779 23.4712 2.86449 23.7644C3.20119 24.0577 3.23377 24.579 2.94052 24.9157C0.985499 27.1423 1.5177 32.0733 2.7233 34.365C4.18956 37.1455 6.92659 38.59 10.7063 38.59C11.3363 38.59 12.0096 38.5466 12.6939 38.4705C13.1392 38.4162 13.5411 38.7421 13.5954 39.1874C13.6497 39.6327 13.3239 40.0346 12.8785 40.0889C12.1291 40.1649 11.4014 40.2083 10.6954 40.2083Z" fill="#434343"/>
<path d="M3.20103 26.1102C2.99466 26.1102 2.7883 26.0342 2.62538 25.8713C0.605193 23.8728 0.594332 20.6036 2.5928 18.5834C4.59127 16.5632 7.8605 16.5523 9.88069 18.5508C10.1957 18.8658 10.2065 19.3871 9.88069 19.7021C9.56571 20.0171 9.04437 20.0279 8.72939 19.7021C7.35002 18.3336 5.1126 18.3444 3.74409 19.7238C2.38644 21.1141 2.3973 23.3515 3.77667 24.72C4.09165 25.035 4.10251 25.5563 3.77667 25.8713C3.61375 26.0233 3.40739 26.1102 3.20103 26.1102Z" fill="#434343"/>
<path d="M14.9423 33.4309C14.8337 33.4309 14.7251 33.4309 14.6165 33.4201C11.7817 33.2354 9.62031 30.7808 9.80495 27.946C9.83753 27.5007 10.2177 27.1531 10.6738 27.1857C11.1192 27.2183 11.4667 27.5984 11.4341 28.0546C11.3147 29.9988 12.7918 31.6714 14.7251 31.7909C16.6584 31.9103 18.3419 30.4332 18.4613 28.4999C18.4831 28.2284 18.6351 27.9786 18.8741 27.8374C19.113 27.707 19.4063 27.6962 19.6561 27.8265C19.6887 27.8482 23.4358 29.7924 27.8237 28.7497C28.2582 28.6411 28.7035 28.9126 28.8012 29.358C28.9099 29.7924 28.6383 30.2377 28.193 30.3355C24.5871 31.1935 21.4265 30.3029 19.8842 29.7055C19.2542 31.8778 17.2558 33.4309 14.9423 33.4309Z" fill="#434343"/>
<path d="M20.7746 23.1131C20.7529 23.1131 20.7312 23.1131 20.7095 23.1131C19.5147 23.0153 18.396 22.5048 17.538 21.6685C17.2122 21.3536 17.2122 20.8431 17.5271 20.5172C17.8421 20.1914 18.3526 20.1914 18.6784 20.5064C19.2649 21.0712 20.0361 21.4296 20.8507 21.4947C21.296 21.5273 21.6327 21.9292 21.6001 22.3745C21.5458 22.7981 21.1874 23.1131 20.7746 23.1131Z" fill="#434343"/>
<path d="M22.3278 38.1233C22.1866 38.1233 22.0454 38.1124 21.8933 38.1016C20.6986 38.0038 19.5799 37.4933 18.7218 36.657C18.396 36.3421 18.396 35.8316 18.711 35.5057C19.0259 35.1799 19.5364 35.1799 19.8623 35.4949C20.4488 36.0597 21.2199 36.4181 22.0345 36.4833C22.9686 36.5593 23.8809 36.266 24.5978 35.6578C25.3146 35.0496 25.749 34.1915 25.8359 33.2575C25.8685 32.8122 26.2704 32.4755 26.7157 32.508C27.161 32.5406 27.4977 32.9425 27.4651 33.3878C27.3565 34.7563 26.7157 36.0054 25.6622 36.896C24.7064 37.6997 23.5442 38.1233 22.3278 38.1233Z" fill="#434343"/>
<path d="M13.7585 25.3396C13.6281 25.3396 13.5086 25.3396 13.3783 25.3287C12.933 25.2961 12.5963 24.9051 12.6289 24.4598C12.6615 24.0145 13.0525 23.6778 13.4978 23.7104C14.3124 23.7756 15.127 23.5475 15.7895 23.0696C17.3752 21.9509 17.7554 19.7461 16.6258 18.1603C16.3652 17.791 16.452 17.2806 16.8213 17.0199C17.1906 16.7592 17.7011 16.8461 17.9618 17.2154C19.6018 19.5397 19.0479 22.7546 16.7344 24.3947C15.8655 25.0138 14.8229 25.3396 13.7585 25.3396Z" fill="#434343"/>
<path d="M47.2542 30.2483C46.9501 30.2483 46.6568 30.0745 46.5156 29.7813C46.331 29.3686 46.5048 28.8907 46.9066 28.6952C49.0029 27.7177 49.6219 26.4903 49.1006 24.2855C49.0029 23.8511 49.2744 23.4058 49.7088 23.308C50.1433 23.2102 50.5886 23.4818 50.6863 23.9162C51.3706 26.8379 50.3497 28.8798 47.5909 30.1723C47.4823 30.2157 47.3737 30.2483 47.2542 30.2483Z" fill="#434343"/>
<path d="M43.7026 40.0781C43.2248 40.0781 42.7469 40.0346 42.269 39.9478C40.2488 39.5676 38.5001 38.4272 37.3488 36.7328C37.099 36.3635 37.1859 35.8531 37.5661 35.6033C37.9353 35.3535 38.4458 35.4403 38.6956 35.8205C39.608 37.1564 40.9873 38.0579 42.5731 38.3512C44.1588 38.6553 45.7771 38.3077 47.1131 37.3954C49.8718 35.5055 50.5778 31.7367 48.6988 28.9779C48.449 28.6086 48.5359 28.0981 48.916 27.8483C49.2853 27.5985 49.7958 27.6854 50.0456 28.0656C52.4351 31.5629 51.5336 36.3527 48.0363 38.753C46.7329 39.6219 45.2341 40.0781 43.7026 40.0781Z" fill="#434343"/>
<path d="M20.6335 44.8457C16.0066 44.8457 12.2378 41.4787 12.2378 37.3406C12.2378 35.3204 13.1284 33.4197 14.7359 31.9968C15.0726 31.7036 15.5831 31.7362 15.8872 32.0729C16.1804 32.4096 16.1478 32.9201 15.8111 33.2242C14.5621 34.332 13.867 35.7983 13.867 37.3406C13.867 40.5772 16.8973 43.2165 20.6335 43.2165C22.5668 43.2165 24.4132 42.4997 25.6949 41.2398C26.0207 40.9248 26.5312 40.9248 26.8461 41.2506C27.1611 41.5765 27.1503 42.0869 26.8353 42.4019C25.2495 43.9551 22.9904 44.8457 20.6335 44.8457Z" fill="#434343"/>
<path d="M31.7118 43.3576C28.4426 43.3576 26.2378 42.4452 26.1183 42.3909C25.7056 42.2172 25.5101 41.7393 25.6838 41.3265C25.8576 40.9138 26.3355 40.7183 26.7482 40.8921C26.7917 40.9138 30.7017 42.4996 35.687 41.2288C36.1215 41.1202 36.5668 41.3808 36.6754 41.8153C36.784 42.2497 36.5233 42.6951 36.0889 42.8037C34.514 43.2164 33.026 43.3576 31.7118 43.3576Z" fill="#434343"/>
<path d="M40.1076 45.3563C39.684 45.3563 39.3365 45.0305 39.293 44.6069C39.2604 44.1616 39.5863 43.7706 40.0424 43.7272C45.5382 43.2819 46.7112 38.1119 46.7655 37.8947C46.8633 37.4602 47.2977 37.1778 47.7322 37.2647C48.1666 37.3625 48.449 37.7861 48.3621 38.2314C48.3513 38.2965 48.0037 39.904 46.8307 41.5766C45.7337 43.1407 43.7027 45.0631 40.1836 45.3563C40.1619 45.3563 40.1293 45.3563 40.1076 45.3563Z" fill="#434343"/>
<path d="M43.1598 53.991C42.7796 53.991 42.4321 53.7195 42.3561 53.3285C41.8673 50.7001 38.8479 48.2998 34.688 47.2028C30.0829 45.9972 29.5832 42.7931 29.5615 42.6628L31.1798 42.4347V42.4238C31.1907 42.5216 31.6034 44.7047 35.1116 45.6279C39.8906 46.8769 43.3661 49.7769 43.9744 53.0244C44.0613 53.4697 43.768 53.8933 43.3227 53.9802C43.2575 53.9802 43.2141 53.991 43.1598 53.991Z" fill="#434343"/>
<path d="M46.0161 53.4263H46.0052C45.5599 53.4154 45.2015 53.0462 45.2015 52.6009C45.2884 47.9522 41.7259 45.2261 41.6933 45.2044C41.3349 44.9328 41.2589 44.4223 41.5304 44.0639C41.8019 43.7055 42.3124 43.6295 42.6708 43.901C42.8446 44.0313 46.9393 47.1702 46.8307 52.6334C46.8198 53.0679 46.4614 53.4263 46.0161 53.4263Z" fill="#434343"/>
<path d="M5.61244 18.6812C5.60158 18.6812 5.59072 18.6812 5.59072 18.6812C5.14541 18.6703 4.78699 18.2902 4.79785 17.8449C4.79785 17.7145 4.90646 14.6625 7.27421 12.6098C8.93598 11.1652 11.2494 10.6113 14.1494 10.9371C14.5947 10.9914 14.9205 11.3933 14.8662 11.8386C14.8119 12.2839 14.41 12.6098 13.9647 12.5554C11.5427 12.2731 9.65282 12.7075 8.34947 13.8262C6.52478 15.3902 6.42703 17.8557 6.42703 17.8883C6.40531 18.3336 6.04689 18.6812 5.61244 18.6812Z" fill="#434343"/>
<path d="M13.0526 14.0109C12.944 14.0109 12.8245 13.9892 12.7159 13.9349C12.3031 13.7503 12.1294 13.2615 12.314 12.8596C12.3357 12.8053 12.9874 11.4151 14.6166 10.1335C16.0937 8.98218 18.6895 7.67884 22.7299 8.06984C23.1752 8.11329 23.5011 8.51515 23.4576 8.96046C23.4142 9.40577 23.0123 9.73161 22.567 9.68816C15.9308 9.03649 13.8237 13.4787 13.802 13.533C13.6608 13.8372 13.3567 14.0109 13.0526 14.0109Z" fill="#434343"/>
<path d="M9.18571 32.5622C8.43628 32.5622 7.80633 32.3993 7.31758 32.2038C6.29662 31.791 5.69925 31.172 5.63409 31.0959C5.32997 30.7701 5.35169 30.2487 5.67753 29.9446C6.00337 29.6405 6.52471 29.6622 6.82882 29.9881C6.90485 30.0641 8.50145 31.6933 10.9452 30.4986C11.3471 30.3031 11.8359 30.466 12.0314 30.8678C12.2269 31.2697 12.0639 31.7585 11.6621 31.954C10.7497 32.3993 9.91341 32.5622 9.18571 32.5622Z" fill="#434343"/>
<path d="M28.5512 38.8828C28.182 38.8828 27.8453 38.6221 27.7584 38.2419C27.4434 36.8408 26.1075 36.4498 26.0531 36.4281C25.6187 36.3086 25.358 35.8633 25.4775 35.4289C25.597 34.9944 26.0423 34.7338 26.4767 34.8532C26.5745 34.875 28.8228 35.494 29.355 37.8835C29.4527 38.318 29.1812 38.7633 28.7359 38.861C28.6707 38.8719 28.6164 38.8828 28.5512 38.8828Z" fill="#434343"/>
<path d="M36.6212 28.9344C29.6483 28.9344 23.9788 23.2648 23.9788 16.2919C23.9788 9.31898 29.6483 3.64941 36.6212 3.64941C43.5941 3.64941 49.2637 9.31898 49.2637 16.2919C49.2637 23.2648 43.5941 28.9344 36.6212 28.9344ZM36.6212 5.2786C30.5498 5.2786 25.6079 10.2205 25.6079 16.2919C25.6079 22.3633 30.5498 27.3052 36.6212 27.3052C42.6927 27.3052 47.6345 22.3633 47.6345 16.2919C47.6345 10.2205 42.6927 5.2786 36.6212 5.2786Z" fill="#434343"/>
<path d="M36.6212 25.0569C31.788 25.0569 27.8562 21.1251 27.8562 16.2919C27.8562 11.4586 31.788 7.52686 36.6212 7.52686C41.4545 7.52686 45.3862 11.4586 45.3862 16.2919C45.3862 21.1251 41.4545 25.0569 36.6212 25.0569ZM36.6212 9.15604C32.6895 9.15604 29.4854 12.3601 29.4854 16.2919C29.4854 20.2236 32.6895 23.4277 36.6212 23.4277C40.553 23.4277 43.757 20.2236 43.757 16.2919C43.757 12.3601 40.553 9.15604 36.6212 9.15604Z" fill="#434343"/>
<path d="M36.6212 11.6758C36.1759 11.6758 35.8066 11.3065 35.8066 10.8612V0.814592C35.8066 0.369282 36.1759 0 36.6212 0C37.0665 0 37.4358 0.369282 37.4358 0.814592V10.8612C37.4358 11.3065 37.0665 11.6758 36.6212 11.6758Z" fill="#434343"/>
<path d="M36.6212 32.7579C36.1759 32.7579 35.8066 32.3886 35.8066 31.9433V21.8966C35.8066 21.4513 36.1759 21.082 36.6212 21.082C37.0665 21.082 37.4358 21.4513 37.4358 21.8966V31.9433C37.4358 32.3886 37.0665 32.7579 36.6212 32.7579Z" fill="#434343"/>
<path d="M31.1037 17.1936H21.057C20.6117 17.1936 20.2424 16.8244 20.2424 16.379C20.2424 15.9337 20.6117 15.5645 21.057 15.5645H31.1037C31.549 15.5645 31.9183 15.9337 31.9183 16.379C31.9183 16.8244 31.549 17.1936 31.1037 17.1936Z" fill="#434343"/>
<path d="M52.1855 17.1936H42.1388C41.6935 17.1936 41.3242 16.8244 41.3242 16.379C41.3242 15.9337 41.6935 15.5645 42.1388 15.5645H52.1855C52.6308 15.5645 53 15.9337 53 16.379C53 16.8244 52.6308 17.1936 52.1855 17.1936Z" fill="#434343"/>
</svg>
