<svg width="57" height="54" viewBox="0 0 57 54" fill="none" xmlns="http://www.w3.org/2000/svg">
<path d="M55.7877 50.6881C55.66 50.6881 55.5323 50.6649 55.4161 50.6068L50.6084 48.3191C49.4588 47.7849 48.1465 47.6804 46.9156 48.0288C46.904 48.0288 46.8807 48.0404 46.8691 48.0404L42.6885 48.9694C41.9569 49.1669 41.2137 49.2133 40.4589 49.1088L33.468 48.6443C33.4448 48.6443 33.4216 48.6443 33.3983 48.6327C32.6783 48.5282 32.0396 48.1449 31.61 47.5527C31.1803 46.9604 31.0177 46.2405 31.1339 45.5205C31.3429 44.2779 32.4229 43.3373 33.677 43.2908L36.7777 43.1747C37.5325 43.1515 38.2409 42.8147 38.7402 42.2573C39.2512 41.6883 39.495 40.9683 39.4486 40.2018C39.3789 39.1915 38.7634 38.2857 37.8344 37.8677L25.7571 32.131C23.3649 31.0277 22.1572 28.2871 22.9352 25.7672C23.0049 25.5233 23.1907 25.3259 23.4114 25.233C23.6436 25.1285 23.8991 25.1401 24.1314 25.2446L56.4961 40.4108C56.9374 40.6199 57.1232 41.1308 56.9142 41.5721C56.7051 42.0134 56.1942 42.1992 55.7529 41.9902L24.4565 27.2884C24.4449 28.6471 25.223 29.9478 26.512 30.54L38.5892 36.2767C40.0873 36.9619 41.086 38.4251 41.2021 40.0741C41.2834 41.305 40.877 42.4895 40.0524 43.4069C39.2279 44.3243 38.0899 44.8585 36.8589 44.905L33.7583 45.0211C33.3171 45.0327 32.9338 45.3695 32.8642 45.8108C32.8177 46.0663 32.8758 46.3217 33.0267 46.5308C33.1777 46.7282 33.3867 46.8675 33.6306 46.9024L40.6215 47.3669C40.6447 47.3669 40.6679 47.3669 40.6911 47.3785C41.2137 47.4598 41.7363 47.4249 42.2473 47.274C42.2589 47.274 42.2821 47.2624 42.2937 47.2624L46.4743 46.3334C48.1001 45.8805 49.8304 46.0314 51.3633 46.7282L56.1826 49.0275C56.6122 49.2365 56.798 49.7591 56.589 50.1888C56.4148 50.5023 56.1129 50.6881 55.7877 50.6881Z" fill="#434343"/>
<path d="M31.2615 42.8378C30.9596 42.8378 30.6576 42.6752 30.4951 42.3849L29.6938 40.9449C29.6822 40.9333 29.6822 40.9217 29.6706 40.9101C28.8228 39.1914 29.1596 37.554 30.588 36.416L33.2125 34.3257C33.5841 34.0237 34.1415 34.0934 34.4318 34.465C34.7337 34.8366 34.664 35.394 34.2924 35.6844L31.668 37.7747C30.8783 38.4017 30.7389 39.1217 31.2267 40.1088L32.0163 41.5372C32.2486 41.9552 32.0976 42.4894 31.6796 42.7217C31.5518 42.803 31.4009 42.8378 31.2615 42.8378Z" fill="#434343"/>
<path d="M35.0356 40.2132C34.9079 40.2132 34.7917 40.19 34.6756 40.1319L33.0266 39.3655C32.5853 39.168 32.3995 38.6455 32.5969 38.2042C32.7943 37.7629 33.3169 37.5771 33.7582 37.7745L34.8266 38.2739L36.8124 36.1139C37.1375 35.7655 37.6833 35.7423 38.0433 36.0674C38.3917 36.3926 38.4149 36.9384 38.0898 37.2984L35.6743 39.9229C35.5117 40.1087 35.2795 40.2132 35.0356 40.2132Z" fill="#434343"/>
<path d="M35.7092 42.048C35.3492 42.048 35.024 41.8274 34.8963 41.479L34.2227 39.6442C34.0602 39.1913 34.2924 38.692 34.7453 38.5294C35.1982 38.3668 35.6976 38.5991 35.8601 39.052L36.5337 40.8868C36.6963 41.3397 36.464 41.839 36.0111 42.0016C35.9182 42.0364 35.8137 42.048 35.7092 42.048Z" fill="#434343"/>
<path d="M0.870957 53.7656C0.685153 53.7656 0.510961 53.7076 0.359995 53.6031C0.139353 53.4405 0 53.1734 0 52.8947V1.36889C0 1.11341 0.116128 0.86954 0.301932 0.706961C0.499348 0.544383 0.754829 0.463094 0.998697 0.509545L43.9775 7.05914C44.4072 7.12882 44.7207 7.48881 44.7207 7.91848V31.713C44.7207 32.1891 44.3259 32.584 43.8498 32.584C43.3736 32.584 42.9788 32.1891 42.9788 31.713V8.6617L1.74191 2.3792V51.6986L27.5106 43.4651C27.9635 43.3142 28.4629 43.5696 28.6022 44.0341C28.7532 44.487 28.4977 44.9864 28.0332 45.1257L1.12644 53.7192C1.04515 53.754 0.963859 53.7656 0.870957 53.7656Z" fill="#434343"/>
<path d="M11.8219 33.3738C8.87229 33.3738 6.58457 32.1545 5.29556 29.8435C4.50589 28.4268 4.11106 26.6384 4.19234 24.8036C4.26202 23.143 4.71492 21.6333 5.41168 20.7624C5.71362 20.3908 6.25942 20.3327 6.63102 20.623C7.00263 20.9249 7.0607 21.4707 6.77038 21.8424C5.82974 23.0036 5.44652 26.5107 6.82844 28.9726C8.00133 31.0513 10.1149 31.9106 13.1226 31.5274C13.5987 31.4693 14.04 31.8061 14.098 32.2822C14.1561 32.7583 13.8193 33.1996 13.3432 33.2577C12.809 33.339 12.3097 33.3738 11.8219 33.3738Z" fill="#434343"/>
<path d="M6.67757 22.8755C6.44531 22.8755 6.21306 22.7826 6.03886 22.5968C4.58727 21.0175 4.57566 18.4395 6.01564 16.8485C6.73563 16.0472 7.7111 15.606 8.74464 15.606H8.75625C9.78978 15.606 10.7536 16.0356 11.4736 16.8253C11.7988 17.1737 11.7756 17.7311 11.4272 18.0562C11.0788 18.3814 10.5214 18.3582 10.1962 18.0098C9.8014 17.5917 9.29044 17.3479 8.75625 17.3479C8.75625 17.3479 8.75625 17.3479 8.74464 17.3479C8.19884 17.3479 7.68788 17.5917 7.29304 18.0214C6.44531 18.962 6.44531 20.4833 7.30465 21.4239C7.62981 21.7723 7.60659 22.3297 7.2582 22.6549C7.09563 22.7943 6.8866 22.8755 6.67757 22.8755Z" fill="#434343"/>
<path d="M14.6904 28.3223C14.6091 28.3223 14.5278 28.3223 14.4349 28.3107C12.333 28.1597 10.7305 26.2088 10.8582 23.9559C10.8814 23.4798 11.2995 23.1082 11.7756 23.1314C12.2517 23.1546 12.6233 23.5727 12.6001 24.0488C12.5188 25.3494 13.4014 26.4759 14.5511 26.5572C15.062 26.592 15.5614 26.4178 15.9562 26.0694C16.4323 25.6514 16.7227 25.0359 16.7575 24.3624C16.7807 23.8862 17.1988 23.5146 17.6749 23.5378C18.151 23.5611 18.5226 23.9791 18.4994 24.4553C18.4297 25.5933 17.9304 26.6501 17.1059 27.3701C16.4207 27.9971 15.573 28.3223 14.6904 28.3223Z" fill="#434343"/>
<path d="M27.685 14.4799C27.6154 14.4799 27.5573 14.4683 27.4876 14.4567C27.0231 14.3522 26.7212 13.8761 26.8373 13.4116C27.1276 12.1342 26.4425 10.8335 25.3044 10.52C24.8167 10.3806 24.2941 10.4619 23.8412 10.729C23.3186 11.0426 22.9354 11.5884 22.7961 12.2271C22.6916 12.6916 22.2154 12.9935 21.7509 12.8774C21.2864 12.7729 20.9845 12.2967 21.1006 11.8322C21.3561 10.729 22.0296 9.78838 22.9586 9.23097C23.818 8.72 24.8167 8.58065 25.7805 8.84775C27.8012 9.40516 29.0437 11.6348 28.5444 13.8064C28.4399 14.2128 28.0799 14.4799 27.685 14.4799Z" fill="#434343"/>
<path d="M20.1717 19.3569C20.0672 19.3569 19.9511 19.3569 19.8465 19.3453C18.9524 19.264 18.1046 18.8459 17.4659 18.1724C17.1408 17.824 17.1524 17.2666 17.5008 16.9414C17.8491 16.6163 18.4066 16.6279 18.7317 16.9762C19.0801 17.3479 19.5214 17.5685 19.9975 17.6149C20.5085 17.6614 21.0078 17.4988 21.4143 17.1504C21.8904 16.744 22.1923 16.1285 22.2504 15.455C22.2852 14.9789 22.7033 14.6189 23.1794 14.6537C23.6555 14.6885 24.0155 15.1066 23.9807 15.5827C23.8994 16.7208 23.3652 17.7659 22.5407 18.4743C21.8556 19.0549 21.031 19.3569 20.1717 19.3569Z" fill="#434343"/>
<path d="M15.1435 21.0064C15.0506 21.0064 14.9461 21.0064 14.8532 20.9948C14.377 20.9599 14.0171 20.5303 14.0519 20.0541C14.0867 19.578 14.5164 19.218 14.9925 19.2529C15.4686 19.2877 15.9215 19.1483 16.3164 18.8464C17.3035 18.0916 17.5241 16.5819 16.8273 15.5019C16.5602 15.0955 16.6764 14.5613 17.0828 14.2942C17.4893 14.0271 18.0235 14.1432 18.2905 14.5497C19.475 16.3729 19.0686 18.9161 17.3848 20.2167C16.7228 20.7393 15.9448 21.0064 15.1435 21.0064Z" fill="#434343"/>
<path d="M36.7198 25.9535C36.4062 25.9535 36.0927 25.7793 35.9417 25.4774C35.7211 25.0477 35.8953 24.5251 36.325 24.3045C37.4049 23.7587 37.8695 22.3303 37.3585 21.1226C37.103 20.5303 36.6617 20.1007 36.1159 19.8916C35.6282 19.7174 35.094 19.7523 34.6295 19.9845C34.1998 20.2052 33.6772 20.031 33.4566 19.6013C33.236 19.1716 33.4102 18.6491 33.8398 18.4284C34.7456 17.9639 35.7675 17.9059 36.7198 18.2542C37.7185 18.6142 38.5314 19.4155 38.9727 20.4374C39.832 22.4697 39.0075 24.8967 37.1262 25.849C36.9869 25.9303 36.8591 25.9535 36.7198 25.9535Z" fill="#434343"/>
<path d="M38.7638 29.7042C38.6825 29.7042 38.6012 29.6926 38.5199 29.6694C38.0554 29.5416 37.7883 29.0539 37.9276 28.5894C38.2992 27.312 38.1134 25.9533 37.4283 24.8617C37.1728 24.4553 37.3006 23.9211 37.707 23.6656C38.1134 23.4101 38.6476 23.5379 38.9031 23.9443C39.8554 25.4656 40.1108 27.3352 39.5999 29.0771C39.4837 29.4604 39.1354 29.7042 38.7638 29.7042Z" fill="#434343"/>
<path d="M35.4539 19.5547C35.0243 19.5547 34.641 19.2295 34.5946 18.7883C34.2927 16.3728 32.7482 14.7586 31.494 13.818C29.8566 12.5987 28.254 12.2038 27.9056 12.2503C27.4644 12.3896 26.9766 12.1574 26.814 11.7161C26.6515 11.2632 26.8837 10.7638 27.3366 10.6013C28.3469 10.2413 30.2979 10.9961 31.6798 11.8554C33.2127 12.8077 35.8604 14.9328 36.3133 18.5792C36.3713 19.0554 36.0346 19.4966 35.5585 19.5547C35.5236 19.5547 35.4888 19.5547 35.4539 19.5547Z" fill="#434343"/>
<path d="M18.5689 36.8343C15.236 36.8343 12.5303 34.2098 12.5303 30.9815C12.5303 29.4137 13.1574 27.9389 14.307 26.8241C14.6554 26.4873 15.2012 26.4989 15.538 26.8473C15.8747 27.1957 15.8631 27.7415 15.5148 28.0783C14.7135 28.8563 14.2722 29.8783 14.2722 30.9815C14.2722 33.246 16.1999 35.0924 18.5689 35.0924C19.7882 35.0924 20.9611 34.593 21.774 33.7221C22.0992 33.3737 22.6566 33.3505 23.005 33.6756C23.3534 34.0008 23.3766 34.5582 23.0514 34.9066C21.9018 36.1375 20.276 36.8343 18.5689 36.8343Z" fill="#434343"/>
<path d="M8.32629 17.3363C8.31468 17.3363 8.31468 17.3363 8.30307 17.3363C7.82694 17.3247 7.44372 16.9298 7.45534 16.4421C7.45534 16.3376 7.53663 13.8176 9.39467 12.215C10.5908 11.1815 12.205 10.7867 14.1907 11.0422C14.6669 11.1002 15.0036 11.5415 14.9456 12.0176C14.8875 12.4938 14.4462 12.8305 13.9701 12.7725C12.4953 12.5867 11.3456 12.8421 10.5327 13.5273C9.26693 14.6073 9.18564 16.4653 9.18564 16.4885C9.17402 16.9647 8.7908 17.3363 8.32629 17.3363Z" fill="#434343"/>
<path d="M13.4014 13.853C13.2852 13.853 13.1807 13.8298 13.0646 13.7833C12.6233 13.5975 12.4143 13.0866 12.6001 12.6453C12.6233 12.5872 13.262 11.1008 14.8994 10.0092C17.5936 8.22083 20.8335 8.82469 23.098 9.62597C23.5509 9.78855 23.7832 10.2879 23.6206 10.7408C23.458 11.1937 22.9587 11.426 22.5058 11.2634C19.7768 10.2763 17.5355 10.346 15.8633 11.4492C14.6672 12.2388 14.2027 13.2956 14.2027 13.2956C14.0633 13.6556 13.7381 13.853 13.4014 13.853Z" fill="#434343"/>
<path d="M29.4734 25.3494C29.2527 25.3494 29.0321 25.2681 28.8579 25.0939C28.7998 25.0358 27.3366 23.5726 27.8011 21.3778C27.894 20.9017 28.3586 20.5998 28.8347 20.7043C29.3108 20.7972 29.6127 21.2617 29.5082 21.7378C29.2527 22.9804 30.054 23.8165 30.0889 23.8629C30.4372 24.1997 30.4372 24.7455 30.1005 25.0939C29.9263 25.2565 29.7056 25.3494 29.4734 25.3494Z" fill="#434343"/>
<path d="M10.7651 27.6836C9.4993 27.6836 8.52383 26.9985 8.08254 26.4759C7.769 26.1043 7.81545 25.5585 8.18706 25.245C8.54705 24.9314 9.09285 24.9779 9.4064 25.3379C9.51091 25.454 10.4051 26.383 11.787 25.6514C12.2167 25.4191 12.7393 25.5817 12.9715 26.0114C13.2038 26.4411 13.0412 26.9636 12.6115 27.1959C11.9496 27.5443 11.3341 27.6836 10.7651 27.6836Z" fill="#434343"/>
<path d="M30.9133 22.876C30.9017 22.876 30.8785 22.876 30.8669 22.876C29.4501 22.8063 28.3353 22.307 27.5805 21.4012C26.3495 19.938 26.5585 17.9522 26.5702 17.8709C26.6282 17.3948 27.0579 17.0464 27.534 17.1045C28.0101 17.1625 28.3469 17.5922 28.3005 18.0683C28.3005 18.1032 28.1727 19.4154 28.9159 20.2864C29.3572 20.7973 30.0424 21.0876 30.9598 21.1341C31.4359 21.1573 31.8075 21.5638 31.7843 22.0515C31.7495 22.516 31.3662 22.876 30.9133 22.876Z" fill="#434343"/>
<path d="M24.9093 37.833C21.6926 37.833 20.4732 35.8472 20.4036 35.7427L21.9016 34.8485L21.89 34.8369C21.9364 34.9182 23.1326 36.7066 26.6977 35.8588C27.1622 35.7427 27.6383 36.033 27.7428 36.5092C27.859 36.9737 27.5686 37.4498 27.0925 37.5543C26.2912 37.7517 25.5596 37.833 24.9093 37.833Z" fill="#434343"/>
</svg>
