<svg width="46" height="55" viewBox="0 0 46 55" fill="none" xmlns="http://www.w3.org/2000/svg">
<path d="M16.1774 53.019C16.7319 51.3186 16.6949 49.1747 16.3253 47.2525C16.1035 46.1436 15.2533 45.2564 14.1444 44.9607C13.1094 44.702 12.0743 44.5911 11.0024 44.5911C9.89343 44.5911 8.82146 44.7759 7.71252 44.665C5.19893 44.4432 3.68338 42.7429 4.71839 40.1184C5.27286 38.8616 4.68142 38.0483 4.27481 37.346C3.09194 35.239 4.82928 34.7585 4.86624 33.2799C4.86624 32.6146 4.34874 32.097 3.68338 32.0231C2.7223 31.9122 1.90908 31.5056 1.39157 30.9881C0.947997 30.5445 0.874068 29.8422 1.20675 29.2877C5.60554 22.1905 4.71839 24.0388 6.23394 14.0214C7.23198 7.47863 14.514 -0.28394 29.0781 2.11876C32.1461 2.63626 35.1772 3.52341 37.7647 5.26075C43.716 9.32686 46.895 17.8657 43.79 27.8092C42.0526 33.3908 38.1344 39.3791 39.3542 45.6261L41.0546 52.5754" stroke="#434343" stroke-width="2" stroke-miterlimit="10" stroke-linecap="round" stroke-linejoin="round"/>
<path d="M37.5428 22.7446C37.9124 24.0384 37.5428 25.443 36.6187 26.4041C35.1401 28.0306 32.4417 28.659 30.5934 28.2154C27.2296 27.4022 27.8211 24.2971 26.0837 22.7446" stroke="#434343" stroke-width="2" stroke-miterlimit="10" stroke-linecap="round" stroke-linejoin="round"/>
<path d="M23.3854 23.6685C22.9049 24.8513 23.0897 26.2929 23.829 27.328C24.6052 28.363 25.899 28.9544 27.1927 28.8435" stroke="#434343" stroke-width="2" stroke-miterlimit="10" stroke-linecap="round" stroke-linejoin="round"/>
<path d="M17.0645 20.3788C17.1015 21.5247 17.6559 22.5967 18.5801 23.2621C19.5042 23.9274 20.687 24.0014 21.8699 23.8535C24.5314 23.4469 31.4437 20.0831 37.1733 22.5967C38.2083 23.0403 39.5759 22.5597 40.2783 21.6356C43.2724 17.7174 38.5779 4.66887 24.1247 4.92762C13.368 5.11245 7.89729 13.1707 10.4478 18.6415C11.9634 21.8574 16.0295 22.1531 17.9886 19.3438C18.9867 17.9022 18.8758 16.7933 22.3874 16.2388C22.868 16.1649 23.5703 16.054 24.1987 15.9061C25.4185 15.6843 26.4535 14.8711 26.9341 13.7252C26.971 13.6513 27.008 13.5404 27.008 13.4664C27.1928 12.8011 27.3407 12.0248 27.8582 11.5813C28.4496 11.0637 29.2998 11.1007 29.9652 10.7311C30.6675 10.3614 31.148 9.58516 31.3328 8.80891C31.5177 8.03265 31.4807 7.18246 31.4068 6.40621" stroke="#434343" stroke-width="2" stroke-miterlimit="10" stroke-linecap="round" stroke-linejoin="round"/>
<path d="M31.1851 53.0188C28.0062 45.9586 26.6385 36.4957 29.263 27.6611" stroke="#434343" stroke-width="2" stroke-miterlimit="10" stroke-linecap="round" stroke-linejoin="round"/>
<path d="M35.1773 53.0189C31.9983 45.9586 30.4458 37.1241 33.0703 28.2896" stroke="#434343" stroke-width="2" stroke-miterlimit="10" stroke-linecap="round" stroke-linejoin="round"/>
<path d="M29.226 19.6028C29.1151 19.6767 29.0042 19.7506 28.8933 19.8245C30.0392 19.6397 31.2221 19.4919 32.4419 19.4919C34.2901 19.4919 36.2123 19.7876 38.0605 20.6008C38.1714 20.6008 38.4302 20.4899 38.5411 20.342C39.0955 19.6028 39.2434 17.3109 37.8387 14.5386C37.4691 13.8363 36.8777 12.8382 35.9535 11.8032C35.6578 13.5406 34.9555 15.2409 33.7357 16.5347C32.4789 17.8285 30.7415 18.5677 29.226 19.6028Z" fill="#434343"/>
</svg>
