<svg width="41" height="55" viewBox="0 0 41 55" fill="none" xmlns="http://www.w3.org/2000/svg">
<g clip-path="url(#clip0_212_2)">
<path d="M26.7314 3.74023H38.3857C39.3822 3.74023 40.2054 4.56662 40.2054 5.56698C40.2054 5.56698 40.2054 48.3998 40.2054 51.1921C40.2054 53.9844 36.7096 53.519 36.7096 53.519" stroke="#434343" stroke-width="2" stroke-miterlimit="10" stroke-linecap="round" stroke-linejoin="round"/>
<path d="M14.1238 3.74023H2.46953C1.47307 3.74023 0.649902 4.56662 0.649902 5.56698V44.7115V51.714C0.649902 52.7144 1.47307 53.5407 2.46953 53.5407H12.8241H20.4492H28.0743H36.3926" stroke="#434343" stroke-width="2" stroke-miterlimit="10" stroke-linecap="round" stroke-linejoin="round"/>
<path d="M14.124 1.52222V8.0463C14.124 8.65522 14.6006 9.17715 15.2505 9.17715H15.6837C16.2469 9.17715 16.7235 8.74221 16.7668 8.22028V8.0898C17.0268 6.13257 18.6731 4.69728 20.6227 4.69728C22.5723 4.69728 24.2186 6.13257 24.4786 8.0898V8.22028C24.5652 8.7857 25.0418 9.17715 25.5617 9.17715C26.1682 9.17715 26.6881 8.69871 26.6881 8.0463V1.52222C26.6881 1.04379 26.2982 0.652344 25.8216 0.652344H14.9905C14.5139 0.652344 14.124 1.04379 14.124 1.52222Z" stroke="#434343" stroke-width="2" stroke-miterlimit="10" stroke-linecap="round" stroke-linejoin="round"/>
<path d="M10.0081 43.7983H30.8472" stroke="#434343" stroke-width="2" stroke-miterlimit="10" stroke-linecap="round" stroke-linejoin="round"/>
<path d="M10.0081 40.2754H30.8472" stroke="#434343" stroke-width="2" stroke-miterlimit="10" stroke-linecap="round" stroke-linejoin="round"/>
<path d="M10.0081 25.6611H30.8472" stroke="#434343" stroke-width="2" stroke-miterlimit="10" stroke-linecap="round" stroke-linejoin="round"/>
<path d="M10.0081 22.1816H30.8472" stroke="#434343" stroke-width="2" stroke-miterlimit="10" stroke-linecap="round" stroke-linejoin="round"/>
<path d="M23.698 30.4023L20.2753 34.0558L18.5857 32.4031" stroke="#434343" stroke-width="2" stroke-miterlimit="10" stroke-linecap="round" stroke-linejoin="round"/>
<path d="M19.1062 18.0064L23.1787 13.8745" stroke="#434343" stroke-width="2" stroke-miterlimit="10" stroke-linecap="round" stroke-linejoin="round"/>
<path d="M22.9109 18.4317L18.8384 14.2998" stroke="#434343" stroke-width="2" stroke-miterlimit="10" stroke-linecap="round" stroke-linejoin="round"/>
</g>
<defs>
<clipPath id="clip0_212_2">
<rect width="41" height="55" fill="white"/>
</clipPath>
</defs>
</svg>
