<svg width="60" height="53" viewBox="0 0 60 53" fill="none" xmlns="http://www.w3.org/2000/svg">
<path d="M7.35143 32.0892C6.67479 34.3306 7.39372 36.7834 8.95846 38.5173C11.4959 41.3507 16.2747 42.4503 19.531 41.6468C25.4517 40.2512 24.3944 34.7957 27.3971 32.0469" stroke="#434343" stroke-width="2" stroke-miterlimit="10" stroke-linecap="round"/>
<path d="M32.1756 33.7388C33.0214 35.811 32.7254 38.3484 31.3721 40.1669C30.0611 41.9854 27.7351 43.0426 25.4937 42.8312C25.4937 42.8312 23.1678 44.6497 22.9563 51.5853" stroke="#434343" stroke-width="2" stroke-miterlimit="10" stroke-linecap="round"/>
<path d="M18.6852 41.8579C18.6852 41.8579 16.613 46.679 17.924 51.5847" stroke="#434343" stroke-width="2" stroke-miterlimit="10" stroke-linecap="round"/>
<path d="M37.3773 21.6853C38.2654 19.6977 38.3923 17.6678 37.8848 15.5532C36.6161 10.5207 32.7254 9.54802 30.8646 7.72953C29.2576 6.1225 28.581 3.16218 29.2576 1.00537" stroke="#434343" stroke-width="2" stroke-miterlimit="10" stroke-linecap="round"/>
<path d="M15.0481 30.3132C13.0604 27.4374 14.6252 24.9423 13.4833 22.9123C12.8067 21.7282 11.4111 21.1784 10.6076 20.0789C7.64728 16.0613 14.3292 10.7327 11.4534 6.67285" stroke="#434343" stroke-width="2" stroke-miterlimit="10" stroke-linecap="round"/>
<path d="M28.5811 19.4443C27.3969 18.7677 26.4243 17.7104 25.8745 16.3994C25.7899 16.2303 25.7476 16.1034 25.7053 15.9765C25.367 14.7924 25.1133 13.4814 24.1829 12.6779C23.1679 11.7898 21.6455 11.7898 20.4613 11.1977C19.1926 10.5211 18.4314 9.21006 18.0931 7.81448C17.7547 6.4189 17.8816 4.98103 18.0085 3.58545" stroke="#434343" stroke-width="2" stroke-miterlimit="10" stroke-linecap="round"/>
<path d="M7.94335 31.92C6.12487 32.6813 3.75661 31.8778 2.4879 30.2284C-2.71381 23.3774 5.49051 0.582904 30.7801 1.00581C49.6416 1.34413 59.1992 15.4691 54.7165 25.0267C52.0522 30.6513 44.9474 31.1588 41.5219 26.2109" stroke="#434343" stroke-width="2" stroke-miterlimit="10" stroke-linecap="round"/>
<path d="M50.0648 37.333L57.3387 44.6069C58.6497 45.9179 58.6497 48.0748 57.3387 49.428C56.0277 50.739 53.8709 50.739 52.5176 49.428L45.2437 42.1541" stroke="#434343" stroke-width="2" stroke-miterlimit="10" stroke-linecap="round" stroke-linejoin="round"/>
<path d="M50.0647 37.3334L46.0894 35.1343L44.5669 36.6567L43.0022 38.2215L45.2436 42.1545L47.6541 39.7439" stroke="#434343" stroke-width="2" stroke-miterlimit="10" stroke-linecap="round" stroke-linejoin="round"/>
<path d="M46.0893 35.1342L31.0763 20.1211C30.1882 29.5095 38.4771 35.7262 43.0021 38.2214" stroke="#434343" stroke-width="2" stroke-miterlimit="10" stroke-linecap="round" stroke-linejoin="round"/>
<path d="M48.2037 27.0567C50.0222 26.8875 51.5446 25.7879 52.4327 23.9695C53.9129 20.84 53.49 17.0338 51.2486 13.4815C49.0072 9.88678 45.3702 7.1379 40.8875 5.44629C42.8328 8.36432 44.6936 11.3246 46.1737 14.4964C47.6962 17.7105 48.7535 21.5166 47.3156 24.773C46.9773 25.5342 46.5121 26.1686 45.9623 26.7606C46.6812 26.9721 47.4425 27.0989 48.2037 27.0567Z" fill="#434343"/>
</svg>
