<svg width="39" height="54" viewBox="0 0 39 54" fill="none" xmlns="http://www.w3.org/2000/svg">
<path fill-rule="evenodd" clip-rule="evenodd" d="M38.4135 54H0.879699C0.586466 54 0 53.7097 0 53.129V0.870968C0 0.290323 0.293233 0 0.879699 0H28.7362H29.0301C29.3233 0 29.3233 0 29.6165 0.290323L39 9.58064C39 9.58064 39.007 9.58761 39.0189 9.60047C39.0745 9.65813 39.1189 9.71578 39.1542 9.77344C39.2249 9.88094 39.2932 10.0211 39.2932 10.1613V53.4193C39 53.7097 38.7068 54 38.4135 54ZM1.46617 1.45161H28.1497V9.87097C28.1497 10.1613 28.443 10.4516 28.443 10.4516C28.6113 10.6183 28.683 10.6893 28.769 10.7195C28.8329 10.7419 28.9046 10.7419 29.0294 10.7419H37.5338V52.5484H1.46617V1.45161ZM29.6159 9.29032H36.3603L29.6159 2.6129V9.29032ZM16.1282 18.0003H32.5492C33.1357 18.0003 33.4289 17.7099 33.4289 17.1293C33.4289 16.5486 32.8425 16.2583 32.5492 16.2583H16.1282C15.5417 16.2583 15.2485 16.839 15.2485 17.1293C15.2485 17.7099 15.8349 18.0003 16.1282 18.0003ZM32.5492 24.3872H16.1282C15.8349 24.3872 15.2485 24.0969 15.2485 23.5162C15.2485 23.2259 15.5417 22.6453 16.1282 22.6453H32.5492C32.8425 22.6453 33.4289 22.9356 33.4289 23.5162C33.4289 24.0969 33.1357 24.3872 32.5492 24.3872ZM16.1282 31.0647H32.5492C33.1357 31.0647 33.4289 30.7744 33.4289 30.1938C33.4289 29.6131 32.8425 29.3228 32.5492 29.3228H16.1282C15.5417 29.3228 15.2485 29.9034 15.2485 30.1938C15.2485 30.7744 15.8349 31.0647 16.1282 31.0647ZM32.5492 37.4517H16.1282C15.8349 37.4517 15.2485 37.1614 15.2485 36.5808C15.2485 36.2904 15.5417 35.7098 16.1282 35.7098H32.5492C32.8425 35.7098 33.4289 36.0001 33.4289 36.5808C33.4289 37.1614 33.1357 37.4517 32.5492 37.4517ZM16.1282 44.1293H32.5492C33.1357 44.1293 33.4289 43.8389 33.4289 43.2583C33.4289 42.6777 32.8425 42.3873 32.5492 42.3873H16.1282C15.5417 42.3873 15.2485 42.968 15.2485 43.2583C15.2485 43.8389 15.8349 44.1293 16.1282 44.1293ZM12.0226 24.387H5.86473C5.57149 24.387 4.98503 24.0966 4.98503 23.516V17.4192C4.98503 17.1289 5.27826 16.5482 5.86473 16.5482H12.3159C12.6091 16.5482 13.1956 16.8386 13.1956 17.4192V23.8063C12.9023 24.0966 12.6091 24.387 12.0226 24.387ZM6.45119 22.9353H11.4362V18.2902H6.45119V22.9353ZM8.24354 32.4938C8.30736 32.5163 8.37906 32.5163 8.50394 32.5163C8.50394 32.5163 8.79718 32.5163 9.38364 31.9356L11.143 30.1937C11.4363 29.9034 11.4363 29.3227 11.143 29.0324C10.8498 28.7421 10.2633 28.7421 9.97011 29.0324L8.50394 30.484L8.21071 30.1937C7.91748 29.9034 7.33101 29.9034 7.03778 30.1937C6.74454 30.484 6.74454 31.0647 7.03778 31.355L7.91748 32.2259L7.9175 32.226C8.08583 32.3926 8.15752 32.4636 8.24354 32.4938ZM12.0226 34.8388H5.86473C5.57149 34.8388 4.98503 34.5485 4.98503 33.9679V27.8711C4.98503 27.5808 5.27826 27.0001 5.86473 27.0001H12.3159C12.6091 27.0001 13.1956 27.2904 13.1956 27.8711V34.2582C13.0741 34.2582 12.9526 34.3578 12.8103 34.4745C12.6091 34.6396 12.3662 34.8388 12.0226 34.8388ZM6.45119 33.3872H11.4362V28.4517H6.45119V33.3872ZM5.86473 44.9999H12.0226C12.4706 44.9999 12.7475 44.661 12.984 44.3716C13.0571 44.2822 13.1263 44.1975 13.1956 44.1289V37.7418C13.1956 37.1612 12.6091 36.8709 12.3159 36.8709H5.86473C5.27826 36.8709 4.98503 37.4515 4.98503 37.7418V44.1289C4.98503 44.7096 5.57149 44.9999 5.86473 44.9999ZM11.4362 43.5483H6.45119V38.6128H11.4362V43.5483Z" fill="#434343"/>
</svg>
