<svg width="36" height="36" viewBox="0 0 36 36" fill="none" xmlns="http://www.w3.org/2000/svg">
<g clip-path="url(#clip0_179_96)">
<path d="M18.0002 35.9999C8.03101 35.9999 0.000244141 27.9691 0.000244141 17.9999C0.000244141 8.03065 8.03101 -0.00012207 18.0002 -0.00012207C27.9695 -0.00012207 36.0002 8.03065 36.0002 17.9999C36.0002 27.9691 27.9695 35.9999 18.0002 35.9999ZM18.0002 2.76911C9.55409 2.76911 2.76947 9.55372 2.76947 17.9999C2.76947 26.446 9.55409 33.2306 18.0002 33.2306C26.4464 33.2306 33.231 26.446 33.231 17.9999C33.231 9.55372 26.4464 2.76911 18.0002 2.76911Z" fill="#178680"/>
<path d="M18.0003 27.6922C17.1696 27.6922 16.6157 27.1383 16.6157 26.3076V9.69217C16.6157 8.8614 17.1696 8.30756 18.0003 8.30756C18.8311 8.30756 19.385 8.8614 19.385 9.69217V26.3076C19.385 27.1383 18.8311 27.6922 18.0003 27.6922Z" fill="#178680"/>
<path d="M26.3079 19.3845H9.69248C8.86171 19.3845 8.30786 18.8307 8.30786 17.9999C8.30786 17.1691 8.86171 16.6153 9.69248 16.6153H26.3079C27.1386 16.6153 27.6925 17.1691 27.6925 17.9999C27.6925 18.8307 27.1386 19.3845 26.3079 19.3845Z" fill="#178680"/>
</g>
<defs>
<clipPath id="clip0_179_96">
<rect width="36" height="36" fill="white" transform="translate(0.000244141 -0.00012207)"/>
</clipPath>
</defs>
</svg>
