<svg width="19" height="28" viewBox="0 0 19 28" fill="none" xmlns="http://www.w3.org/2000/svg">
<path fill-rule="evenodd" clip-rule="evenodd" d="M15.695 2.88C14.0612 1.24576 11.8544 0.313407 9.54376 0.28125H9.45626C7.14547 0.31294 4.93824 1.24499 3.30412 2.87911C1.66999 4.51324 0.737946 6.72047 0.706256 9.03125C0.677819 10.6719 1.13938 12.2841 2.03188 13.6622L8.91813 27.625H10.0841L16.9681 13.6622C17.8628 12.2841 18.3244 10.6719 18.2938 9.03125C18.2616 6.72065 17.3292 4.51376 15.695 2.88ZM9.33595 2.46875L9.51532 2.49062L9.6772 2.46875C11.3956 2.54359 13.0201 3.27389 14.2167 4.50953C15.4132 5.74516 16.091 7.39224 16.1106 9.11219C16.1274 10.3329 15.771 11.5296 15.0891 12.5422L15.0453 12.6166L15.0081 12.6931L9.50001 23.8603L3.99407 12.7041L3.95688 12.6187L3.91313 12.5444C3.23125 11.5318 2.87483 10.3351 2.89157 9.11438C2.91022 7.39244 3.58878 5.74328 4.78737 4.50684C5.98596 3.2704 7.61323 2.54091 9.33376 2.46875H9.33595ZM10.6747 7.21344C10.4358 7.05372 10.1678 6.94261 9.88605 6.88645C9.60425 6.8303 9.31414 6.8302 9.0323 6.88616C8.75046 6.94213 8.4824 7.05305 8.24343 7.21261C8.00446 7.37217 7.79926 7.57723 7.63954 7.81609C7.47982 8.05496 7.36871 8.32294 7.31255 8.60474C7.2564 8.88654 7.2563 9.17665 7.31226 9.45849C7.36823 9.74033 7.47915 10.0084 7.63871 10.2474C7.79827 10.4863 8.00333 10.6915 8.2422 10.8512C8.7246 11.1738 9.31538 11.2915 9.88459 11.1785C10.4538 11.0655 10.9548 10.731 11.2774 10.2486C11.5999 9.76619 11.7176 9.1754 11.6046 8.6062C11.4916 8.037 11.1571 7.53601 10.6747 7.21344ZM7.02813 5.39344C7.50543 5.05792 8.04501 4.82126 8.61513 4.69738C9.18525 4.5735 9.77438 4.5649 10.3479 4.67209C10.9214 4.77927 11.4676 5.00008 11.9545 5.32152C12.4414 5.64295 12.8591 6.05853 13.183 6.54379C13.5069 7.02904 13.7304 7.57418 13.8405 8.14712C13.9506 8.72006 13.945 9.30924 13.824 9.87997C13.703 10.4507 13.469 10.9915 13.1359 11.4705C12.8029 11.9495 12.3773 12.357 11.8844 12.6691C10.9195 13.28 9.75395 13.4893 8.63674 13.2525C7.51954 13.0156 6.53924 12.3513 5.90523 11.4015C5.27121 10.4516 5.03375 9.29144 5.24357 8.16884C5.45338 7.04625 6.09384 6.0502 7.02813 5.39344Z" fill="#439117"/>
</svg>
