<svg width="30" height="30" viewBox="0 0 30 30" fill="none" xmlns="http://www.w3.org/2000/svg">
<path d="M3.75 6.5625V21.5625C3.75 22.0598 3.94754 22.5367 4.29917 22.8883C4.65081 23.24 5.12772 23.4375 5.625 23.4375H24.375C24.8723 23.4375 25.3492 23.24 25.7008 22.8883C26.0525 22.5367 26.25 22.0598 26.25 21.5625V6.5625H3.75ZM3.75 4.6875H26.25C26.7473 4.6875 27.2242 4.88504 27.5758 5.23667C27.9275 5.58831 28.125 6.06522 28.125 6.5625V21.5625C28.125 22.5571 27.7299 23.5109 27.0266 24.2141C26.3234 24.9174 25.3696 25.3125 24.375 25.3125H5.625C4.63044 25.3125 3.67661 24.9174 2.97335 24.2141C2.27009 23.5109 1.875 22.5571 1.875 21.5625V6.5625C1.875 6.06522 2.07254 5.58831 2.42417 5.23667C2.77581 4.88504 3.25272 4.6875 3.75 4.6875Z" fill="#439117"/>
<path d="M26.4844 6.5625L19.2338 14.85C18.7058 15.4535 18.0549 15.9372 17.3247 16.2686C16.5945 16.6 15.8019 16.7715 15 16.7715C14.1981 16.7715 13.4055 16.6 12.6753 16.2686C11.9451 15.9372 11.2942 15.4535 10.7663 14.85L3.51562 6.5625H26.4844ZM6.0075 6.5625L12.1762 13.6144C12.5282 14.0168 12.9622 14.3394 13.4491 14.5604C13.9359 14.7814 14.4644 14.8957 14.9991 14.8957C15.5337 14.8957 16.0622 14.7814 16.5491 14.5604C17.0359 14.3394 17.4699 14.0168 17.8219 13.6144L23.9925 6.5625H6.0075Z" fill="#439117"/>
</svg>
