<svg width="47" height="47" viewBox="0 0 47 47" fill="none" xmlns="http://www.w3.org/2000/svg">
<circle cx="23.5" cy="23.5" r="23.5" fill="#3644F8"/>
<path d="M32.6211 16.6201L30.021 14.0225C29.8376 13.8382 29.6196 13.6921 29.3795 13.5924C29.1394 13.4926 28.882 13.4413 28.6221 13.4414C28.0923 13.4414 27.5942 13.6489 27.2207 14.0225L24.4229 16.8203C24.2386 17.0037 24.0925 17.2217 23.9928 17.4618C23.893 17.7019 23.8417 17.9593 23.8418 18.2192C23.8418 18.749 24.0493 19.2471 24.4229 19.6206L26.4688 21.6665C25.9899 22.7221 25.324 23.6823 24.5034 24.501C23.6849 25.3236 22.7247 25.9918 21.6689 26.4736L19.623 24.4277C19.4396 24.2435 19.2216 24.0973 18.9816 23.9976C18.7415 23.8979 18.4841 23.8466 18.2241 23.8467C17.6943 23.8467 17.1963 24.0542 16.8228 24.4277L14.0225 27.2231C13.838 27.4069 13.6917 27.6253 13.592 27.8658C13.4923 28.1063 13.4411 28.3642 13.4414 28.6245C13.4414 29.1543 13.6489 29.6523 14.0225 30.0259L16.6177 32.6211C17.2134 33.2192 18.0361 33.5586 18.8809 33.5586C19.0591 33.5586 19.23 33.5439 19.3984 33.5146C22.6895 32.9727 25.9536 31.2222 28.5879 28.5903C31.2197 25.9609 32.9678 22.6992 33.5171 19.3984C33.6831 18.3901 33.3486 17.3525 32.6211 16.6201Z" fill="white"/>
</svg>
