<svg width="62" height="69" viewBox="0 0 62 69" fill="none" xmlns="http://www.w3.org/2000/svg">
<path d="M29.8486 37.7927L35.5091 43.4531L59.6748 19.2874C60.2191 18.7431 60.2191 17.8179 59.6748 17.2192L56.0826 13.627C55.5383 13.0827 54.6131 13.0827 54.0144 13.627L29.8486 37.7927Z" stroke="white" stroke-width="2" stroke-miterlimit="10" stroke-linecap="round" stroke-linejoin="round"/>
<path d="M35.5086 43.399L33.4403 45.4672L28.2697 47.5899L26.9635 46.2836L25.6572 45.0318L27.8343 39.8068L29.8481 37.793" stroke="white" stroke-width="2" stroke-miterlimit="10" stroke-linecap="round" stroke-linejoin="round"/>
<path d="M26.9636 46.2832L24.2422 49.0046" stroke="white" stroke-width="2" stroke-miterlimit="10" stroke-linecap="round" stroke-linejoin="round"/>
<path d="M56.0282 22.8799L57.3345 24.1861C58.6407 25.4924 58.6407 27.5606 57.3345 28.8669L47.4287 38.8271" stroke="white" stroke-width="2" stroke-miterlimit="10" stroke-linecap="round" stroke-linejoin="round"/>
<path d="M51.1297 27.7786L45.4692 22.1182" stroke="white" stroke-width="2" stroke-miterlimit="10" stroke-linecap="round" stroke-linejoin="round"/>
<path d="M32.4611 1H18.4733C17.8746 1 17.3848 1.48985 17.3848 2.08855V8.07555C17.3848 9.3818 18.4189 10.4159 19.7251 10.4159H19.7796C20.7593 10.4159 21.5757 9.81722 21.9567 8.89196C22.5554 7.53128 23.916 6.55158 25.4944 6.55158C27.0728 6.55158 28.4879 7.53128 29.0322 8.89196C29.4132 9.76279 30.2296 10.4159 31.2093 10.4159C32.5156 10.4159 33.5497 9.3818 33.5497 8.07555V2.08855C33.5497 1.48985 33.0598 1 32.4611 1Z" stroke="white" stroke-width="2" stroke-miterlimit="10" stroke-linecap="round" stroke-linejoin="round"/>
<path d="M49.932 13.0829V1H37.2505" stroke="white" stroke-width="2" stroke-miterlimit="10" stroke-linecap="round" stroke-linejoin="round"/>
<path d="M13.6291 1H1.00195V68H39.482C41.2782 68 42.6933 66.5849 42.6933 64.7888V60.7612H46.7209C48.517 60.7612 49.9321 59.3461 49.9321 57.55V40.6775" stroke="white" stroke-width="2" stroke-miterlimit="10" stroke-linecap="round" stroke-linejoin="round"/>
<path d="M16.3506 41.8203H8.89404V49.2769H16.3506V41.8203Z" stroke="white" stroke-width="2" stroke-miterlimit="10" stroke-linecap="round" stroke-linejoin="round"/>
<path d="M16.3506 28.7578H8.89404V36.2144H16.3506V28.7578Z" stroke="white" stroke-width="2" stroke-miterlimit="10" stroke-linecap="round" stroke-linejoin="round"/>
<path d="M16.3506 15.6953H8.89404V23.1519H16.3506V15.6953Z" stroke="white" stroke-width="2" stroke-miterlimit="10" stroke-linecap="round" stroke-linejoin="round"/>
<path d="M39.4276 64.7339V60.7607H4.26758V64.7339H39.4276Z" fill="white"/>
</svg>
