<svg width="65" height="65" viewBox="0 0 65 65" fill="none" xmlns="http://www.w3.org/2000/svg">
<path d="M15.375 48.7998C12.775 46.1998 10.375 43.2998 8.175 40.3998C5.575 36.8998 2.975 32.9998 1.775 28.7998C0.775 25.3998 0.675 21.7998 1.875 18.4998C3.075 15.0998 6.675 10.5998 10.775 11.0998C14.275 11.4998 17.275 14.8998 18.775 17.8998C19.475 19.2998 19.975 20.8998 19.475 22.3998C18.775 24.3998 16.575 25.3998 15.375 27.0998C13.875 29.2998 14.275 32.0998 15.675 34.2998C17.975 38.0998 20.075 40.3998 21.875 42.2998C23.775 44.1998 26.075 46.1998 29.875 48.4998C32.075 49.7998 34.875 50.2998 37.075 48.7998C38.775 47.5998 39.775 45.3998 41.775 44.6998C43.275 44.1998 44.875 44.6998 46.275 45.3998C49.275 46.8998 52.675 49.8998 53.075 53.3998C53.475 57.4998 49.075 60.9998 45.675 62.2998C42.375 63.4998 38.675 63.3998 35.375 62.3998C31.175 61.1998 27.275 58.5998 23.775 55.9998C20.775 53.7998 17.875 51.3998 15.375 48.7998Z" stroke="white" stroke-width="2" stroke-miterlimit="10" stroke-linecap="round" stroke-linejoin="round"/>
<path d="M13.7749 22.8999L15.7749 24.8999" stroke="white" stroke-width="2" stroke-miterlimit="10" stroke-linecap="round" stroke-linejoin="round"/>
<path d="M39.1748 48.2998L41.1748 50.2998" stroke="white" stroke-width="2" stroke-miterlimit="10" stroke-linecap="round" stroke-linejoin="round"/>
<path d="M52.0752 23V34H41.0752V23H30.0752V12H41.0752V1H52.0752V12H63.0752V23H52.0752Z" stroke="white" stroke-width="2" stroke-miterlimit="10" stroke-linecap="round" stroke-linejoin="round"/>
</svg>
