<svg width="73" height="68" viewBox="0 0 73 68" fill="none" xmlns="http://www.w3.org/2000/svg">
<path d="M70.9707 63.8505C70.8082 63.8505 70.6457 63.821 70.498 63.7471L64.3819 60.8368C62.9194 60.1573 61.2501 60.0243 59.6841 60.4675C59.6694 60.4675 59.6398 60.4823 59.625 60.4823L54.3068 61.6641C53.3761 61.9152 52.4306 61.9743 51.4704 61.8414L42.577 61.2505C42.5475 61.2505 42.5179 61.2505 42.4884 61.2357C41.5725 61.1027 40.7599 60.6152 40.2133 59.8618C39.6667 59.1084 39.4599 58.1925 39.6076 57.2765C39.8736 55.6958 41.2474 54.4992 42.8429 54.4401L46.7873 54.2924C47.7476 54.2628 48.6487 53.8344 49.284 53.1253C49.934 52.4014 50.2442 51.4855 50.1851 50.5105C50.0965 49.2252 49.3135 48.073 48.1317 47.5411L32.7678 40.2433C29.7245 38.8398 28.1881 35.3534 29.1779 32.1477C29.2666 31.8375 29.5029 31.5863 29.7836 31.4681C30.0791 31.3352 30.4041 31.3499 30.6995 31.4829L71.8718 50.7764C72.4332 51.0423 72.6696 51.6923 72.4037 52.2537C72.1378 52.8151 71.4877 53.0515 70.9264 52.7855L31.1132 34.0829C31.0984 35.8114 32.0882 37.466 33.728 38.2194L49.0919 45.5172C50.9976 46.3888 52.2681 48.2502 52.4158 50.348C52.5192 51.9139 52.0022 53.4208 50.9533 54.5878C49.9044 55.7549 48.4567 56.4345 46.8907 56.4936L42.9463 56.6413C42.385 56.6561 41.8975 57.0845 41.8088 57.6459C41.7497 57.9709 41.8236 58.2959 42.0156 58.5618C42.2077 58.8129 42.4736 58.9902 42.7838 59.0345L51.6772 59.6254C51.7067 59.6254 51.7363 59.6254 51.7658 59.6402C52.4306 59.7436 53.0954 59.6993 53.7454 59.5072C53.7602 59.5072 53.7897 59.4925 53.8045 59.4925L59.1228 58.3106C61.191 57.7345 63.3921 57.9265 65.3422 58.8129L71.473 61.738C72.0196 62.0039 72.2559 62.6687 71.99 63.2153C71.7684 63.6141 71.3843 63.8505 70.9707 63.8505Z" fill="white"/>
<path d="M39.7704 53.8639C39.3863 53.8639 39.0022 53.6571 38.7954 53.2877L37.776 51.4559C37.7613 51.4411 37.7613 51.4263 37.7465 51.4116C36.6681 49.2252 37.0965 47.1422 38.9136 45.6944L42.2523 43.0353C42.725 42.6512 43.4341 42.7398 43.8034 43.2126C44.1875 43.6853 44.0989 44.3944 43.6261 44.7637L40.2875 47.4229C39.2829 48.2206 39.1056 49.1365 39.7261 50.3922L40.7306 52.2093C41.0261 52.7411 40.8341 53.4207 40.3022 53.7162C40.1397 53.8196 39.9477 53.8639 39.7704 53.8639Z" fill="white"/>
<path d="M44.5715 50.5251C44.409 50.5251 44.2612 50.4955 44.1135 50.4217L42.0157 49.4467C41.4544 49.1955 41.218 48.5307 41.4691 47.9694C41.7203 47.408 42.3851 47.1716 42.9464 47.4227L44.3056 48.058L46.8317 45.3102C47.2454 44.867 47.9397 44.8375 48.3977 45.2511C48.8409 45.6648 48.8704 46.3591 48.4568 46.8171L45.384 50.1558C45.1772 50.3921 44.8817 50.5251 44.5715 50.5251Z" fill="white"/>
<path d="M45.4281 52.8595C44.9701 52.8595 44.5565 52.5789 44.394 52.1357L43.5371 49.8015C43.3303 49.2254 43.6258 48.5902 44.2019 48.3833C44.7781 48.1765 45.4133 48.472 45.6201 49.0481L46.477 51.3822C46.6838 51.9584 46.3883 52.5936 45.8122 52.8005C45.694 52.8448 45.561 52.8595 45.4281 52.8595Z" fill="white"/>
<path d="M1.10895 67.7654C0.872582 67.7654 0.650988 67.6915 0.458939 67.5586C0.178252 67.3517 0.000976562 67.012 0.000976562 66.6574V1.10969C0.000976562 0.784685 0.148706 0.474452 0.385074 0.267631C0.636215 0.060809 0.96122 -0.0426019 1.27145 0.01649L55.9463 8.34845C56.4929 8.43709 56.8917 8.89505 56.8917 9.44165V39.7115C56.8917 40.3172 56.3894 40.8195 55.7838 40.8195C55.1781 40.8195 54.6758 40.3172 54.6758 39.7115V10.3871L2.21692 2.39494V65.1358L34.9982 54.6617C35.5743 54.4697 36.2096 54.7947 36.3868 55.3856C36.5789 55.9618 36.2539 56.597 35.663 56.7743L1.43396 67.7063C1.33054 67.7506 1.22713 67.7654 1.10895 67.7654Z" fill="white"/>
<path d="M15.04 41.824C11.2876 41.824 8.37734 40.2728 6.73754 37.333C5.73298 35.5307 5.2307 33.2557 5.33411 30.9216C5.42275 28.809 5.99889 26.8885 6.88527 25.7806C7.26937 25.3078 7.9637 25.234 8.43643 25.6033C8.90917 25.9874 8.98303 26.6817 8.61371 27.1544C7.4171 28.6317 6.92959 33.0932 8.68757 36.2251C10.1796 38.8694 12.8683 39.9626 16.6945 39.4751C17.3002 39.4012 17.8616 39.8297 17.9355 40.4354C18.0093 41.041 17.5809 41.6024 16.9752 41.6763C16.2957 41.7797 15.6604 41.824 15.04 41.824Z" fill="white"/>
<path d="M8.49583 28.4691C8.20037 28.4691 7.90491 28.3509 7.68331 28.1145C5.83669 26.1054 5.82192 22.8258 7.65377 20.8019C8.56969 19.7826 9.81062 19.2212 11.1254 19.2212H11.1402C12.455 19.2212 13.6811 19.7678 14.5971 20.7724C15.0107 21.2155 14.9812 21.9246 14.538 22.3383C14.0948 22.7519 13.3857 22.7224 12.972 22.2792C12.4698 21.7474 11.8197 21.4371 11.1402 21.4371C11.1402 21.4371 11.1402 21.4371 11.1254 21.4371C10.4311 21.4371 9.78108 21.7474 9.27879 22.294C8.20037 23.4906 8.20037 25.4258 9.29357 26.6225C9.70721 27.0656 9.67767 27.7747 9.23448 28.1884C9.02765 28.3657 8.76174 28.4691 8.49583 28.4691Z" fill="white"/>
<path d="M18.6888 35.3978C18.5854 35.3978 18.482 35.3978 18.3638 35.383C15.6899 35.191 13.6513 32.7091 13.8138 29.8432C13.8433 29.2375 14.3751 28.7647 14.9808 28.7943C15.5865 28.8238 16.0593 29.3557 16.0297 29.9613C15.9263 31.6159 17.049 33.0489 18.5116 33.1523C19.1616 33.1966 19.7968 32.975 20.2991 32.5318C20.9048 32 21.2741 31.2171 21.3184 30.3602C21.348 29.7545 21.8798 29.2818 22.4855 29.3113C23.0912 29.3409 23.5639 29.8727 23.5344 30.4784C23.4457 31.9262 22.8105 33.2705 21.7616 34.1864C20.89 34.9842 19.8116 35.3978 18.6888 35.3978Z" fill="white"/>
<path d="M35.22 17.7886C35.1314 17.7886 35.0575 17.7738 34.9689 17.759C34.3779 17.6261 33.9938 17.0204 34.1416 16.4294C34.5109 14.8044 33.6393 13.1498 32.1915 12.751C31.5711 12.5737 30.9063 12.6771 30.3301 13.0169C29.6654 13.4158 29.1779 14.1101 29.0006 14.9226C28.8676 15.5135 28.2619 15.8976 27.671 15.7499C27.0801 15.6169 26.696 15.0112 26.8437 14.4203C27.1687 13.0169 28.0256 11.8203 29.2074 11.1112C30.3006 10.4612 31.5711 10.2839 32.7972 10.6237C35.3677 11.3328 36.9484 14.1692 36.3132 16.9317C36.1802 17.4488 35.7223 17.7886 35.22 17.7886Z" fill="white"/>
<path d="M25.6616 23.9929C25.5286 23.9929 25.3809 23.9929 25.2479 23.9781C24.1104 23.8747 23.032 23.3428 22.2195 22.486C21.8058 22.0428 21.8206 21.3337 22.2638 20.9201C22.707 20.5064 23.4161 20.5212 23.8297 20.9644C24.2729 21.4371 24.8343 21.7178 25.44 21.7769C26.09 21.836 26.7252 21.6292 27.2423 21.186C27.848 20.6689 28.2321 19.886 28.3059 19.0291C28.3502 18.4234 28.8821 17.9655 29.4878 18.0098C30.0935 18.0541 30.5514 18.5859 30.5071 19.1916C30.4037 20.6394 29.7241 21.969 28.6753 22.8701C27.8036 23.6088 26.7548 23.9929 25.6616 23.9929Z" fill="white"/>
<path d="M19.2652 26.0909C19.147 26.0909 19.014 26.0909 18.8958 26.0761C18.2901 26.0318 17.8322 25.4852 17.8765 24.8795C17.9208 24.2738 18.4674 23.8158 19.0731 23.8602C19.6788 23.9045 20.2549 23.7272 20.7572 23.3431C22.0129 22.3829 22.2936 20.4624 21.4072 19.0885C21.0675 18.5714 21.2152 17.8919 21.7322 17.5521C22.2493 17.2123 22.9289 17.3601 23.2686 17.8771C24.7755 20.1965 24.2584 23.4317 22.1163 25.0863C21.2743 25.7511 20.2845 26.0909 19.2652 26.0909Z" fill="white"/>
<path d="M46.7135 32.3841C46.3146 32.3841 45.9157 32.1625 45.7237 31.7784C45.443 31.2318 45.6646 30.567 46.2112 30.2863C47.5851 29.592 48.176 27.7749 47.526 26.2385C47.201 25.4851 46.6396 24.9385 45.9453 24.6726C45.3248 24.451 44.6452 24.4953 44.0543 24.7908C43.5077 25.0715 42.8429 24.8499 42.5623 24.3033C42.2816 23.7567 42.5032 23.0919 43.0498 22.8112C44.2021 22.2203 45.5021 22.1464 46.7135 22.5896C47.9839 23.0476 49.018 24.0669 49.5794 25.3669C50.6726 27.9522 49.6237 31.0397 47.2305 32.2511C47.0532 32.3545 46.8907 32.3841 46.7135 32.3841Z" fill="white"/>
<path d="M49.3135 37.1559C49.2101 37.1559 49.1066 37.1411 49.0032 37.1116C48.4123 36.9491 48.0725 36.3286 48.2498 35.7377C48.7225 34.1127 48.4862 32.3842 47.6146 30.9956C47.2896 30.4785 47.4521 29.799 47.9691 29.4739C48.4862 29.1489 49.1657 29.3114 49.4907 29.8285C50.7021 31.7638 51.0271 34.1422 50.3771 36.3582C50.2294 36.8457 49.7862 37.1559 49.3135 37.1559Z" fill="white"/>
<path d="M45.1029 24.2443C44.5563 24.2443 44.0688 23.8307 44.0097 23.2693C43.6256 20.1965 41.6608 18.1431 40.0654 16.9464C37.9824 15.3953 35.9437 14.893 35.5005 14.9521C34.9391 15.1294 34.3187 14.8339 34.1118 14.2725C33.905 13.6964 34.2005 13.0611 34.7766 12.8543C36.0619 12.3964 38.5437 13.3566 40.3017 14.4498C42.2518 15.6612 45.62 18.3646 46.1962 23.0034C46.27 23.6091 45.8416 24.1704 45.2359 24.2443C45.1916 24.2443 45.1473 24.2443 45.1029 24.2443Z" fill="white"/>
<path d="M23.6234 46.2263C19.3835 46.2263 15.9414 42.8876 15.9414 38.7807C15.9414 36.7864 16.7391 34.9102 18.2017 33.492C18.6449 33.0636 19.3392 33.0783 19.7676 33.5215C20.196 33.9647 20.1813 34.659 19.7381 35.0875C18.7187 36.0773 18.1574 37.3773 18.1574 38.7807C18.1574 41.6614 20.6097 44.0103 23.6234 44.0103C25.1745 44.0103 26.6666 43.3751 27.7007 42.2671C28.1143 41.8239 28.8234 41.7944 29.2666 42.208C29.7098 42.6217 29.7394 43.3308 29.3257 43.774C27.8632 45.3399 25.795 46.2263 23.6234 46.2263Z" fill="white"/>
<path d="M10.5932 21.4227C10.5784 21.4227 10.5784 21.4227 10.5636 21.4227C9.95793 21.4079 9.47042 20.9056 9.48519 20.2851C9.48519 20.1522 9.5886 16.9464 11.9523 14.9078C13.4739 13.593 15.5273 13.0907 18.0535 13.4157C18.6592 13.4896 19.0876 14.0509 19.0138 14.6566C18.9399 15.2623 18.3785 15.6907 17.7728 15.6169C15.8967 15.3805 14.4341 15.7055 13.4 16.5771C11.7898 17.951 11.6864 20.3147 11.6864 20.3442C11.6716 20.9499 11.1841 21.4227 10.5932 21.4227Z" fill="white"/>
<path d="M17.049 16.9908C16.9013 16.9908 16.7683 16.9613 16.6206 16.9022C16.0592 16.6658 15.7933 16.0158 16.0297 15.4545C16.0592 15.3806 16.8718 13.4896 18.9547 12.101C22.3821 9.82595 26.5037 10.5941 29.3845 11.6135C29.9606 11.8203 30.2561 12.4555 30.0493 13.0317C29.8424 13.6078 29.2072 13.9033 28.631 13.6965C25.1594 12.4408 22.3082 12.5294 20.1809 13.9328C18.6593 14.9374 18.0684 16.2817 18.0684 16.2817C17.8911 16.7397 17.4774 16.9908 17.049 16.9908Z" fill="white"/>
<path d="M37.495 31.6157C37.2143 31.6157 36.9336 31.5123 36.712 31.2907C36.6381 31.2168 34.7767 29.3554 35.3676 26.5633C35.4858 25.9576 36.0767 25.5735 36.6824 25.7065C37.2881 25.8247 37.6722 26.4156 37.5393 27.0213C37.2143 28.602 38.2336 29.6656 38.2779 29.7247C38.7211 30.1532 38.7211 30.8475 38.2927 31.2907C38.0711 31.4975 37.7904 31.6157 37.495 31.6157Z" fill="white"/>
<path d="M13.6954 34.5853C12.0852 34.5853 10.8443 33.7137 10.2829 33.0489C9.88402 32.5761 9.94311 31.8818 10.4158 31.4829C10.8738 31.0841 11.5681 31.1432 11.967 31.6011C12.1 31.7488 13.2375 32.9307 14.9955 32C15.5421 31.7045 16.2069 31.9114 16.5023 32.458C16.7978 33.0046 16.591 33.6693 16.0444 33.9648C15.2023 34.408 14.4193 34.5853 13.6954 34.5853Z" fill="white"/>
<path d="M39.3269 28.4694C39.3121 28.4694 39.2825 28.4694 39.2678 28.4694C37.4655 28.3807 36.0473 27.7455 35.087 26.5932C33.5211 24.7318 33.787 22.2056 33.8018 22.1022C33.8756 21.4965 34.4222 21.0533 35.0279 21.1272C35.6336 21.2011 36.062 21.7477 36.0029 22.3533C36.0029 22.3977 35.8404 24.067 36.7859 25.175C37.3473 25.825 38.2189 26.1943 39.386 26.2534C39.9917 26.283 40.4644 26.8 40.4348 27.4205C40.3905 28.0114 39.903 28.4694 39.3269 28.4694Z" fill="white"/>
<path d="M31.6889 47.497C27.5968 47.497 26.0457 44.9708 25.957 44.8378L27.8627 43.7003L27.848 43.6855C27.9071 43.789 29.4287 46.064 33.964 44.9856C34.5549 44.8378 35.1606 45.2072 35.2936 45.8129C35.4413 46.4038 35.072 47.0095 34.4663 47.1424C33.4469 47.3936 32.5162 47.497 31.6889 47.497Z" fill="white"/>
</svg>
