<svg width="42" height="59" viewBox="0 0 42 59" fill="none" xmlns="http://www.w3.org/2000/svg">
<path d="M40.3138 11.8838C39.2408 9.55129 37.7156 7.45504 35.7689 5.6637C31.8142 2.0124 26.5642 0 20.9999 0C15.4357 0 10.1857 2.0124 6.23096 5.65607C4.28424 7.45504 2.75906 9.54367 1.68607 11.8838C0.567092 14.3231 -6.10352e-05 16.9072 -6.10352e-05 19.5752V21.6333C-6.10352e-05 22.1059 0.38315 22.4871 0.858333 22.4871H4.99702C5.4722 22.4871 5.85541 22.1059 5.85541 21.6333V19.5752C5.85541 11.9906 12.6459 5.82377 20.9999 5.82377C29.354 5.82377 36.1445 11.9906 36.1445 19.5752C36.1445 22.6853 35.0331 25.6124 32.9255 28.0517C30.8408 30.4681 27.8977 32.1984 24.6404 32.9302C22.778 33.3495 21.0996 34.3938 19.9116 35.8879C18.7278 37.3768 18.0826 39.2188 18.0799 41.1171V43.5106C18.0799 43.9832 18.4631 44.3643 18.9383 44.3643H23.0769C23.5521 44.3643 23.9353 43.9832 23.9353 43.5106V41.1171C23.9353 39.9203 24.7707 38.8683 25.928 38.6092C30.404 37.603 34.466 35.2018 37.3707 31.8478C38.8346 30.1479 39.9766 28.2575 40.766 26.207C41.5861 24.0802 41.9999 21.8468 41.9999 19.5752C41.9999 16.9072 41.4328 14.3155 40.3138 11.8838ZM20.9999 50.4625C18.6317 50.4625 16.708 52.3758 16.708 54.7313C16.708 57.0867 18.6317 59 20.9999 59C23.3682 59 25.2919 57.0867 25.2919 54.7313C25.2919 52.3758 23.3682 50.4625 20.9999 50.4625Z" fill="white"/>
</svg>
