<svg width="62" height="53" viewBox="0 0 62 53" fill="none" xmlns="http://www.w3.org/2000/svg">
<path fill-rule="evenodd" clip-rule="evenodd" d="M1.57129 42.6905V10.3096C1.57129 8.1626 2.45428 6.10355 4.02601 4.5854C5.59775 3.06724 7.72948 2.21436 9.95224 2.21436H51.857C54.0798 2.21436 56.2115 3.06724 57.7832 4.5854C59.355 6.10355 60.238 8.1626 60.238 10.3096V42.6905C60.238 44.8375 59.355 46.8966 57.7832 48.4147C56.2115 49.9329 54.0798 50.7858 51.857 50.7858H9.95224C7.72948 50.7858 5.59775 49.9329 4.02601 48.4147C2.45428 46.8966 1.57129 44.8375 1.57129 42.6905Z" fill="#178680" stroke="white" stroke-width="3" stroke-linecap="round" stroke-linejoin="round"/>
<path d="M9.95215 16.3811L30.9045 28.524L51.8569 16.3811" stroke="white" stroke-width="3" stroke-linecap="round" stroke-linejoin="round"/>
</svg>
