<svg width="55" height="52" viewBox="0 0 55 52" fill="none" xmlns="http://www.w3.org/2000/svg">
<path d="M47.3295 3.38068C48.2261 3.38068 49.086 3.73685 49.72 4.37085C50.354 5.00485 50.7101 5.86474 50.7101 6.76135V33.8068C50.7101 34.7034 50.354 35.5633 49.72 36.1973C49.086 36.8313 48.2261 37.1874 47.3295 37.1874H38.8778C37.8281 37.1874 36.7929 37.4318 35.854 37.9013C34.9152 38.3707 34.0985 39.0522 33.4687 39.892L27.0454 48.4552L20.6221 39.892C19.9923 39.0522 19.1757 38.3707 18.2368 37.9013C17.298 37.4318 16.2627 37.1874 15.213 37.1874H6.76135C5.86474 37.1874 5.00485 36.8313 4.37085 36.1973C3.73685 35.5633 3.38068 34.7034 3.38068 33.8068V6.76135C3.38068 5.86474 3.73685 5.00485 4.37085 4.37085C5.00485 3.73685 5.86474 3.38068 6.76135 3.38068H47.3295ZM6.76135 0C4.96813 0 3.24835 0.712355 1.98035 1.98035C0.712355 3.24835 0 4.96813 0 6.76135L0 33.8068C0 35.6 0.712355 37.3198 1.98035 38.5878C3.24835 39.8558 4.96813 40.5681 6.76135 40.5681H15.213C15.7379 40.5681 16.2555 40.6903 16.7249 40.925C17.1944 41.1597 17.6027 41.5005 17.9176 41.9204L24.3409 50.4836C24.6558 50.9035 25.0641 51.2443 25.5335 51.479C26.003 51.7137 26.5206 51.8359 27.0454 51.8359C27.5702 51.8359 28.0879 51.7137 28.5573 51.479C29.0267 51.2443 29.4351 50.9035 29.75 50.4836L36.1732 41.9204C36.4881 41.5005 36.8965 41.1597 37.3659 40.925C37.8353 40.6903 38.3529 40.5681 38.8778 40.5681H47.3295C49.1227 40.5681 50.8425 39.8558 52.1105 38.5878C53.3785 37.3198 54.0908 35.6 54.0908 33.8068V6.76135C54.0908 4.96813 53.3785 3.24835 52.1105 1.98035C50.8425 0.712355 49.1227 0 47.3295 0L6.76135 0Z" fill="white"/>
<path d="M16.9034 20.284C16.9034 21.1806 16.5473 22.0405 15.9133 22.6745C15.2793 23.3085 14.4194 23.6647 13.5228 23.6647C12.6262 23.6647 11.7663 23.3085 11.1323 22.6745C10.4983 22.0405 10.1421 21.1806 10.1421 20.284C10.1421 19.3874 10.4983 18.5275 11.1323 17.8935C11.7663 17.2595 12.6262 16.9033 13.5228 16.9033C14.4194 16.9033 15.2793 17.2595 15.9133 17.8935C16.5473 18.5275 16.9034 19.3874 16.9034 20.284ZM30.4261 20.284C30.4261 21.1806 30.07 22.0405 29.436 22.6745C28.802 23.3085 27.9421 23.6647 27.0455 23.6647C26.1489 23.6647 25.289 23.3085 24.655 22.6745C24.021 22.0405 23.6648 21.1806 23.6648 20.284C23.6648 19.3874 24.021 18.5275 24.655 17.8935C25.289 17.2595 26.1489 16.9033 27.0455 16.9033C27.9421 16.9033 28.802 17.2595 29.436 17.8935C30.07 18.5275 30.4261 19.3874 30.4261 20.284ZM43.9489 20.284C43.9489 21.1806 43.5927 22.0405 42.9587 22.6745C42.3247 23.3085 41.4648 23.6647 40.5682 23.6647C39.6716 23.6647 38.8117 23.3085 38.1777 22.6745C37.5437 22.0405 37.1875 21.1806 37.1875 20.284C37.1875 19.3874 37.5437 18.5275 38.1777 17.8935C38.8117 17.2595 39.6716 16.9033 40.5682 16.9033C41.4648 16.9033 42.3247 17.2595 42.9587 17.8935C43.5927 18.5275 43.9489 19.3874 43.9489 20.284Z" fill="white"/>
</svg>
