<svg width="59" height="54" viewBox="0 0 59 54" fill="none" xmlns="http://www.w3.org/2000/svg">
<path d="M55.9636 6.87273H45.1636V0H41.2364V6.87273H17.6727V0H13.7455V6.87273H2.94545C2.16455 6.87364 1.41589 7.18425 0.863708 7.73644C0.311525 8.28862 0.000909464 9.03728 0 9.81818V51.0545C0.000909464 51.8355 0.311525 52.5841 0.863708 53.1363C1.41589 53.6885 2.16455 53.9991 2.94545 54H55.9636C56.7445 53.9991 57.4932 53.6885 58.0454 53.1363C58.5976 52.5841 58.9082 51.8355 58.9091 51.0545V9.81818C58.9082 9.03728 58.5976 8.28862 58.0454 7.73644C57.4932 7.18425 56.7445 6.87364 55.9636 6.87273V6.87273ZM54.9818 50.0727H3.92727V10.8H13.7455V15.7091H17.6727V10.8H41.2364V15.7091H45.1636V10.8H54.9818V50.0727Z" fill="white"/>
<path d="M27.9078 33.5501L21.2333 26.8756L18.4564 29.6526L27.9078 39.104L43.3242 23.6876L40.5471 20.9106L27.9078 33.5501V33.5501Z" fill="white"/>
</svg>
