<svg width="62" height="62" viewBox="0 0 62 62" fill="none" xmlns="http://www.w3.org/2000/svg">
<path d="M18.0755 44.0382C15.1862 41.1488 12.519 37.9261 10.0742 34.7033C7.18479 30.8137 4.29541 26.4797 2.96184 21.8122C1.85054 18.0338 1.73941 14.0331 3.07297 10.3658C4.40654 6.58737 8.40722 1.58652 12.9636 2.14217C16.8531 2.58669 20.187 6.36511 21.854 9.69902C22.6319 11.2548 23.1875 13.0329 22.6319 14.6999C21.854 16.9225 19.4091 18.0338 18.0755 19.923C16.4086 22.3678 16.8531 25.4795 18.4089 27.9244C20.9649 32.1473 23.2987 34.7033 25.299 36.8148C27.4105 38.9262 29.9665 41.1488 34.1894 43.7048C36.6343 45.1495 39.7459 45.7052 42.1908 44.0382C44.08 42.7047 45.1913 40.2598 47.4139 39.4819C49.0808 38.9262 50.8589 39.4819 52.4147 40.2598C55.7486 41.9267 59.5271 45.2607 59.9716 49.1502C60.4161 53.7065 55.5264 57.5961 51.748 59.0408C48.0807 60.3743 43.9688 60.2632 40.3016 59.1519C35.6341 57.8184 31.3 54.929 27.4105 52.0396C24.0766 49.5947 20.8538 46.9276 18.0755 44.0382Z" stroke="white" stroke-width="3" stroke-miterlimit="10" stroke-linecap="round" stroke-linejoin="round"/>
<path d="M16.2974 15.2559L18.52 17.4785" stroke="white" stroke-width="3" stroke-miterlimit="10" stroke-linecap="round" stroke-linejoin="round"/>
<path d="M44.5244 43.4824L46.747 45.705" stroke="white" stroke-width="3" stroke-miterlimit="10" stroke-linecap="round" stroke-linejoin="round"/>
</svg>
