<svg width="132" height="124" viewBox="0 0 132 124" fill="none" xmlns="http://www.w3.org/2000/svg">
<path d="M65.6366 88.0201C64.5457 88.0201 63.641 87.1154 63.641 86.0245V58.2192C63.641 57.1283 64.5457 56.2236 65.6366 56.2236C66.7275 56.2236 67.6322 57.1283 67.6322 58.2192V86.0245C67.6322 87.1154 66.7541 88.0201 65.6366 88.0201Z" fill="#178680"/>
<path d="M65.6366 53.9078C64.5457 53.9078 63.641 53.0031 63.641 51.9122V49.0386C63.641 47.9476 64.5457 47.043 65.6366 47.043C66.7275 47.043 67.6322 47.9476 67.6322 49.0386V51.9122C67.6322 53.0297 66.7541 53.9078 65.6366 53.9078Z" fill="#178680"/>
<path d="M65.6366 44.8612C64.5457 44.8612 63.641 43.9565 63.641 42.8656V24.1869C63.641 18.6258 63.774 13.3042 65.4769 9.28645C67.4725 4.60346 71.4371 2.23535 77.2642 2.23535C88.7855 2.23535 98.2579 11.0692 99.2158 22.2977C103.792 22.75 108.129 24.8787 111.296 28.2579C112.041 29.0561 112.014 30.3333 111.216 31.0783C110.418 31.8233 109.141 31.7967 108.395 30.9985C105.495 27.912 101.557 26.1825 97.3 26.1825C96.2091 26.1825 95.3044 25.2778 95.3044 24.1869C95.3044 14.2887 87.2156 6.22654 77.2642 6.22654C68.9626 6.22654 67.6056 11.5215 67.6056 24.1869V42.8656C67.6322 43.9832 66.7541 44.8612 65.6366 44.8612Z" fill="#178680"/>
<path d="M119.358 74.609C118.959 74.609 118.586 74.5025 118.24 74.2631C117.336 73.6511 117.096 72.4005 117.708 71.4958C119.757 68.5157 120.848 65.0035 120.848 61.3582C120.848 55.4247 117.921 49.8902 113.052 46.5376C112.387 46.0853 112.067 45.287 112.227 44.4888C112.44 43.4777 112.546 42.44 112.546 41.4023C112.546 40.1251 112.387 38.8745 112.067 37.6506C111.801 36.5863 112.44 35.4953 113.504 35.2293C114.569 34.9632 115.659 35.6018 115.926 36.6661C116.325 38.2093 116.511 39.8058 116.511 41.4023C116.511 42.2804 116.458 43.1584 116.325 44.0099C121.673 48.1607 124.813 54.5466 124.813 61.3582C124.813 65.8017 123.482 70.0856 120.981 73.7309C120.609 74.2897 119.997 74.609 119.358 74.609Z" fill="#178680"/>
<path d="M109.513 94.5119C109.167 94.5119 108.848 94.432 108.529 94.2458C107.571 93.7136 107.225 92.4897 107.784 91.5318C109.061 89.2701 109.753 86.6891 109.753 84.0816C109.753 83.576 109.726 83.0971 109.673 82.6181C109.566 81.5272 110.365 80.5427 111.455 80.4363C112.546 80.3298 113.531 81.1281 113.637 82.219C113.691 82.831 113.717 83.4696 113.717 84.0816C113.717 87.3809 112.866 90.6537 111.243 93.5008C110.897 94.166 110.205 94.5119 109.513 94.5119Z" fill="#178680"/>
<path d="M77.2909 123.249C71.4637 123.249 67.4725 120.881 65.5036 116.198C63.8006 112.18 63.6676 106.858 63.6676 101.297V94.0864C63.6676 92.9955 64.5723 92.0908 65.6632 92.0908C66.7541 92.0908 67.6588 92.9955 67.6588 94.0864V101.297C67.6588 113.963 68.9892 119.257 77.3175 119.257C87.2422 119.257 95.331 111.195 95.331 101.297C95.331 101.191 95.331 101.111 95.3576 101.004C95.3842 100.047 96.076 99.2483 97.0339 99.0887C99.269 98.7162 101.344 97.8913 103.18 96.6142C104.085 96.0022 105.336 96.215 105.948 97.1197C106.56 98.0244 106.347 99.275 105.442 99.8869C103.553 101.191 101.477 102.122 99.269 102.681C98.4974 114.149 88.9451 123.249 77.2909 123.249Z" fill="#178680"/>
<path d="M108.422 56.2224C107.81 56.2224 107.198 55.9563 106.826 55.4241C106.16 54.5461 106.347 53.2955 107.251 52.6303C111.721 49.3043 112.174 44.7544 112.174 44.7278C112.28 43.6368 113.238 42.812 114.329 42.9184C115.42 43.0249 116.245 43.9827 116.138 45.0737C116.112 45.3397 115.5 51.4596 109.619 55.8233C109.273 56.0893 108.848 56.2224 108.422 56.2224Z" fill="#178680"/>
<path d="M96.5816 30.413C96.3421 30.413 96.1292 30.3864 95.8897 30.2799C94.852 29.9074 94.3199 28.7633 94.719 27.7256C95.4374 25.7832 95.3576 24.3464 95.3576 24.3198C95.2778 23.2288 96.076 22.2709 97.1935 22.1645C98.2845 22.0847 99.269 22.9095 99.3488 24.0005C99.3754 24.2399 99.5084 26.342 98.4973 29.0826C98.1514 29.934 97.4064 30.413 96.5816 30.413Z" fill="#178680"/>
<path d="M107.917 63.3541C107.73 63.3541 107.571 63.3275 107.384 63.2743C106.32 62.9816 105.708 61.8907 106.001 60.8264C106.746 58.1656 106.613 56.17 105.655 54.8928C104.271 53.0569 101.424 53.0302 101.371 53.0302C100.28 53.0302 99.3754 52.1522 99.3754 51.0347C99.3754 49.9437 100.253 49.0391 101.371 49.0391C101.557 49.0391 106.24 49.0391 108.848 52.4715C110.631 54.7864 110.976 57.9527 109.885 61.8907C109.593 62.7687 108.795 63.3541 107.917 63.3541Z" fill="#178680"/>
<path d="M65.6366 28.2312C65.3705 28.2312 65.0778 28.178 64.8117 28.045C63.8006 27.5926 63.3749 26.3953 63.8272 25.4108C65.0512 22.6968 69.7874 18.1202 78.7809 20.2489C79.8452 20.4883 80.5104 21.5793 80.2709 22.6436C80.0314 23.7079 78.9405 24.3731 77.8762 24.1336C69.7608 22.2178 67.4725 27.0339 67.4459 27.0871C67.1266 27.7789 66.4082 28.2312 65.6366 28.2312Z" fill="#178680"/>
<path d="M89.4773 44.2486C85.3797 44.2486 82.0537 40.9226 82.0537 36.825C82.0537 32.7274 85.3797 29.4014 89.4773 29.4014C93.5749 29.4014 96.9009 32.7274 96.9009 36.825C96.9009 40.9226 93.5749 44.2486 89.4773 44.2486ZM89.4773 33.3659C87.5882 33.3659 86.0449 34.9092 86.0449 36.7984C86.0449 38.6875 87.5882 40.2308 89.4773 40.2308C91.3665 40.2308 92.9097 38.6875 92.9097 36.7984C92.9097 34.9092 91.3665 33.3659 89.4773 33.3659Z" fill="#178680"/>
<path d="M82.9052 70.6705C78.8076 70.6705 75.4816 67.3445 75.4816 63.2468C75.4816 59.1492 78.8076 55.8232 82.9052 55.8232C87.0028 55.8232 90.3288 59.1492 90.3288 63.2468C90.3288 67.3445 87.0028 70.6705 82.9052 70.6705ZM82.9052 59.8144C81.016 59.8144 79.4728 61.3577 79.4728 63.2468C79.4728 65.136 81.016 66.6793 82.9052 66.6793C84.7943 66.6793 86.3376 65.136 86.3376 63.2468C86.3376 61.3577 84.7943 59.8144 82.9052 59.8144Z" fill="#178680"/>
<path d="M89.4773 97.0923C85.3797 97.0923 82.0537 93.7663 82.0537 89.6687C82.0537 85.5711 85.3797 82.2451 89.4773 82.2451C93.5749 82.2451 96.9009 85.5711 96.9009 89.6687C96.9009 93.7663 93.5749 97.0923 89.4773 97.0923ZM89.4773 86.2363C87.5882 86.2363 86.0449 87.7796 86.0449 89.6687C86.0449 91.5579 87.5882 93.1011 89.4773 93.1011C91.3665 93.1011 92.9097 91.5579 92.9097 89.6687C92.9097 87.7796 91.3665 86.2363 89.4773 86.2363Z" fill="#178680"/>
<path d="M129.203 62.3426C128.112 62.3426 127.207 61.438 127.207 60.3471V49.5709C127.207 43.6373 122.391 38.8213 116.458 38.8213H94.8788C93.7878 38.8213 92.8832 37.9166 92.8832 36.8257C92.8832 35.7347 93.7878 34.8301 94.8788 34.8301H116.458C124.573 34.8301 131.199 41.4288 131.199 49.5709V60.3471C131.199 61.438 130.32 62.3426 129.203 62.3426Z" fill="#178680"/>
<path d="M123.775 102.148C122.684 102.148 121.779 101.244 121.779 100.153V91.8245C121.779 86.4763 118.64 81.5804 113.744 79.372L87.0029 67.2654C85.9918 66.813 85.566 65.6157 86.0184 64.6312C86.4707 63.6201 87.6415 63.1678 88.6526 63.6467L115.393 75.7533C121.7 78.6003 125.771 84.9064 125.771 91.8245V100.153C125.771 101.27 124.893 102.148 123.775 102.148Z" fill="#178680"/>
<path d="M115.66 121.013C114.569 121.013 113.664 120.108 113.664 119.017V113.323C113.664 108.347 110.95 103.744 106.586 101.349L93.2557 94.0322C92.2978 93.5001 91.9253 92.2761 92.4575 91.3182C92.9896 90.3603 94.2136 89.9878 95.1715 90.52L108.502 97.8371C114.143 100.95 117.655 106.857 117.655 113.296V118.99C117.655 120.135 116.777 121.013 115.66 121.013Z" fill="#178680"/>
<path d="M93.3888 103.452C92.3777 103.452 91.4996 102.681 91.3932 101.67C91.2868 100.579 92.085 99.5942 93.1759 99.4877L97.0873 99.0886C98.1782 98.9822 99.1627 99.7804 99.2691 100.871C99.3756 101.962 98.5773 102.947 97.4864 103.053L93.575 103.452C93.5218 103.452 93.4686 103.452 93.3888 103.452Z" fill="#178680"/>
<path d="M21.441 29.4017C20.9621 29.4017 20.4565 29.2155 20.084 28.8696C19.2858 28.1246 19.2326 26.8474 20.0042 26.0491C23.1705 22.6699 27.5076 20.5413 32.0842 20.089C33.0421 8.83382 42.5145 0 54.0091 0C59.8362 0 63.8008 2.3681 65.7964 7.0777C67.4993 11.0955 67.6323 16.4171 67.6323 21.9781C67.6323 23.0691 66.7277 23.9737 65.6367 23.9737C64.5458 23.9737 63.6412 23.0691 63.6412 21.9781C63.6412 9.31277 62.3108 4.01779 54.0091 4.01779C44.0577 4.01779 35.9689 12.08 35.9689 21.9781C35.9689 23.0691 35.0643 23.9737 33.9733 23.9737C29.7161 23.9737 25.7781 25.6766 22.8778 28.7898C22.5053 29.1889 21.9732 29.4017 21.441 29.4017Z" fill="#178680"/>
<path d="M11.9419 72.3736C11.3033 72.3736 10.6914 72.0809 10.2922 71.4955C7.79109 67.8503 6.4873 63.5664 6.4873 59.1229C6.4873 52.3112 9.62704 45.9253 14.9752 41.7745C14.8688 40.8965 14.789 40.0184 14.789 39.1669C14.789 37.5705 14.9752 35.974 15.3743 34.4307C15.6404 33.3664 16.7313 32.7278 17.7957 32.9939C18.86 33.26 19.4986 34.3509 19.2325 35.4152C18.9132 36.6392 18.7535 37.8898 18.7535 39.1669C18.7535 40.2046 18.86 41.2424 19.0728 42.2535C19.2325 43.0517 18.9132 43.8499 18.248 44.3023C13.3788 47.6549 10.4785 53.1893 10.4785 59.1229C10.4785 62.7681 11.5694 66.2538 13.6182 69.2605C14.2302 70.1651 14.0173 71.4157 13.0861 72.0277C12.7402 72.2672 12.341 72.3736 11.9419 72.3736Z" fill="#178680"/>
<path d="M21.7868 92.303C21.095 92.303 20.4032 91.9305 20.0573 91.2919C18.4342 88.4182 17.5828 85.1721 17.5828 81.8727C17.5828 81.2607 17.6094 80.6221 17.6626 80.0102C17.769 78.9192 18.7535 78.121 19.8444 78.2008C20.9354 78.3072 21.7336 79.2917 21.6538 80.3827C21.6006 80.8616 21.5739 81.3672 21.5739 81.8727C21.5739 84.4803 22.2391 87.0612 23.5429 89.3229C24.0751 90.2808 23.7558 91.5048 22.7979 92.0369C22.452 92.1966 22.1327 92.303 21.7868 92.303Z" fill="#178680"/>
<path d="M54.0091 121.013C42.3548 121.013 32.7759 111.913 32.0575 100.472C29.8491 99.913 27.7737 98.9818 25.8845 97.678C24.9798 97.066 24.7404 95.8154 25.379 94.9108C25.9909 94.0061 27.2415 93.7666 28.1462 94.4052C30.0087 95.6824 32.0841 96.5072 34.3192 96.8797C35.2771 97.0394 35.9689 97.8376 35.9955 98.7955C35.9955 98.9019 36.0221 98.9818 36.0221 99.0882C36.0221 108.986 44.1109 117.049 54.0357 117.049C62.3107 117.049 63.6677 111.754 63.6677 99.0882C63.6677 97.9973 64.5724 97.0926 65.6633 97.0926C66.7542 97.0926 67.6589 97.9973 67.6589 99.0882C67.6589 104.649 67.5259 109.971 65.823 113.989C63.8274 118.618 59.8628 121.013 54.0091 121.013Z" fill="#178680"/>
<path d="M22.8779 53.987C22.4522 53.987 22.053 53.854 21.6805 53.5879C15.8002 49.2242 15.1882 43.0778 15.1616 42.8383C15.0552 41.7474 15.88 40.7629 16.9709 40.6831C18.0619 40.5766 19.0197 41.4015 19.1262 42.4924C19.1528 42.7053 19.6583 47.1488 24.0486 50.4216C24.9267 51.0868 25.113 52.3373 24.4744 53.2154C24.0752 53.6943 23.4899 53.987 22.8779 53.987Z" fill="#178680"/>
<path d="M34.7184 28.1781C33.8936 28.1781 33.1485 27.6726 32.8558 26.8743C31.8447 24.1071 31.9778 22.0051 32.0044 21.7922C32.0842 20.7013 33.0687 19.8765 34.1596 19.9829C35.2506 20.0627 36.0754 21.0206 35.9956 22.1115C35.9956 22.1647 35.9158 23.6016 36.6342 25.5173C37.0067 26.555 36.4745 27.6992 35.4634 28.0717C35.1973 28.1515 34.9579 28.1781 34.7184 28.1781Z" fill="#178680"/>
<path d="M23.3834 61.1188C22.5054 61.1188 21.7071 60.5334 21.4677 59.6553C20.3767 55.7174 20.7226 52.551 22.5054 50.2361C25.1129 46.8303 29.7959 46.8037 29.9822 46.8037C31.0731 46.8037 31.9778 47.7084 31.9778 48.7993C31.9778 49.8902 31.0731 50.7949 29.9822 50.7949C29.9024 50.7949 27.0553 50.8481 25.6717 52.6841C24.7138 53.9612 24.5808 55.9568 25.3258 58.591C25.6185 59.6553 25.0065 60.7463 23.9422 61.0389C23.7559 61.0922 23.5697 61.1188 23.3834 61.1188Z" fill="#178680"/>
<path d="M63.8274 24.8521C63.721 24.6658 61.3795 20.0095 53.4237 21.8986C52.3594 22.1381 51.2685 21.4729 51.029 20.4086C50.7895 19.3443 51.4547 18.2533 52.5191 18.0139C58.2664 16.6569 61.9915 18.0671 64.0935 19.4773C66.435 21.0472 67.3663 22.9895 67.4727 23.2024L63.8274 24.8521Z" fill="#178680"/>
<path d="M41.8227 42.0142C37.725 42.0142 34.399 38.6882 34.399 34.5906C34.399 30.493 37.725 27.167 41.8227 27.167C45.9203 27.167 49.2463 30.493 49.2463 34.5906C49.2729 38.6882 45.9203 42.0142 41.8227 42.0142ZM41.8227 31.1582C39.9335 31.1582 38.3902 32.7014 38.3902 34.5906C38.3902 36.4798 39.9335 38.023 41.8227 38.023C43.7118 38.023 45.2551 36.4798 45.2551 34.5906C45.2817 32.7014 43.7384 31.1582 41.8227 31.1582Z" fill="#178680"/>
<path d="M48.3948 68.4361C44.2972 68.4361 40.9712 65.1101 40.9712 61.0125C40.9712 56.9149 44.2972 53.5889 48.3948 53.5889C52.4924 53.5889 55.8184 56.9149 55.8184 61.0125C55.845 65.1101 52.4924 68.4361 48.3948 68.4361ZM48.3948 57.5801C46.5056 57.5801 44.9624 59.1233 44.9624 61.0125C44.9624 62.9016 46.5056 64.4449 48.3948 64.4449C50.284 64.4449 51.8272 62.9016 51.8272 61.0125C51.8538 59.1233 50.3106 57.5801 48.3948 57.5801Z" fill="#178680"/>
<path d="M41.8227 94.8843C37.725 94.8843 34.399 91.5583 34.399 87.4607C34.399 83.3631 37.725 80.0371 41.8227 80.0371C45.9203 80.0371 49.2463 83.3631 49.2463 87.4607C49.2729 91.5317 45.9203 94.8843 41.8227 94.8843ZM41.8227 84.0017C39.9335 84.0017 38.3902 85.545 38.3902 87.4341C38.3902 89.3233 39.9335 90.8665 41.8227 90.8665C43.7118 90.8665 45.2551 89.3233 45.2551 87.4341C45.2817 85.545 43.7384 84.0017 41.8227 84.0017Z" fill="#178680"/>
<path d="M2.09703 60.1073C1.00611 60.1073 0.10144 59.2026 0.10144 58.1117V47.3355C0.10144 39.2201 6.7002 32.5947 14.8422 32.5947H36.4212C37.5122 32.5947 38.4168 33.4994 38.4168 34.5903C38.4168 35.6812 37.5122 36.5859 36.4212 36.5859H14.8422C8.90866 36.5859 4.09263 41.4019 4.09263 47.3355V58.1117C4.09263 59.2026 3.18796 60.1073 2.09703 60.1073Z" fill="#178680"/>
<path d="M7.52501 99.9129C6.43409 99.9129 5.52942 99.0083 5.52942 97.9173V89.5891C5.52942 82.671 9.60043 76.3649 15.9065 73.5179L42.6474 61.4113C43.6585 60.959 44.8293 61.4113 45.2816 62.3958C45.734 63.4069 45.2816 64.5776 44.2971 65.03L17.5562 77.1632C12.6869 79.3716 9.5206 84.2409 9.5206 89.6157V97.9173C9.5206 99.0349 8.61594 99.9129 7.52501 99.9129Z" fill="#178680"/>
<path d="M15.6405 118.778C14.5496 118.778 13.6449 117.873 13.6449 116.782V111.088C13.6449 104.649 17.1571 98.7152 22.798 95.6287L36.1286 88.3115C37.0865 87.7793 38.3104 88.1252 38.8426 89.1097C39.3747 90.0676 39.0288 91.2916 38.0443 91.8238L24.7138 99.1409C20.3501 101.536 17.6361 106.139 17.6361 111.114V116.809C17.6361 117.899 16.758 118.778 15.6405 118.778Z" fill="#178680"/>
<path d="M37.9112 101.217C37.8314 101.217 37.7782 101.217 37.6984 101.217L33.787 100.818C32.6961 100.711 31.8978 99.7269 32.0043 98.636C32.1107 97.5451 33.0952 96.7468 34.1861 96.8533L38.0975 97.2524C39.1884 97.3588 39.9866 98.3433 39.8802 99.4342C39.8004 100.445 38.9223 101.217 37.9112 101.217Z" fill="#178680"/>
</svg>
