<svg width="144" height="130" viewBox="0 0 144 130" fill="none" xmlns="http://www.w3.org/2000/svg">
<path d="M29.9691 90.6524C24.3605 90.6524 19.3685 89.6247 15.1694 87.5985C10.1481 85.1906 6.27196 81.432 3.62915 76.4106C0.927614 71.3012 -0.305696 65.0172 0.134772 58.7038C0.51651 52.9778 2.27838 47.8096 4.8331 44.8731C5.62594 43.9628 7.03543 43.8748 7.94573 44.6676C8.85603 45.4604 8.94413 46.8699 8.15129 47.7802C6.24259 49.9532 4.8331 54.2698 4.51009 58.9975C4.12835 64.518 5.18547 69.9798 7.50527 74.3551C11.6163 82.1954 19.3392 86.2478 29.9691 86.2478C31.7604 86.2478 33.6103 86.1303 35.5777 85.8954C36.7817 85.7486 37.8682 86.6295 38.015 87.8334C38.1618 89.0374 37.2809 90.1239 36.0769 90.2707C33.9921 90.5056 31.9365 90.6524 29.9691 90.6524Z" fill="#178680"/>
<path d="M8.94411 51.1284C8.38619 51.1284 7.82826 50.9229 7.3878 50.4824C4.6569 47.7809 3.1593 44.169 3.12994 40.3516C3.10058 36.5049 4.59817 32.8931 7.2997 30.1622C10.0012 27.4313 13.6131 25.9337 17.4305 25.9043C17.4598 25.9043 17.4892 25.9043 17.4892 25.9043C21.3066 25.9043 24.889 27.3725 27.5906 30.0741C28.4422 30.9256 28.4715 32.3351 27.5906 33.1867C26.739 34.0383 25.3295 34.0676 24.4779 33.1867C22.5986 31.3367 20.1026 30.309 17.4598 30.309C17.4305 30.309 17.4305 30.309 17.4011 30.309C14.7289 30.309 12.2329 31.3661 10.383 33.2454C8.50365 35.1248 7.47589 37.6501 7.50525 40.2929C7.50525 42.9651 8.56238 45.4611 10.4417 47.311C11.2933 48.1626 11.3226 49.5721 10.4417 50.4237C10.0893 50.8935 9.50204 51.1284 8.94411 51.1284Z" fill="#178680"/>
<path d="M95.3051 19.5613C95.1289 19.5613 94.9528 19.5319 94.7766 19.5025C93.602 19.2089 92.8679 18.0049 93.1909 16.8304C93.8369 14.2463 93.4552 11.5741 92.075 9.28367C90.7243 6.99324 88.5513 5.37819 85.9672 4.73217C83.3831 4.08615 80.711 4.46789 78.4205 5.84803C76.1301 7.19879 74.515 9.40113 73.869 11.9558C73.5754 13.1304 72.3714 13.8645 71.1969 13.5415C70.0223 13.2479 69.2882 12.0439 69.6112 10.8694C70.5508 7.14006 72.8706 4.02743 76.1595 2.03064C79.4483 0.063215 83.3244 -0.494711 87.0537 0.444954C90.783 1.38462 93.8956 3.70442 95.8924 6.99324C97.8598 10.2821 98.4178 14.1582 97.4781 17.8875C97.1845 18.8859 96.3035 19.5613 95.3051 19.5613Z" fill="#178680"/>
<path d="M132.481 62.7264C131.659 62.7264 130.866 62.2565 130.484 61.4637C129.985 60.3478 130.455 59.0558 131.541 58.5272C136.533 56.2074 138.677 50.2758 136.386 45.2838C135.27 42.8759 133.274 41.026 130.778 40.1157C128.282 39.2054 125.58 39.3228 123.172 40.4387C122.056 40.9379 120.764 40.468 120.236 39.3816C119.737 38.2657 120.206 36.9737 121.293 36.4451C124.787 34.8301 128.663 34.6539 132.275 35.9753C135.887 37.2967 138.765 39.9395 140.38 43.4045C143.727 50.5988 140.585 59.1439 133.42 62.4914C133.097 62.6383 132.774 62.7264 132.481 62.7264Z" fill="#178680"/>
<path d="M133.332 86.9237C132.628 86.9237 131.952 86.6007 131.512 85.9547C130.836 84.9563 131.071 83.5761 132.099 82.9008C139.881 77.5858 141.877 66.9558 136.562 59.1742C135.887 58.1758 136.122 56.7957 137.15 56.1203C138.148 55.4449 139.528 55.6799 140.204 56.7076C146.869 66.486 144.373 79.8762 134.595 86.542C134.184 86.8062 133.773 86.9237 133.332 86.9237Z" fill="#178680"/>
<path d="M127.254 38.6186C126.167 38.6186 125.228 37.8257 125.081 36.7099C123.642 26.1386 115.361 19.5023 110.545 16.4777C107.491 14.569 104.085 12.9833 100.973 12.0143C97.7424 11.0159 96.098 11.104 95.775 11.1921C94.6298 11.5738 93.3671 10.9278 92.9854 9.78261C92.6036 8.63739 93.2496 7.37472 94.3949 6.99298C97.8305 5.87713 105.964 8.37311 112.865 12.7191C122.321 18.6507 128.193 26.9609 129.456 36.1226C129.632 37.3265 128.781 38.4424 127.577 38.5892C127.459 38.6186 127.342 38.6186 127.254 38.6186Z" fill="#178680"/>
<path d="M57.836 103.661C44.9156 103.661 34.3738 94.2641 34.3738 82.6945C34.3738 81.4906 35.3722 80.4922 36.5761 80.4922C37.7801 80.4922 38.7785 81.4906 38.7785 82.6945C38.7785 91.8269 47.3235 99.2561 57.836 99.2561C63.2685 99.2561 68.466 97.23 72.0778 93.6769C72.9588 92.8253 74.3389 92.8253 75.1905 93.7062C76.042 94.5872 76.042 95.9673 75.1611 96.8189C70.7271 101.165 64.4137 103.661 57.836 103.661Z" fill="#178680"/>
<path d="M88.9331 99.4918C79.7126 99.4918 73.5461 96.9371 73.2524 96.8196C72.1366 96.3498 71.608 95.0577 72.0779 93.9419C72.5477 92.826 73.8397 92.2975 74.9556 92.7673C75.073 92.826 81.915 95.5863 91.6053 95.0284C92.8092 94.9697 93.8663 95.88 93.9251 97.0839C93.9838 98.2878 93.0735 99.345 91.8695 99.4037C90.8418 99.4624 89.8728 99.4918 88.9331 99.4918Z" fill="#178680"/>
<path d="M112.454 105.1C111.309 105.1 110.369 104.219 110.252 103.074C110.164 101.87 111.045 100.813 112.278 100.696C127.841 99.4331 131.159 84.4278 131.189 84.281C131.423 83.077 132.598 82.3429 133.802 82.5778C135.006 82.8127 135.769 83.9873 135.505 85.1913C135.476 85.3675 134.507 89.8602 131.218 94.5585C128.164 98.9339 122.467 104.308 112.63 105.1C112.571 105.1 112.513 105.1 112.454 105.1Z" fill="#178680"/>
<path d="M120.999 129.296C119.971 129.296 119.032 128.562 118.826 127.505C117.446 120.105 108.96 113.351 97.2432 110.268C84.3815 106.891 82.972 97.9933 82.9427 97.6115C82.7665 96.4076 83.618 95.2917 84.822 95.1156C86.0259 94.9394 87.1124 95.7616 87.318 96.9655C87.3767 97.2885 88.5513 103.426 98.3884 106.01C111.749 109.504 121.469 117.638 123.172 126.682C123.407 127.886 122.614 129.032 121.41 129.266C121.263 129.266 121.117 129.296 120.999 129.296Z" fill="#178680"/>
<path d="M128.986 127.71H128.957C127.753 127.681 126.784 126.683 126.784 125.479C127.048 112.5 117.006 104.718 116.888 104.659C115.919 103.925 115.714 102.545 116.448 101.576C117.182 100.607 118.562 100.401 119.531 101.136C120.03 101.488 131.453 110.268 131.159 125.567C131.189 126.741 130.19 127.71 128.986 127.71Z" fill="#178680"/>
<path d="M15.698 30.3084C15.6686 30.3084 15.6686 30.3084 15.6393 30.3084C14.4353 30.2791 13.4663 29.2513 13.4956 28.0474C13.4956 27.695 13.8187 19.1499 20.3963 13.4238C25.0359 9.40091 31.4961 7.84459 39.6301 8.75489C40.834 8.90171 41.7149 9.9882 41.5681 11.1921C41.4213 12.3961 40.3348 13.277 39.1309 13.1302C32.2889 12.3374 26.974 13.5707 23.3034 16.742C18.1646 21.2348 17.9003 28.1061 17.9003 28.1648C17.871 29.3688 16.9019 30.3084 15.698 30.3084Z" fill="#178680"/>
<path d="M36.5762 17.1823C36.2825 17.1823 35.9595 17.1236 35.6659 16.9767C34.55 16.4775 34.0802 15.1561 34.5794 14.0697C34.6675 13.8347 37.1341 8.57849 43.5943 4.67301C54.1362 -1.72846 66.9978 0.444517 75.9246 3.38097C77.0699 3.76271 77.7159 4.99602 77.3341 6.1706C76.9524 7.31581 75.7191 7.96183 74.5445 7.58009C63.0043 3.76271 53.079 4.08572 45.8847 8.43167C40.5991 11.6324 38.6023 15.8609 38.6023 15.8903C38.1912 16.7125 37.3984 17.1823 36.5762 17.1823Z" fill="#178680"/>
<path d="M22.8629 78.2608C19.7209 78.2608 17.1368 75.706 17.1368 72.5347C17.1368 69.3927 19.6916 66.8086 22.8629 66.8086C26.0343 66.8086 28.589 69.3633 28.589 72.5347C28.5596 75.706 26.0049 78.2608 22.8629 78.2608ZM22.8629 71.2426C22.1288 71.2426 21.5415 71.8299 21.5415 72.564C21.5415 73.2982 22.1288 73.8854 22.8629 73.8854C23.597 73.8854 24.1843 73.2982 24.1843 72.564C24.1843 71.8299 23.5677 71.2426 22.8629 71.2426Z" fill="#178680"/>
<path d="M50.1132 82.7832C46.9712 82.7832 44.3871 80.2285 44.3871 77.0571C44.3871 73.9151 46.9418 71.3311 50.1132 71.3311C53.2552 71.3311 55.8392 73.8858 55.8392 77.0571C55.8392 80.1991 53.2845 82.7832 50.1132 82.7832ZM50.1132 75.7357C49.3791 75.7357 48.7918 76.323 48.7918 77.0571C48.7918 77.7912 49.3791 78.3785 50.1132 78.3785C50.8473 78.3785 51.4346 77.7912 51.4346 77.0571C51.4346 76.323 50.8473 75.7357 50.1132 75.7357Z" fill="#178680"/>
<path d="M117.064 70.0684C113.922 70.0684 111.338 67.5137 111.338 64.3423C111.338 61.2003 113.893 58.6162 117.064 58.6162C120.206 58.6162 122.79 61.1709 122.79 64.3423C122.761 67.5137 120.206 70.0684 117.064 70.0684ZM117.064 63.0503C116.33 63.0503 115.743 63.6375 115.743 64.3717C115.743 65.1058 116.33 65.6931 117.064 65.6931C117.798 65.6931 118.386 65.1058 118.386 64.3717C118.356 63.6375 117.769 63.0503 117.064 63.0503Z" fill="#178680"/>
<path d="M30.997 46.7236C27.855 46.7236 25.2709 44.1689 25.2709 40.9976C25.2709 37.8556 27.8256 35.2715 30.997 35.2715C34.1683 35.2715 36.723 37.8262 36.723 40.9976C36.6937 44.1396 34.139 46.7236 30.997 46.7236ZM30.997 39.6762C30.2628 39.6762 29.6756 40.2635 29.6756 40.9976C29.6756 41.7317 30.2628 42.319 30.997 42.319C31.7311 42.319 32.3184 41.7317 32.3184 40.9976C32.3184 40.2635 31.7017 39.6762 30.997 39.6762Z" fill="#178680"/>
<path d="M54.5178 24.4356C51.3758 24.4356 48.7917 21.8808 48.7917 18.7095C48.7917 15.5675 51.3465 12.9834 54.5178 12.9834C57.6598 12.9834 60.2439 15.5381 60.2439 18.7095C60.2439 21.8808 57.6598 24.4356 54.5178 24.4356ZM54.5178 17.4174C53.7837 17.4174 53.1964 18.0047 53.1964 18.7388C53.1964 19.473 53.7837 20.0602 54.5178 20.0602C55.2519 20.0602 55.8392 19.473 55.8392 18.7388C55.8392 18.0047 55.2519 17.4174 54.5178 17.4174Z" fill="#178680"/>
<path d="M50.9941 40.3809C47.8521 40.3809 45.2681 37.8262 45.2681 34.6548C45.2681 31.4834 47.8228 28.9287 50.9941 28.9287C54.1362 28.9287 56.7202 31.4834 56.7202 34.6548C56.7202 37.8262 54.1655 40.3809 50.9941 40.3809ZM50.9941 33.3628C50.26 33.3628 49.6727 33.95 49.6727 34.6842C49.6727 35.4183 50.26 36.0056 50.9941 36.0056C51.7283 36.0056 52.3156 35.4183 52.3156 34.6842C52.3156 33.95 51.7283 33.3628 50.9941 33.3628Z" fill="#178680"/>
<path d="M29.5874 60.7901C26.4454 60.7901 23.8613 58.2353 23.8613 55.064C23.8613 51.922 26.416 49.3379 29.5874 49.3379C32.7588 49.3379 35.3135 51.8926 35.3135 55.064C35.2841 58.206 32.7294 60.7901 29.5874 60.7901ZM29.5874 53.7426C28.8533 53.7426 28.266 54.3299 28.266 55.064C28.266 55.7981 28.8533 56.3854 29.5874 56.3854C30.3215 56.3854 30.9088 55.7981 30.9088 55.064C30.9088 54.3299 30.2922 53.7426 29.5874 53.7426Z" fill="#178680"/>
<path d="M68.5541 88.4219C65.4121 88.4219 62.828 85.8672 62.828 82.6958C62.828 79.5244 65.3827 76.9697 68.5541 76.9697C71.6961 76.9697 74.2802 79.5244 74.2802 82.6958C74.2802 85.8672 71.6961 88.4219 68.5541 88.4219ZM68.5541 81.4038C67.82 81.4038 67.2327 81.9911 67.2327 82.7252C67.2327 83.4593 67.82 84.0466 68.5541 84.0466C69.2882 84.0466 69.8755 83.4593 69.8755 82.7252C69.8755 81.9911 69.2588 81.4038 68.5541 81.4038Z" fill="#178680"/>
<path d="M117.064 87.1006C113.922 87.1006 111.338 84.5459 111.338 81.3745C111.338 78.2032 113.893 75.6484 117.064 75.6484C120.206 75.6484 122.79 78.2032 122.79 81.3745C122.79 84.5459 120.206 87.1006 117.064 87.1006ZM117.064 80.0531C116.33 80.0531 115.743 80.6404 115.743 81.3745C115.743 82.1086 116.33 82.6959 117.064 82.6959C117.798 82.6959 118.386 82.1086 118.386 81.3745C118.386 80.6404 117.769 80.0531 117.064 80.0531Z" fill="#178680"/>
<path d="M77.5984 35.2715C74.4564 35.2715 71.8723 32.7168 71.8723 29.5454C71.8723 26.374 74.427 23.8193 77.5984 23.8193C80.7698 23.8193 83.3245 26.374 83.3245 29.5454C83.3245 32.7168 80.7698 35.2715 77.5984 35.2715ZM77.5984 28.2534C76.8643 28.2534 76.277 28.8407 76.277 29.5748C76.277 30.3089 76.8643 30.8962 77.5984 30.8962C78.3325 30.8962 78.9198 30.3089 78.9198 29.5748C78.9198 28.8407 78.3325 28.2534 77.5984 28.2534Z" fill="#178680"/>
<path d="M104.261 38.7949C101.119 38.7949 98.5353 36.2402 98.5353 33.0689C98.5353 29.8975 101.09 27.3428 104.261 27.3428C107.403 27.3428 109.987 29.8975 109.987 33.0689C109.987 36.2402 107.403 38.7949 104.261 38.7949ZM104.261 31.7768C103.527 31.7768 102.94 32.3641 102.94 33.0982C102.94 33.8323 103.527 34.4196 104.261 34.4196C104.995 34.4196 105.583 33.8323 105.583 33.0982C105.553 32.3641 104.966 31.7768 104.261 31.7768Z" fill="#178680"/>
<path d="M109.547 96.8787C108.842 96.8787 108.167 96.5557 107.726 95.9391C107.668 95.851 100.738 86.0726 84.3523 80.0529C76.0715 76.9989 69.2883 70.3919 62.0646 63.4032C53.7251 55.2986 45.0919 46.9297 33.8159 44.052C32.6414 43.7583 31.9366 42.5544 32.2303 41.3798C32.5239 40.2052 33.7278 39.5005 34.9024 39.7941C47.3236 42.9655 56.3679 51.7455 65.1479 60.2318C72.0192 66.8976 78.5087 73.1816 85.8792 75.9125C103.674 82.4608 111.045 93.0026 111.368 93.4431C112.043 94.4415 111.808 95.8216 110.81 96.497C110.428 96.7613 109.988 96.8787 109.547 96.8787Z" fill="#178680"/>
<path d="M82.9134 79.26C82.5023 79.26 82.0618 79.1425 81.6801 78.8782C71.2557 71.8895 73.2525 63.6381 75.0143 56.3557C75.5135 54.3295 76.0127 52.2446 76.2476 50.2185C77.2754 41.2917 75.4842 33.6569 75.4842 33.5688C75.1905 32.3942 75.9246 31.1903 77.1286 30.926C78.3032 30.6323 79.5071 31.3664 79.7714 32.5704C79.8595 32.9228 81.7388 41.0274 80.623 50.747C80.3587 53.0375 79.8301 55.2692 79.3016 57.4128C77.5984 64.4309 76.277 69.9514 84.1467 75.237C85.1451 75.9124 85.4387 77.2926 84.7634 78.2909C84.3229 78.9076 83.6181 79.26 82.9134 79.26Z" fill="#178680"/>
<path d="M92.7799 83.5758C92.4568 83.5758 92.1338 83.5171 91.8108 83.3409C86.5546 80.7862 83.207 77.2918 81.8856 73.0046C80.3293 67.9245 81.5626 61.9929 85.6736 54.8573C86.6133 53.2422 87.3768 51.3629 87.9347 49.3074C88.2577 48.1328 89.4617 47.4574 90.6362 47.7511C91.8108 48.0741 92.4862 49.278 92.1926 50.4526C91.5172 52.8899 90.6363 55.0922 89.491 57.0303C86.026 63.05 84.9102 67.8364 86.0847 71.6832C87.0244 74.7664 89.6085 77.3505 93.7195 79.3473C94.806 79.8759 95.2758 81.1973 94.7473 82.2838C94.3949 83.1353 93.6021 83.5758 92.7799 83.5758Z" fill="#178680"/>
<path d="M91.1647 46.2538C91.0767 46.2538 91.0179 46.2538 90.9298 46.2538C89.7259 46.1363 88.845 45.0498 88.9624 43.8459C89.168 41.8197 89.2561 39.6468 89.168 37.4151C89.1386 36.2111 90.0783 35.1834 91.3116 35.154C92.5449 35.1246 93.5433 36.0643 93.5726 37.2976C93.6607 39.7349 93.5726 42.084 93.3377 44.3157C93.2496 45.4022 92.2806 46.2538 91.1647 46.2538Z" fill="#178680"/>
<path d="M90.8417 33.1581C89.7552 33.1581 88.8156 32.3653 88.6687 31.2788C88.5513 30.486 88.4632 30.0161 88.4632 30.0161C88.2283 28.8122 88.9917 27.667 90.1957 27.4321C91.3996 27.1971 92.5449 27.9606 92.7798 29.1646C92.7798 29.1939 92.8972 29.7225 93.0441 30.6622C93.2202 31.8661 92.398 32.982 91.1941 33.1581C91.0473 33.1288 90.9298 33.1581 90.8417 33.1581Z" fill="#178680"/>
<path d="M98.0948 86.6302C97.5075 86.6302 96.9202 86.3953 96.4798 85.9255C86.7307 75.3249 90.8712 68.5711 97.1552 58.3522C97.7131 57.4419 98.271 56.5022 98.8877 55.5332C105.465 44.6683 102.323 37.5915 102.294 37.5034C101.795 36.3875 102.265 35.0955 103.38 34.5669C104.496 34.0677 105.788 34.5376 106.317 35.6534C106.493 36.0352 110.457 44.962 102.705 57.7943C102.118 58.7927 101.53 59.7323 100.973 60.6426C94.8354 70.6559 92.2806 74.7963 99.798 82.9303C100.62 83.8112 100.561 85.2207 99.6805 86.0429C99.1519 86.4247 98.6234 86.6302 98.0948 86.6302Z" fill="#178680"/>
<path d="M26.0636 72.4475C25.3883 72.4475 24.7129 72.1245 24.2724 71.5372C23.5677 70.5682 23.7732 69.1881 24.7422 68.454C25.0065 68.2778 31.0262 63.9025 39.6594 61.3184C51.3171 57.824 62.1233 59.3216 70.9326 65.5762C71.931 66.281 72.1659 67.6611 71.4612 68.6595C70.7564 69.6579 69.3763 69.8928 68.3779 69.1881C60.6257 63.6675 51.4346 62.4342 41.0395 65.5175C33.0818 67.8667 27.385 71.9777 27.3263 72.0364C26.9739 72.3007 26.5335 72.4475 26.0636 72.4475Z" fill="#178680"/>
<path d="M52.1394 76.3823C51.8752 76.3823 51.6109 76.3236 51.376 76.2355C50.2307 75.795 49.6728 74.5617 50.0839 73.4165C50.172 73.1816 52.1982 67.896 57.8655 65.8111C60.7432 64.7539 63.9733 64.7246 67.4971 65.6936C63.5329 59.2921 62.5932 56.4144 63.6797 43.7877C65.0892 27.5491 56.9552 23.0857 56.8671 23.027C55.7806 22.469 55.3695 21.1183 55.9275 20.0611C56.4854 18.9747 57.8361 18.5636 58.8933 19.1215C59.3337 19.3564 69.6994 25.0237 68.0256 44.1401C66.9392 56.5906 67.9082 58.0882 71.9018 64.4603C72.7533 65.8111 73.7224 67.3674 74.8382 69.2467C75.3374 70.0983 75.2199 71.1848 74.5152 71.8895C73.8104 72.5943 72.724 72.7705 71.8724 72.2713C66.9098 69.511 62.7107 68.7182 59.4218 69.8927C55.6632 71.2435 54.2243 74.9141 54.1949 74.9434C53.8426 75.8244 53.0204 76.3823 52.1394 76.3823Z" fill="#178680"/>
<path d="M106.346 93.237C105.788 93.237 105.26 93.0315 104.819 92.6204C99.2107 87.276 99.5337 84.1634 100.561 79.5238C100.914 77.85 101.325 75.9413 101.413 73.4747C101.501 70.4208 102.558 67.9542 104.584 66.1923C108.255 62.9622 113.746 63.4321 113.981 63.4321C115.185 63.5495 116.095 64.6066 115.978 65.84C115.86 67.0439 114.803 67.9248 113.599 67.8367C113.511 67.8367 109.723 67.5431 107.521 69.5105C106.464 70.4502 105.906 71.8009 105.847 73.6215C105.759 76.4993 105.289 78.7016 104.907 80.4635C104.115 84.1634 103.792 85.5435 107.903 89.449C108.784 90.3006 108.813 91.6807 107.991 92.5617C107.521 93.0021 106.934 93.237 106.346 93.237Z" fill="#178680"/>
<path d="M63.1804 63.8727C62.6518 63.8727 62.1233 63.6965 61.7122 63.3148C54.4298 56.7078 39.8943 56.5609 39.7475 56.5609C38.5436 56.5609 37.5452 55.5625 37.5452 54.3586C37.5452 53.1546 38.5436 52.1562 39.7475 52.1562C40.4229 52.1562 56.1035 52.2737 64.6486 60.0553C65.5589 60.8775 65.6176 62.2576 64.7954 63.1679C64.3843 63.6378 63.7677 63.8727 63.1804 63.8727Z" fill="#178680"/>
<path d="M65.7938 66.1339C64.8541 66.1339 63.9732 65.5172 63.6796 64.5775C61.2129 56.4729 54.6646 44.9327 54.6059 44.8152C54.0186 43.7581 54.371 42.4073 55.4281 41.82C56.4852 41.2327 57.836 41.5851 58.4233 42.6422C58.6876 43.1414 65.2652 54.7111 67.8787 63.2855C68.2311 64.4601 67.585 65.6934 66.4105 66.0458C66.2343 66.1045 65.9993 66.1339 65.7938 66.1339Z" fill="#178680"/>
</svg>
