<svg width="55" height="77" viewBox="0 0 55 77" fill="none" xmlns="http://www.w3.org/2000/svg">
<path d="M26.7507 0C27.2452 0 27.7398 0 28.2493 0C28.4142 0.0449591 28.579 0.104905 28.7439 0.149864C30.9319 0.719346 32.4455 2.03815 33.1199 4.21117C33.2698 4.70572 33.4946 4.81063 33.9441 4.79564C35.6826 4.78065 37.421 4.79564 39.1744 4.78065C39.9537 4.78065 40.6131 5.02044 41.1975 5.55995C41.4373 5.78474 41.812 5.96458 42.1267 5.96458C44.7343 5.99455 47.3569 5.97956 49.9646 5.97956C51.658 5.97956 53.1117 6.56403 54.0559 8.00273C54.5055 8.67711 54.7003 9.53134 55 10.3106C55 30.9469 55 51.5981 55 72.2343C53.906 75.7411 52.752 76.5654 48.9905 76.5654C34.4237 76.5654 19.8569 76.5654 5.2752 76.5654C1.91826 76.5804 0 74.6621 0 71.2902C0 51.2834 0 31.2616 0 11.2548C0 7.92779 1.93324 5.99455 5.23025 5.99455C7.77793 5.99455 10.3106 5.99455 12.8583 5.97956C13.1131 5.97956 13.4728 5.94959 13.5926 5.78474C14.252 4.93052 15.1362 4.76567 16.1253 4.78065C17.9687 4.79564 19.797 4.78065 21.5954 4.78065C21.8801 4.12125 22.0899 3.50681 22.4046 2.93733C23.3488 1.24387 24.9074 0.404632 26.7507 0ZM47.9564 13.0232C45.8134 13.0232 43.8052 13.0082 41.797 13.0381C41.6172 13.0381 41.3924 13.203 41.2725 13.3529C40.7629 13.9373 40.1335 14.2221 39.3692 14.2221C31.4564 14.2221 23.5286 14.2221 15.6158 14.2221C14.8815 14.2221 14.282 13.9373 13.7575 13.4128C13.5477 13.203 13.173 13.0531 12.8733 13.0381C11.4346 12.9932 9.98093 13.0232 8.54223 13.0232C8.06267 13.0232 7.56812 13.0232 7.05858 13.0232C7.05858 13.4728 7.05858 13.7875 7.05858 14.1172C7.05858 29.6131 7.05858 45.124 7.05858 60.6199C7.05858 61.639 6.66894 62.1785 5.94959 62.1785C5.24523 62.1935 4.81063 61.654 4.81063 60.7098C4.81063 44.5545 4.81063 28.4142 4.81063 12.2589C4.81063 11.1798 5.21526 10.7752 6.30926 10.7752C8.33243 10.7602 10.3406 10.7752 12.3638 10.7752C12.6185 10.7752 12.8883 10.7752 13.1431 10.7752C13.1431 9.87602 13.1431 9.08174 13.1431 8.22752C12.9033 8.22752 12.7234 8.22752 12.5286 8.22752C10.0409 8.22752 7.55313 8.22752 5.05041 8.22752C3.22207 8.24251 2.24796 9.23161 2.24796 11.0749C2.24796 31.2166 2.24796 51.3583 2.24796 71.5C2.24796 73.3733 3.22207 74.3474 5.11035 74.3474C20.0218 74.3474 34.9482 74.3474 49.8597 74.3474C51.733 74.3474 52.7221 73.3733 52.7221 71.5C52.7221 51.3583 52.7221 31.2166 52.7221 11.0749C52.7221 9.24659 51.718 8.25749 49.9046 8.24251C47.4319 8.24251 44.9741 8.24251 42.5014 8.24251C42.2766 8.24251 42.0668 8.27248 41.842 8.27248C41.842 9.1267 41.842 9.93597 41.842 10.7752C42.1717 10.7752 42.4414 10.7752 42.7112 10.7752C44.7343 10.7752 46.7425 10.7752 48.7657 10.7752C49.4251 10.7752 50.0245 10.97 50.0845 11.7044C50.1744 12.6335 50.1594 13.5926 50.0845 14.5218C50.0395 15.1213 49.5749 15.421 48.9755 15.391C48.376 15.346 48.0163 15.0014 47.9564 14.3869C47.9264 13.9823 47.9564 13.5627 47.9564 13.0232ZM39.5041 7.02861C37.2411 7.02861 35.0531 7.02861 32.8651 7.02861C31.5313 7.02861 31.2616 6.77384 31.1117 5.47003C30.9169 3.94142 30.0477 2.90736 28.609 2.42779C26.406 1.69346 24.233 3.14714 23.8733 5.52997C23.6785 6.84877 23.4687 7.02861 22.1499 7.02861C20.906 7.02861 19.6621 7.02861 18.4183 7.02861C17.4591 7.02861 16.5 7.02861 15.4959 7.02861C15.4959 8.72207 15.4959 10.3256 15.4959 11.9292C23.5286 11.9292 31.5014 11.9292 39.5341 11.9292C39.5041 10.3106 39.5041 8.72207 39.5041 7.02861Z" fill="white"/>
<path d="M7.02854 67.1098C20.6811 67.1098 34.2738 67.1098 47.9413 67.1098C47.9413 66.7501 47.9413 66.4354 47.9413 66.1207C47.9413 50.7147 47.9413 35.3087 47.9413 19.9177C47.9413 19.6179 47.9413 19.3182 47.9563 19.0185C48.0013 18.3891 48.4059 18.0594 48.9754 18.0294C49.5599 17.9994 49.9795 18.2991 50.0994 18.8986C50.1593 19.1684 50.1743 19.4381 50.1743 19.7079C50.1743 35.7133 50.1743 51.7038 50.1743 67.7092C50.1743 69.043 49.8146 69.4027 48.4958 69.4027C34.4686 69.4027 20.4563 69.4027 6.42909 69.4027C5.14026 69.4027 4.78059 69.043 4.78059 67.7692C4.78059 67.1697 4.7656 66.5703 4.78059 65.9708C4.81056 65.2215 5.29012 64.7569 5.93454 64.7719C6.54898 64.8019 6.9686 65.2515 6.99857 65.9708C7.04353 66.3455 7.02854 66.7051 7.02854 67.1098Z" fill="white"/>
<path d="M23.7984 25.1617C24.5777 25.1617 25.282 25.1467 25.9714 25.1617C27.6948 25.1917 28.579 26.0759 28.594 27.7993C28.594 28.5486 28.609 29.2979 28.579 30.0473C28.5191 31.2312 27.6649 32.1004 26.4809 32.1753C25.6267 32.2203 24.7575 32.1903 23.8134 32.1903C23.8134 33.0745 23.8283 33.8388 23.8134 34.6031C23.7834 36.0418 22.9292 36.926 21.4905 36.986C20.6962 37.0159 19.9019 37.0159 19.1076 36.986C17.7289 36.911 16.8597 36.0268 16.7997 34.6331C16.7698 33.8688 16.7997 33.0895 16.7997 32.1903C16.0654 32.1903 15.376 32.1903 14.7016 32.1903C12.8883 32.1753 12.0191 31.2911 12.0041 29.4628C12.0041 28.8633 11.9891 28.2639 12.0041 27.6644C12.0341 26.1358 12.9333 25.2067 14.4768 25.1467C15.2112 25.1168 15.9605 25.1467 16.7997 25.1467C16.7997 24.3674 16.7848 23.6481 16.7997 22.9437C16.8297 21.3252 17.7289 20.396 19.3474 20.3511C20.0218 20.3361 20.6962 20.3361 21.3706 20.3511C22.9142 20.396 23.8134 21.3102 23.8283 22.8538C23.7984 23.5881 23.7984 24.3075 23.7984 25.1617ZM14.267 27.4097C14.267 28.3238 14.267 29.1031 14.267 29.9573C15.376 29.9573 16.4551 29.9424 17.5191 29.9573C18.6431 29.9723 19.0027 30.332 19.0027 31.441C19.0027 32.3702 18.9877 33.2843 19.0177 34.2135C19.0327 34.4083 19.2575 34.723 19.4074 34.738C20.0967 34.798 20.7861 34.768 21.5354 34.768C21.5354 33.7489 21.5354 32.8347 21.5354 31.9206C21.5354 30.2271 21.7902 29.9723 23.4837 29.9723C24.4128 29.9723 25.357 29.9723 26.2711 29.9723C26.2711 29.0582 26.2711 28.2789 26.2711 27.4097C25.0722 27.4097 23.9333 27.4247 22.7943 27.4097C22 27.3947 21.6104 27.005 21.5504 26.2257C21.5204 25.8511 21.5354 25.4764 21.5354 25.1018C21.5354 24.2925 21.5354 23.4832 21.5354 22.689C20.6213 22.689 19.842 22.689 18.9877 22.689C18.9877 23.8129 18.9877 24.877 18.9877 25.941C18.9877 27.05 18.6281 27.4097 17.5191 27.4097C16.4551 27.4097 15.391 27.4097 14.267 27.4097Z" fill="white"/>
<path d="M27.485 49.0214C22.8991 49.0214 18.3283 49.0214 13.7425 49.0214C12.5436 49.0214 11.9741 48.6467 11.9891 47.8824C12.004 47.1181 12.5436 46.7734 13.7724 46.7734C22.9291 46.7734 32.0858 46.7734 41.2425 46.7734C42.4264 46.7734 42.9359 47.0881 42.9509 47.8525C42.9659 48.6467 42.4264 49.0064 41.2275 49.0064C36.6416 49.0214 32.0708 49.0214 27.485 49.0214Z" fill="white"/>
<path d="M25.6566 41.9759C29.643 41.9759 33.6294 41.9759 37.6157 41.9759C37.9155 41.9759 38.2152 41.9759 38.5149 42.0359C39.0544 42.1408 39.3392 42.5004 39.3542 43.025C39.3841 43.5945 39.1294 43.9991 38.5599 44.134C38.2751 44.2089 37.9754 44.2089 37.6757 44.2089C29.688 44.2089 21.6852 44.2089 13.6975 44.2089C13.6525 44.2089 13.5926 44.2089 13.5476 44.2089C12.5435 44.1939 12.004 43.7893 12.004 43.0699C12.004 42.3506 12.5435 41.9609 13.5626 41.9609C17.579 41.9609 21.6103 41.9759 25.6566 41.9759Z" fill="white"/>
<path d="M31.7261 51.5697C34.9332 51.5697 38.1553 51.5697 41.3624 51.5697C41.6771 51.5697 42.0817 51.5397 42.2915 51.7046C42.5912 51.9443 42.906 52.364 42.891 52.6937C42.891 53.0234 42.5463 53.428 42.2466 53.6528C42.0218 53.8176 41.6321 53.7877 41.3024 53.7877C34.8733 53.7877 28.4591 53.7877 22.0299 53.7877C21.8801 53.7877 21.7302 53.7877 21.5803 53.7877C20.816 53.7127 20.3515 53.2631 20.3664 52.6337C20.3814 51.9893 20.846 51.5547 21.6253 51.5547C25.0122 51.5697 28.3692 51.5697 31.7261 51.5697Z" fill="white"/>
<path d="M19.0477 56.3645C20.891 56.3645 22.7343 56.3645 24.5627 56.3645C24.8174 56.3645 25.1322 56.2896 25.297 56.4245C25.6267 56.6942 26.0164 57.0239 26.1362 57.4136C26.3011 57.9081 25.9714 58.3427 25.4619 58.4926C25.1621 58.5825 24.8324 58.6125 24.5027 58.6125C20.891 58.6125 17.2943 58.6125 13.6826 58.6125C13.5027 58.6125 13.3379 58.6274 13.158 58.5975C12.4537 58.5225 11.9891 58.073 11.9741 57.4735C11.9741 56.8441 12.4687 56.3795 13.218 56.3645C15.1662 56.3495 17.1144 56.3645 19.0477 56.3645Z" fill="white"/>
<path d="M37.6308 29.8067C36.342 29.8067 35.0382 29.8217 33.7494 29.8067C32.8502 29.7917 32.3706 29.3871 32.3856 28.6827C32.4006 28.0083 32.8652 27.5887 33.7194 27.5737C36.357 27.5588 38.9946 27.5588 41.6322 27.5737C42.4714 27.5737 42.951 28.0083 42.966 28.6827C42.981 29.3871 42.5014 29.8067 41.6022 29.8067C40.2684 29.8217 38.9496 29.8067 37.6308 29.8067Z" fill="white"/>
<path d="M37.6608 34.6036C36.372 34.6036 35.0682 34.6186 33.7794 34.6036C32.8652 34.5886 32.3856 34.2139 32.3856 33.5096C32.3856 32.8052 32.8502 32.3856 33.7494 32.3706C36.357 32.3556 38.9796 32.3556 41.5873 32.3706C42.4864 32.3706 42.966 32.8202 42.951 33.5096C42.936 34.2139 42.4565 34.5886 41.5423 34.6036C40.2535 34.6186 38.9497 34.6036 37.6608 34.6036Z" fill="white"/>
<path d="M35.8324 25.0115C35.083 25.0115 34.3337 25.0265 33.5994 25.0115C32.8501 24.9965 32.4155 24.6068 32.3855 23.9774C32.3405 23.318 32.7751 22.8085 33.5395 22.7935C35.113 22.7485 36.6716 22.7485 38.2452 22.7935C38.9795 22.8085 39.3841 23.303 39.3542 23.9474C39.3242 24.5918 38.9046 24.9815 38.1553 25.0115C37.376 25.0265 36.6117 25.0115 35.8324 25.0115Z" fill="white"/>
<path d="M14.8965 53.8022C14.327 53.8022 13.7426 53.8321 13.1731 53.7872C12.4388 53.7422 11.9442 53.2327 11.9892 52.6033C12.0341 51.9888 12.4837 51.5692 13.218 51.5542C14.342 51.5392 15.466 51.5392 16.575 51.5542C17.3243 51.5692 17.7589 51.9738 17.7889 52.6033C17.8189 53.2627 17.3843 53.7272 16.605 53.7722C16.0355 53.8321 15.466 53.8022 14.8965 53.8022Z" fill="white"/>
<path d="M28.5791 5.90424C28.5791 6.50369 28.1145 6.99824 27.515 7.01323C26.9006 7.02821 26.3761 6.50369 26.3911 5.87426C26.406 5.28979 26.9156 4.78026 27.5001 4.79524C28.0845 4.81023 28.5791 5.31977 28.5791 5.90424Z" fill="white"/>
</svg>
