<svg width="26" height="27" viewBox="0 0 26 27" fill="none" xmlns="http://www.w3.org/2000/svg">
<g clip-path="url(#clip0_39_119)">
<path d="M17.5316 25.9201C16.8516 25.9201 15.9449 25.9201 15.2649 25.6965C12.3183 24.8019 9.37165 23.0128 6.42501 20.3291C2.11839 15.8563 0.758405 11.6071 0.305077 8.69979C0.0784126 6.01611 1.21173 3.10878 3.47838 1.31966L3.70504 1.09602C4.6117 0.425096 6.19835 0.648737 7.10501 1.31966L9.37165 3.55606C9.82498 4.22698 10.0516 4.67426 10.0516 5.34519C10.0516 6.01611 9.82498 6.68703 9.37165 7.13431L8.23833 8.47615C7.785 9.14707 7.55833 10.0416 8.01166 10.7126C9.14498 13.1726 11.4116 17.4218 15.2649 18.3163C15.9449 18.54 16.6249 18.3163 17.3049 17.8691L19.1182 16.5272C19.5715 16.3036 20.0249 15.8563 20.7049 15.8563C21.3849 15.8563 22.0648 16.0799 22.5182 16.5272L24.7848 18.7636C25.6915 19.6582 25.6915 21 25.0115 21.8946L24.7848 22.1182C22.9715 24.5783 20.2515 25.9201 17.5316 25.9201ZM5.29169 1.76694C5.06503 1.76694 4.6117 1.76694 4.38503 1.99058L4.15837 2.21422C2.34506 3.7797 1.21173 6.23975 1.4384 8.69979C1.66506 11.3835 3.02505 15.409 7.10501 19.4345C9.82498 22.1182 12.5449 23.6837 15.2649 24.5783C18.4382 25.4728 21.6115 24.3546 23.6515 21.6709L23.8782 21.4473C24.3315 21 24.3315 20.1055 23.8782 19.6582L21.6115 17.4218C21.1582 16.9745 20.2515 16.9745 19.7982 17.4218L17.9849 18.7636C17.0782 19.4345 15.9449 19.6582 15.0383 19.4345C10.7316 18.54 8.01166 13.8435 6.87834 11.3835C6.42501 10.0416 6.65168 8.69979 7.33167 7.80523L8.46499 6.23975C8.69166 6.01611 8.91832 5.79247 8.91832 5.34519C8.91832 4.89791 8.69166 4.67426 8.46499 4.45062L6.19835 2.21422C5.97168 1.99058 5.51836 1.76694 5.29169 1.76694Z" fill="#DEE7E6" stroke="#DEE7E6" stroke-width="0.5"/>
</g>
<defs>
<clipPath id="clip0_39_119">
<rect width="26" height="27" fill="white"/>
</clipPath>
</defs>
</svg>
