<svg width="25" height="25" viewBox="0 0 25 25" fill="none" xmlns="http://www.w3.org/2000/svg">
<path d="M3.75 2.875C3.75 2.17881 4.02656 1.51113 4.51884 1.01884C5.01113 0.526562 5.67881 0.25 6.375 0.25H18.625C19.3212 0.25 19.9889 0.526562 20.4812 1.01884C20.9734 1.51113 21.25 2.17881 21.25 2.875V7.25H19.5V2.875C19.5 2.64294 19.4078 2.42038 19.2437 2.25628C19.0796 2.09219 18.8571 2 18.625 2H6.375C6.14294 2 5.92038 2.09219 5.75628 2.25628C5.59219 2.42038 5.5 2.64294 5.5 2.875V9H15.125C14.7357 9.51757 14.4667 10.1154 14.3375 10.75H3.75C3.28587 10.75 2.84075 10.9344 2.51256 11.2626C2.18437 11.5908 2 12.0359 2 12.5V22.125C2 22.3571 2.09219 22.5796 2.25628 22.7437C2.42038 22.9078 2.64294 23 2.875 23H14.3375C14.4688 23.6475 14.7418 24.2425 15.125 24.75H2.875C2.17881 24.75 1.51113 24.4734 1.01884 23.9812C0.526562 23.4889 0.25 22.8212 0.25 22.125V12.5C0.25 11.5717 0.618749 10.6815 1.27513 10.0251C1.9315 9.36875 2.82174 9 3.75 9V2.875ZM16 11.625C16 10.9288 16.2766 10.2611 16.7688 9.76884C17.2611 9.27656 17.9288 9 18.625 9H22.125C22.8212 9 23.4889 9.27656 23.9812 9.76884C24.4734 10.2611 24.75 10.9288 24.75 11.625V22.125C24.75 22.8212 24.4734 23.4889 23.9812 23.9812C23.4889 24.4734 22.8212 24.75 22.125 24.75H18.625C17.9288 24.75 17.2611 24.4734 16.7688 23.9812C16.2766 23.4889 16 22.8212 16 22.125V11.625ZM18.625 10.75C18.3929 10.75 18.1704 10.8422 18.0063 11.0063C17.8422 11.1704 17.75 11.3929 17.75 11.625V22.125C17.75 22.3571 17.8422 22.5796 18.0063 22.7437C18.1704 22.9078 18.3929 23 18.625 23H22.125C22.3571 23 22.5796 22.9078 22.7437 22.7437C22.9078 22.5796 23 22.3571 23 22.125V11.625C23 11.3929 22.9078 11.1704 22.7437 11.0063C22.5796 10.8422 22.3571 10.75 22.125 10.75H18.625ZM4.84375 12.5C5.13383 12.5 5.41203 12.6152 5.61715 12.8204C5.82227 13.0255 5.9375 13.3037 5.9375 13.5938C5.9375 13.8838 5.82227 14.162 5.61715 14.3671C5.41203 14.5723 5.13383 14.6875 4.84375 14.6875C4.55367 14.6875 4.27547 14.5723 4.07035 14.3671C3.86523 14.162 3.75 13.8838 3.75 13.5938C3.75 13.3037 3.86523 13.0255 4.07035 12.8204C4.27547 12.6152 4.55367 12.5 4.84375 12.5ZM4.84375 16.4375C5.13383 16.4375 5.41203 16.5527 5.61715 16.7579C5.82227 16.963 5.9375 17.2412 5.9375 17.5312C5.9375 17.8213 5.82227 18.0995 5.61715 18.3046C5.41203 18.5098 5.13383 18.625 4.84375 18.625C4.55367 18.625 4.27547 18.5098 4.07035 18.3046C3.86523 18.0995 3.75 17.8213 3.75 17.5312C3.75 17.2412 3.86523 16.963 4.07035 16.7579C4.27547 16.5527 4.55367 16.4375 4.84375 16.4375ZM9.875 17.75C9.875 17.4599 9.75977 17.1817 9.55465 16.9766C9.34953 16.7715 9.07133 16.6562 8.78125 16.6562C8.49117 16.6562 8.21297 16.7715 8.00785 16.9766C7.80273 17.1817 7.6875 17.4599 7.6875 17.75C7.6875 18.0401 7.80273 18.3183 8.00785 18.5234C8.21297 18.7285 8.49117 18.8438 8.78125 18.8438C9.07133 18.8438 9.34953 18.7285 9.55465 18.5234C9.75977 18.3183 9.875 18.0401 9.875 17.75V17.75ZM8.78125 12.5C9.07133 12.5 9.34953 12.6152 9.55465 12.8204C9.75977 13.0255 9.875 13.3037 9.875 13.5938C9.875 13.8838 9.75977 14.162 9.55465 14.3671C9.34953 14.5723 9.07133 14.6875 8.78125 14.6875C8.49117 14.6875 8.21297 14.5723 8.00785 14.3671C7.80273 14.162 7.6875 13.8838 7.6875 13.5938C7.6875 13.3037 7.80273 13.0255 8.00785 12.8204C8.21297 12.6152 8.49117 12.5 8.78125 12.5V12.5Z" fill="#DEE7E6"/>
</svg>
