<svg width="27" height="23" viewBox="0 0 27 23" fill="none" xmlns="http://www.w3.org/2000/svg">
<path fill-rule="evenodd" clip-rule="evenodd" d="M1.14282 18.1667V4.83333C1.14282 3.94928 1.50405 3.10143 2.14703 2.47631C2.79001 1.85119 3.66208 1.5 4.57139 1.5H21.7143C22.6236 1.5 23.4956 1.85119 24.1386 2.47631C24.7816 3.10143 25.1428 3.94928 25.1428 4.83333V18.1667C25.1428 19.0507 24.7816 19.8986 24.1386 20.5237C23.4956 21.1488 22.6236 21.5 21.7143 21.5H4.57139C3.66208 21.5 2.79001 21.1488 2.14703 20.5237C1.50405 19.8986 1.14282 19.0507 1.14282 18.1667Z" stroke="#DEE7E6" stroke-width="2" stroke-linecap="round" stroke-linejoin="round"/>
<path d="M4.57129 7.33337L13.1427 12.3334L21.7141 7.33337" stroke="#DEE7E6" stroke-width="2" stroke-linecap="round" stroke-linejoin="round"/>
</svg>
