<svg width="21" height="29" viewBox="0 0 21 29" fill="none" xmlns="http://www.w3.org/2000/svg">
<g clip-path="url(#clip0_39_123)">
<path d="M10.5 28C8.68085 28 1 15.4135 1 10.5414C1 5.26316 5.24468 1 10.5 1C15.7553 1 20 5.26316 20 10.5414C20 15.4135 12.3191 28 10.5 28ZM10.5 2.01504C5.85106 2.01504 2.01064 5.87218 2.01064 10.5414C2.01064 15.2105 9.08511 25.9699 10.5 26.985C11.7128 25.9699 18.9894 15.2105 18.9894 10.5414C18.9894 5.87218 15.1489 2.01504 10.5 2.01504Z" fill="#DEE7E6" stroke="#DEE7E6" stroke-width="0.5"/>
<path d="M10.4999 16.4286C7.26586 16.4286 4.84033 13.7895 4.84033 10.7444C4.84033 7.49627 7.46799 5.06018 10.4999 5.06018C13.5318 5.06018 16.1595 7.69928 16.1595 10.7444C16.1595 13.7895 13.7339 16.4286 10.4999 16.4286ZM10.4999 5.87221C7.87225 5.87221 5.85097 8.10529 5.85097 10.5414C5.85097 13.1805 8.07437 15.2106 10.4999 15.2106C13.1276 15.4136 15.1488 13.3835 15.1488 10.7444C15.1488 8.10529 13.1276 5.87221 10.4999 5.87221Z" fill="#DEE7E6" stroke="#DEE7E6" stroke-width="0.5"/>
</g>
<defs>
<clipPath id="clip0_39_123">
<rect width="21" height="29" fill="white"/>
</clipPath>
</defs>
</svg>
