<svg width="26" height="26" viewBox="0 0 26 26" fill="none" xmlns="http://www.w3.org/2000/svg">
<g clip-path="url(#clip0_39_107)">
<path d="M13 0C16.5736 0 19.8252 1.45525 22.1802 3.79493C24.5352 6.13462 26 9.36502 26 12.9153V22.1173C26 22.4183 25.7538 22.6692 25.4444 22.6692H0.55561C0.25255 22.6692 0 22.4246 0 22.1173V12.9153C0 9.36502 1.46479 6.13462 3.81982 3.79493C6.17484 1.45525 9.42642 0 13 0ZM21.4036 4.56647C19.2443 2.42123 16.2768 1.09771 13.0063 1.09771C9.7358 1.09771 6.76202 2.4275 4.60272 4.56647C2.44342 6.70543 1.11122 9.6661 1.11122 12.909V21.5653H24.9014V12.909C24.8951 9.6661 23.5566 6.7117 21.4036 4.56647Z" fill="#DEEFEF"/>
<path d="M3.03681 12.2379H22.9567C23.2597 12.2379 23.5123 12.4825 23.5123 12.7899V19.9281C23.5123 20.2292 23.2661 20.4801 22.9567 20.4801H3.03681C2.73375 20.4801 2.4812 20.2355 2.4812 19.9281V12.7899C2.48751 12.4825 2.73375 12.2379 3.03681 12.2379ZM22.4074 13.3356H3.59242V19.3699H22.4074V13.3356Z" fill="#DEEFEF"/>
<path d="M6.96404 9.6348H19.0296V8.374H6.96404V9.6348ZM19.5852 10.7325H6.41474C6.11168 10.7325 5.85913 10.4879 5.85913 10.1805V7.82201C5.85913 7.52092 6.10537 7.27002 6.41474 7.27002H19.5852C19.8883 7.27002 20.1408 7.51465 20.1408 7.82201V10.1805C20.1408 10.4879 19.8946 10.7325 19.5852 10.7325Z" fill="#DEEFEF"/>
<path d="M5.26557 7.27625C4.96251 7.27625 4.70996 7.52088 4.70996 7.82824C4.70996 8.13559 4.9562 8.38023 5.26557 8.38023H20.7342C21.0373 8.38023 21.2899 8.13559 21.2899 7.82824C21.2899 7.52088 21.0436 7.27625 20.7342 7.27625H5.26557Z" fill="#DEEFEF"/>
<path d="M6.06115 13.3356L13 16.5723L19.9388 13.3356H6.06115ZM12.7663 17.6763L3.40306 13.3043C3.1884 13.229 3.03687 13.022 3.03687 12.7899C3.03687 12.4888 3.2831 12.2379 3.59247 12.2379H22.4011C22.6095 12.2316 22.8178 12.3508 22.9125 12.5515C23.0451 12.8275 22.9252 13.1537 22.6474 13.2792L22.4137 12.7836L22.6474 13.2792L13.2841 17.6512C13.1262 17.739 12.9368 17.7578 12.7663 17.6763Z" fill="#DEEFEF"/>
<path d="M8.30263 22.1173C8.30263 21.8162 8.05639 21.5653 7.74702 21.5653C7.43764 21.5653 7.19141 21.8099 7.19141 22.1173V25.4543C7.19141 25.7554 7.43764 26.0063 7.74702 26.0063C8.05639 26.0063 8.30263 25.7617 8.30263 25.4543V22.1173Z" fill="#DEEFEF"/>
<path d="M18.8024 22.1173C18.8024 21.8162 18.5561 21.5653 18.2468 21.5653C17.9374 21.5653 17.6912 21.8099 17.6912 22.1173V25.4543C17.6912 25.7554 17.9374 26.0063 18.2468 26.0063C18.5561 26.0063 18.8024 25.7617 18.8024 25.4543V22.1173Z" fill="#DEEFEF"/>
</g>
<defs>
<clipPath id="clip0_39_107">
<rect width="26" height="26" fill="white"/>
</clipPath>
</defs>
</svg>
