<svg width="38" height="35" viewBox="0 0 38 35" fill="none" xmlns="http://www.w3.org/2000/svg">
<path d="M22.441 29.588C29.1789 29.588 32.5487 29.588 34.6409 27.4939C36.735 25.4017 36.735 22.0318 36.735 15.294C36.735 8.55617 36.735 5.18636 34.6409 3.09407C32.5487 1 29.1789 1 22.441 1H15.294C8.55617 1 5.18636 1 3.09407 3.09407C1 5.18636 1 8.55617 1 15.294C1 22.0318 1 25.4017 3.09407 27.4939C4.26082 28.6625 5.82423 29.1789 8.147 29.4058" stroke="white" stroke-width="2" stroke-linecap="round" stroke-linejoin="round"/>
<path d="M18.8677 15.2939V15.3114" stroke="white" stroke-width="2" stroke-linecap="round"/>
<path d="M11.7205 15.2939V15.3114" stroke="white" stroke-width="2" stroke-linecap="round"/>
<path d="M26.0146 15.2939V15.3114" stroke="white" stroke-width="2" stroke-linecap="round"/>
<path d="M22.4411 29.5883C20.2327 29.5883 17.7991 30.4817 15.5782 31.6342C12.0083 33.487 10.2233 34.4143 9.34421 33.8229C8.46513 33.2333 8.63129 31.4019 8.96542 27.7408L9.04046 26.9082" stroke="white" stroke-width="2" stroke-linecap="round"/>
</svg>
