<svg width="117" height="103" viewBox="0 0 117 103" fill="none" xmlns="http://www.w3.org/2000/svg">
<path d="M14.9749 62.5893C13.6562 66.9575 15.0573 71.7378 18.1068 75.117C23.052 80.6391 32.3654 82.782 38.7117 81.2161C50.2505 78.4962 48.19 67.8641 54.0418 62.5068" stroke="#178680" stroke-width="4" stroke-miterlimit="10" stroke-linecap="round"/>
<path d="M63.3552 65.8037C65.0035 69.8423 64.4266 74.7874 61.7892 78.3315C59.2342 81.8755 54.7011 83.936 50.3329 83.5239C50.3329 83.5239 45.7998 87.068 45.3877 100.585" stroke="#178680" stroke-width="4" stroke-miterlimit="10" stroke-linecap="round"/>
<path d="M37.0633 81.6279C37.0633 81.6279 33.0248 91.0238 35.5798 100.584" stroke="#178680" stroke-width="4" stroke-miterlimit="10" stroke-linecap="round"/>
<path d="M73.4927 42.3139C75.2235 38.4402 75.4707 34.484 74.4817 30.3631C72.0091 20.5551 64.4265 18.6595 60.8001 15.1154C57.6681 11.9835 56.3494 6.21414 57.6681 2.01074" stroke="#178680" stroke-width="4" stroke-miterlimit="10" stroke-linecap="round"/>
<path d="M29.9752 59.1282C26.1015 53.5237 29.151 48.6609 26.9257 44.7048C25.607 42.397 22.8872 41.3256 21.3212 39.1827C15.5518 31.3528 28.5741 20.9679 22.9696 13.0557" stroke="#178680" stroke-width="4" stroke-miterlimit="10" stroke-linecap="round"/>
<path d="M56.3495 37.9464C54.0417 36.6277 52.1461 34.5672 51.0746 32.0122C50.9098 31.6825 50.8274 31.4352 50.7449 31.188C50.0856 28.8802 49.5911 26.3252 47.7778 24.7593C45.7998 23.0285 42.8327 23.0285 40.5249 21.8746C38.0523 20.5559 36.5688 18.0009 35.9094 15.281C35.2501 12.5612 35.4973 9.75891 35.7446 7.03906" stroke="#178680" stroke-width="4" stroke-miterlimit="10" stroke-linecap="round"/>
<path d="M16.1287 62.26C12.5847 63.7436 7.96921 62.1776 5.49663 58.9632C-4.64098 45.6113 11.3484 1.18712 60.6353 2.01132C97.3944 2.67067 116.021 30.1988 107.285 48.8256C102.092 59.7874 88.2458 60.7764 81.5699 51.1334" stroke="#178680" stroke-width="4" stroke-miterlimit="10" stroke-linecap="round"/>
<path d="M98.2186 72.8096L112.395 86.9857C114.95 89.5407 114.95 93.7441 112.395 96.3816C109.84 98.9366 105.636 98.9366 102.999 96.3816L88.8228 82.2054" stroke="#178680" stroke-width="4" stroke-miterlimit="10" stroke-linecap="round" stroke-linejoin="round"/>
<path d="M98.2186 72.8102L90.4712 68.5244L87.504 71.4915L84.4545 74.541L88.8228 82.2061L93.5207 77.5081" stroke="#178680" stroke-width="4" stroke-miterlimit="10" stroke-linecap="round" stroke-linejoin="round"/>
<path d="M90.4711 68.5246L61.2122 39.2656C59.4814 57.5628 75.6356 69.6784 84.4545 74.5412" stroke="#178680" stroke-width="4" stroke-miterlimit="10" stroke-linecap="round" stroke-linejoin="round"/>
<path d="M94.5921 52.7814C98.1362 52.4517 101.103 50.3088 102.834 46.7648C105.719 40.6658 104.895 33.248 100.526 26.3248C96.1581 19.3191 89.07 13.9618 80.3336 10.665C84.1249 16.352 87.7513 22.1214 90.636 28.3028C93.6031 34.5667 95.6636 41.9845 92.8613 48.3308C92.202 49.8143 91.2954 51.0506 90.2239 52.2045C91.625 52.6166 93.1086 52.8638 94.5921 52.7814Z" fill="#178680"/>
</svg>
