<svg width="124" height="115" viewBox="0 0 124 115" fill="none" xmlns="http://www.w3.org/2000/svg">
<path d="M120.447 108.085C120.171 108.085 119.896 108.035 119.646 107.91L109.293 102.984C106.818 101.833 103.992 101.608 101.341 102.359C101.316 102.359 101.266 102.384 101.241 102.384L92.2383 104.384C90.6628 104.809 89.0623 104.909 87.4368 104.684L72.3824 103.684C72.3324 103.684 72.2824 103.684 72.2324 103.659C70.6819 103.434 69.3065 102.609 68.3812 101.333C67.456 100.058 67.1059 98.5074 67.3559 96.957C67.8061 94.2812 70.1318 92.2556 72.8326 92.1556L79.5095 91.9055C81.135 91.8555 82.6604 91.1303 83.7358 89.9299C84.8361 88.7045 85.3612 87.1541 85.2612 85.5036C85.1112 83.328 83.7858 81.3774 81.7852 80.4771L55.7775 68.1235C50.626 65.7478 48.0253 59.8461 49.7007 54.4195C49.8508 53.8943 50.2509 53.4692 50.7261 53.2691C51.2262 53.0441 51.7764 53.0691 52.2765 53.2941L121.972 85.9537C122.922 86.4039 123.322 87.5042 122.872 88.4545C122.422 89.4047 121.322 89.8049 120.372 89.3547L52.9767 57.6954C52.9517 60.6213 54.6272 63.4221 57.403 64.6975L83.4107 77.0511C86.6366 78.5265 88.7872 81.6775 89.0373 85.2285C89.2124 87.8793 88.3371 90.43 86.5616 92.4056C84.7861 94.3812 82.3353 95.5315 79.6846 95.6316L73.0076 95.8816C72.0573 95.9067 71.2321 96.6319 71.082 97.5821C70.982 98.1323 71.107 98.6825 71.4321 99.1326C71.7572 99.5577 72.2074 99.8578 72.7325 99.9328L87.7869 100.933C87.837 100.933 87.887 100.933 87.937 100.958C89.0623 101.133 90.1877 101.058 91.288 100.733C91.313 100.733 91.363 100.708 91.388 100.708L100.391 98.7075C103.892 97.7322 107.618 98.0573 110.919 99.5577L121.297 104.509C122.222 104.959 122.622 106.085 122.172 107.01C121.797 107.685 121.147 108.085 120.447 108.085Z" fill="#178680"/>
<path d="M67.631 91.1806C66.9808 91.1806 66.3306 90.8305 65.9805 90.2054L64.255 87.1044C64.23 87.0794 64.23 87.0544 64.205 87.0294C62.3795 83.3283 63.1047 79.8023 66.1806 77.3516L71.8323 72.8503C72.6325 72.2001 73.8328 72.3501 74.458 73.1503C75.1082 73.9506 74.9582 75.1509 74.1579 75.7761L68.5063 80.2774C66.8058 81.6278 66.5057 83.1783 67.556 85.3039L69.2565 88.3798C69.7566 89.2801 69.4315 90.4304 68.5313 90.9306C68.2562 91.1056 67.9311 91.1806 67.631 91.1806Z" fill="#178680"/>
<path d="M75.7584 85.5284C75.4833 85.5284 75.2333 85.4784 74.9832 85.3534L71.4321 83.7029C70.4819 83.2778 70.0817 82.1525 70.5069 81.2022C70.932 80.2519 72.0573 79.8518 73.0076 80.2769L75.3083 81.3522L79.5845 76.7009C80.2847 75.9506 81.4601 75.9006 82.2353 76.6008C82.9855 77.301 83.0356 78.4764 82.3353 79.2516L77.1338 84.9033C76.7837 85.3034 76.2836 85.5284 75.7584 85.5284Z" fill="#178680"/>
<path d="M77.2089 89.4799C76.4337 89.4799 75.7334 89.0047 75.4584 88.2545L74.0079 84.3034C73.6578 83.3281 74.158 82.2528 75.1333 81.9027C76.1086 81.5526 77.1839 82.0527 77.534 83.028L78.9844 86.9791C79.3345 87.9544 78.8344 89.0297 77.8591 89.3799C77.659 89.4549 77.4339 89.4799 77.2089 89.4799Z" fill="#178680"/>
<path d="M2.18677 114.712C1.78665 114.712 1.41154 114.587 1.08645 114.362C0.611307 114.011 0.311218 113.436 0.311218 112.836V1.87846C0.311218 1.3283 0.561292 0.803142 0.961409 0.453039C1.38653 0.102936 1.9367 -0.0721155 2.46185 0.0279139L95.0141 14.1321C95.9393 14.2821 96.6145 15.0573 96.6145 15.9826V67.2227C96.6145 68.248 95.7643 69.0982 94.739 69.0982C93.7137 69.0982 92.8634 68.248 92.8634 67.2227V17.5831L4.06232 4.0541V110.26L59.5536 92.5301C60.5289 92.205 61.6042 92.7552 61.9043 93.7555C62.2294 94.7308 61.6793 95.8061 60.679 96.1062L2.73693 114.612C2.56188 114.687 2.38683 114.712 2.18677 114.712Z" fill="#178680"/>
<path d="M25.7687 70.7978C19.4168 70.7978 14.4904 68.172 11.7146 63.1955C10.0141 60.1446 9.16382 56.2935 9.33887 52.3424C9.48891 48.7663 10.4642 45.5153 11.9646 43.6398C12.6148 42.8396 13.7902 42.7145 14.5904 43.3397C15.3906 43.9899 15.5157 45.1652 14.8905 45.9655C12.8649 48.4662 12.0397 56.0184 15.0155 61.32C17.5413 65.7963 22.0926 67.6469 28.5695 66.8216C29.5948 66.6966 30.5451 67.4218 30.6701 68.4471C30.7952 69.4724 30.07 70.4227 29.0447 70.5477C27.8943 70.7228 26.819 70.7978 25.7687 70.7978Z" fill="#178680"/>
<path d="M14.6905 48.1917C14.1903 48.1917 13.6902 47.9917 13.315 47.5915C10.1891 44.1905 10.1641 38.6389 13.265 35.2129C14.8155 33.4874 16.9161 32.5371 19.1418 32.5371H19.1668C21.3924 32.5371 23.468 33.4624 25.0185 35.1629C25.7187 35.9131 25.6687 37.1135 24.9185 37.8137C24.1682 38.5139 22.9679 38.4639 22.2677 37.7136C21.4174 36.8134 20.3171 36.2882 19.1668 36.2882C19.1668 36.2882 19.1668 36.2882 19.1418 36.2882C17.9664 36.2882 16.8661 36.8134 16.0158 37.7386C14.1903 39.7642 14.1903 43.0402 16.0409 45.0658C16.7411 45.816 16.691 47.0164 15.9408 47.7166C15.5907 48.0167 15.1406 48.1917 14.6905 48.1917Z" fill="#178680"/>
<path d="M31.9455 59.9198C31.7705 59.9198 31.5954 59.9198 31.3954 59.8948C26.869 59.5697 23.418 55.3684 23.6931 50.517C23.7431 49.4917 24.6434 48.6915 25.6687 48.7415C26.694 48.7915 27.4942 49.6918 27.4442 50.7171C27.2692 53.5179 29.1697 55.9436 31.6454 56.1186C32.7458 56.1937 33.8211 55.8186 34.6713 55.0683C35.6966 54.1681 36.3218 52.8427 36.3968 51.3923C36.4469 50.367 37.3471 49.5667 38.3724 49.6167C39.3977 49.6668 40.198 50.567 40.1479 51.5923C39.9979 54.043 38.9226 56.3187 37.1471 57.8692C35.6716 59.2196 33.8461 59.9198 31.9455 59.9198Z" fill="#178680"/>
<path d="M59.9288 30.1111C59.7787 30.1111 59.6537 30.086 59.5036 30.061C58.5033 29.836 57.8532 28.8107 58.1032 27.8104C58.7284 25.0596 57.253 22.2587 54.8023 21.5835C53.752 21.2835 52.6266 21.4585 51.6513 22.0337C50.526 22.7089 49.7008 23.8842 49.4007 25.2596C49.1756 26.2599 48.1503 26.9101 47.15 26.66C46.1497 26.435 45.4995 25.4097 45.7496 24.4094C46.2998 22.0337 47.7502 20.0081 49.7508 18.8077C51.6013 17.7074 53.752 17.4073 55.8276 17.9825C60.1788 19.1828 62.8546 23.9842 61.7793 28.6606C61.5542 29.5359 60.779 30.1111 59.9288 30.1111Z" fill="#178680"/>
<path d="M43.749 40.6144C43.5239 40.6144 43.2738 40.6144 43.0488 40.5894C41.1232 40.4144 39.2977 39.5141 37.9223 38.0637C37.2221 37.3135 37.2471 36.1131 37.9973 35.4129C38.7475 34.7127 39.9479 34.7377 40.6481 35.4879C41.3983 36.2882 42.3486 36.7633 43.3739 36.8633C44.4742 36.9634 45.5495 36.6133 46.4248 35.863C47.4501 34.9878 48.1003 33.6624 48.2253 32.212C48.3003 31.1867 49.2006 30.4114 50.2259 30.4865C51.2512 30.5615 52.0264 31.4617 51.9514 32.487C51.7763 34.9378 50.626 37.1884 48.8505 38.7139C47.3751 39.9642 45.5995 40.6144 43.749 40.6144Z" fill="#178680"/>
<path d="M32.9208 44.1653C32.7208 44.1653 32.4957 44.1653 32.2956 44.1403C31.2703 44.0653 30.4951 43.14 30.5701 42.1147C30.6452 41.0894 31.5704 40.3142 32.5957 40.3892C33.621 40.4642 34.5963 40.1641 35.4466 39.514C37.5722 37.8885 38.0473 34.6375 36.5469 32.3118C35.9717 31.4366 36.2218 30.2862 37.0971 29.7111C37.9723 29.1359 39.1227 29.386 39.6978 30.2612C42.2486 34.1874 41.3733 39.664 37.7473 42.4648C36.3218 43.5902 34.6463 44.1653 32.9208 44.1653Z" fill="#178680"/>
<path d="M79.3845 54.818C78.7093 54.818 78.0341 54.4429 77.709 53.7927C77.2338 52.8674 77.6089 51.7421 78.5342 51.267C80.8599 50.0916 81.8602 47.0157 80.7599 44.415C80.2097 43.1396 79.2594 42.2143 78.0841 41.7642C77.0338 41.3891 75.8834 41.4641 74.8832 41.9642C73.9579 42.4394 72.8325 42.0643 72.3574 41.139C71.8823 40.2137 72.2574 39.0884 73.1826 38.6133C75.1332 37.613 77.3339 37.4879 79.3845 38.2381C81.5351 39.0134 83.2856 40.7389 84.2359 42.9395C86.0864 47.3158 84.3109 52.5424 80.2597 54.593C79.9596 54.768 79.6846 54.818 79.3845 54.818Z" fill="#178680"/>
<path d="M83.7857 62.8953C83.6107 62.8953 83.4356 62.8703 83.2606 62.8203C82.2603 62.5452 81.6851 61.4949 81.9852 60.4946C82.7855 57.7438 82.3853 54.8179 80.9099 52.4672C80.3597 51.592 80.6348 50.4416 81.5101 49.8915C82.3853 49.3413 83.5357 49.6164 84.0858 50.4916C86.1364 53.7676 86.6866 57.7938 85.5863 61.5449C85.3362 62.3701 84.586 62.8953 83.7857 62.8953Z" fill="#178680"/>
<path d="M76.6587 41.0393C75.7334 41.0393 74.9082 40.3391 74.8082 39.3888C74.158 34.1873 70.832 30.7113 68.1312 28.6857C64.6052 26.0599 61.1541 25.2097 60.4039 25.3097C59.4536 25.6098 58.4033 25.1096 58.0532 24.1593C57.7031 23.1841 58.2033 22.1087 59.1786 21.7586C61.3542 20.9834 65.5554 22.6089 68.5313 24.4594C71.8323 26.51 77.534 31.0864 78.5092 38.9387C78.6343 39.964 77.9091 40.9143 76.8838 41.0393C76.8087 41.0393 76.7337 41.0393 76.6587 41.0393Z" fill="#178680"/>
<path d="M40.298 78.25C33.1209 78.25 27.2942 72.5984 27.2942 65.6463C27.2942 62.2703 28.6446 59.0944 31.1203 56.6937C31.8705 55.9685 33.0459 55.9935 33.7711 56.7437C34.4963 57.4939 34.4713 58.6693 33.7211 59.3945C31.9956 61.07 31.0453 63.2706 31.0453 65.6463C31.0453 70.5227 35.1965 74.4989 40.298 74.4989C42.9238 74.4989 45.4495 73.4236 47.2 71.548C47.9002 70.7978 49.1006 70.7478 49.8508 71.448C50.601 72.1482 50.6511 73.3486 49.9508 74.0988C47.4751 76.7496 43.9741 78.25 40.298 78.25Z" fill="#178680"/>
<path d="M18.2415 36.2622C18.2165 36.2622 18.2165 36.2622 18.1914 36.2622C17.1661 36.2372 16.3409 35.3869 16.3659 34.3366C16.3659 34.1115 16.541 28.6849 20.5421 25.2339C23.1179 23.0083 26.5939 22.158 30.8702 22.7082C31.8955 22.8332 32.6207 23.7835 32.4957 24.8088C32.3706 25.8341 31.4203 26.5593 30.395 26.4343C27.2191 26.0342 24.7434 26.5843 22.9929 28.0598C20.2671 30.3854 20.092 34.3866 20.092 34.4366C20.067 35.4619 19.2418 36.2622 18.2415 36.2622Z" fill="#178680"/>
<path d="M29.1697 28.7606C28.9196 28.7606 28.6945 28.7106 28.4445 28.6106C27.4942 28.2105 27.0441 27.1101 27.4442 26.1599C27.4942 26.0348 28.8696 22.8339 32.3956 20.4832C38.1973 16.6321 45.1744 17.9324 50.0508 19.658C51.0261 20.0081 51.5263 21.0834 51.1762 22.0587C50.8261 23.0339 49.7507 23.5341 48.7755 23.184C42.8987 21.0584 38.0723 21.2084 34.4712 23.5841C31.8955 25.2846 30.8952 27.5603 30.8952 27.5603C30.5951 28.3355 29.8949 28.7606 29.1697 28.7606Z" fill="#178680"/>
<path d="M63.7799 53.5182C63.3047 53.5182 62.8296 53.3431 62.4545 52.968C62.3294 52.843 59.1785 49.6921 60.1788 44.9657C60.3789 43.9404 61.3792 43.2902 62.4045 43.5152C63.4298 43.7153 64.08 44.7156 63.8549 45.7409C63.3047 48.4167 65.0302 50.2172 65.1053 50.3172C65.8555 51.0424 65.8555 52.2178 65.1303 52.968C64.7552 53.3181 64.28 53.5182 63.7799 53.5182Z" fill="#178680"/>
<path d="M23.493 58.545C20.7672 58.545 18.6666 57.0695 17.7163 55.9442C17.0411 55.144 17.1411 53.9686 17.9414 53.2934C18.7166 52.6182 19.892 52.7183 20.5672 53.4935C20.7922 53.7436 22.7178 55.7442 25.6937 54.1687C26.6189 53.6685 27.7443 54.0186 28.2444 54.9439C28.7446 55.8692 28.3945 56.9945 27.4692 57.4947C26.0438 58.2449 24.7184 58.545 23.493 58.545Z" fill="#178680"/>
<path d="M66.8808 48.1913C66.8558 48.1913 66.8058 48.1913 66.7807 48.1913C63.7298 48.0413 61.3291 46.9659 59.7037 45.0154C57.0529 41.8644 57.503 37.5882 57.528 37.4131C57.6531 36.3878 58.5783 35.6376 59.6036 35.7626C60.6289 35.8877 61.3542 36.813 61.2541 37.8383C61.2541 37.9133 60.979 40.7391 62.5795 42.6147C63.5298 43.715 65.0052 44.3402 66.9808 44.4402C68.0061 44.4902 68.8063 45.3655 68.7563 46.4158C68.6813 47.4161 67.8561 48.1913 66.8808 48.1913Z" fill="#178680"/>
<path d="M53.952 80.4001C47.025 80.4001 44.3992 76.1239 44.2491 75.8988L47.4751 73.9732L47.4501 73.9482C47.5501 74.1233 50.1259 77.9744 57.8031 76.1489C58.8034 75.8988 59.8287 76.524 60.0538 77.5493C60.3039 78.5496 59.6787 79.5749 58.6534 79.8C56.9279 80.2251 55.3524 80.4001 53.952 80.4001Z" fill="#178680"/>
</svg>
