<svg width="150" height="119" viewBox="0 0 150 119" fill="none" xmlns="http://www.w3.org/2000/svg">
<path d="M112.503 44.7344L118.767 55.3636C121.185 59.4852 122.504 64.149 122.504 68.9213V109.92C122.504 113.391 119.647 116.211 116.129 116.211H87.6634C84.1463 116.211 81.2887 113.391 81.2887 109.92V68.9213C81.2887 64.149 82.6076 59.4852 85.0256 55.3636L91.2903 44.7344" stroke="#178680" stroke-width="4" stroke-miterlimit="10" stroke-linecap="round" stroke-linejoin="round"/>
<path d="M87.6632 44.7326H115.91C118.547 44.7326 120.745 42.5634 120.745 39.9603V35.7303C120.745 33.1272 118.547 30.958 115.91 30.958H87.6632C85.0254 30.958 82.8273 33.1272 82.8273 35.7303V39.9603C82.9372 42.6719 85.0254 44.7326 87.6632 44.7326Z" stroke="#178680" stroke-width="4" stroke-miterlimit="10" stroke-linecap="round" stroke-linejoin="round"/>
<path d="M91.9497 31.0677V7.74847C91.9497 4.60308 94.5875 2 97.7748 2H106.018C109.205 2 111.843 4.60308 111.843 7.74847V24.6685" stroke="#178680" stroke-width="4" stroke-miterlimit="10" stroke-linecap="round" stroke-linejoin="round"/>
<path d="M111.843 16.5342H147.673" stroke="#178680" stroke-width="4" stroke-miterlimit="10" stroke-linecap="round" stroke-linejoin="round"/>
<path d="M58.3179 116.21H12.4863C6.99092 116.21 2.5946 111.871 2.5946 106.448V34.5379C2.5946 29.1148 6.99092 24.7764 12.4863 24.7764H58.3179C63.8133 24.7764 68.2096 29.1148 68.2096 34.5379V106.448C68.2096 111.871 63.7033 116.21 58.3179 116.21Z" stroke="#178680" stroke-width="4" stroke-miterlimit="10" stroke-linecap="round" stroke-linejoin="round"/>
<path d="M27.9832 43.3232C27.9832 46.794 25.1256 49.614 21.6085 49.614C18.0915 49.614 15.2339 46.794 15.2339 43.3232" stroke="#178680" stroke-width="4" stroke-miterlimit="10" stroke-linecap="round" stroke-linejoin="round"/>
<path d="M27.9832 70.4385C27.9832 73.9092 25.1256 76.7293 21.6085 76.7293C18.0915 76.7293 15.2339 73.9092 15.2339 70.4385" stroke="#178680" stroke-width="4" stroke-miterlimit="10" stroke-linecap="round" stroke-linejoin="round"/>
<path d="M27.9832 97.5547C27.9832 101.025 25.1256 103.845 21.6085 103.845C18.0915 103.845 15.2339 101.025 15.2339 97.5547" stroke="#178680" stroke-width="4" stroke-miterlimit="10" stroke-linecap="round" stroke-linejoin="round"/>
<path d="M55.0207 43.4326C55.0207 46.9034 52.1631 49.7234 48.646 49.7234C45.129 49.7234 42.2714 46.9034 42.2714 43.4326" stroke="#178680" stroke-width="4" stroke-miterlimit="10" stroke-linecap="round" stroke-linejoin="round"/>
<path d="M55.0207 70.5479C55.0207 74.0186 52.1631 76.8386 48.646 76.8386C45.129 76.8386 42.2714 74.0186 42.2714 70.5479" stroke="#178680" stroke-width="4" stroke-miterlimit="10" stroke-linecap="round" stroke-linejoin="round"/>
<path d="M55.0207 97.6641C55.0207 101.135 52.1631 103.955 48.646 103.955C45.129 103.955 42.2714 101.135 42.2714 97.6641" stroke="#178680" stroke-width="4" stroke-miterlimit="10" stroke-linecap="round" stroke-linejoin="round"/>
<path d="M115.91 109.704V77.7075C113.712 78.0329 111.513 78.1413 109.315 78.0329C103.93 77.8159 98.6541 76.2975 93.4885 74.8875C91.62 74.4536 89.7516 73.9113 87.8832 73.5859V109.595H115.91V109.704Z" fill="white"/>
</svg>
