<svg width="112" height="102" viewBox="0 0 112 102" fill="none" xmlns="http://www.w3.org/2000/svg">
<path d="M64.153 83.5215C63.6738 87.7318 61.928 89.6829 57.9573 90.5044C56.0747 90.8809 54.1578 91.2917 52.2751 91.5998C50.8717 91.8394 50.2213 92.5924 50.2898 94.0643C50.3583 96.3235 50.324 98.5827 50.324 100.979C49.126 100.979 48.1333 100.979 46.6614 100.979C46.8326 97.8297 46.7641 94.6462 47.2776 91.5655C47.6199 89.4775 49.571 88.6218 51.5905 88.211C53.6444 87.8002 55.6982 87.3552 57.7862 86.9787C59.4635 86.6706 60.3535 85.678 60.6615 84.0349C58.4708 83.3503 56.3143 82.6315 54.1578 82.0496C51.5905 81.365 49.2629 82.1523 47.3802 83.898C44.8814 86.2256 42.143 88.0741 38.9596 89.3064C38.5489 89.4775 38.1381 90.1963 38.1381 90.6756C38.0697 93.5167 38.1039 96.392 38.1039 99.2331C38.1039 99.7808 38.1039 100.328 38.1039 101.013C36.9058 101.013 35.9132 101.013 34.7151 101.013C34.7151 97.5558 34.7151 94.0986 34.7151 90.9836C31.2921 90.5729 27.9718 90.6071 24.9253 89.7514C16.7101 87.4237 11.644 81.81 9.31639 73.629C9.11101 72.8759 8.63179 72.0544 8.01565 71.5409C-3.55412 61.6484 -2.42453 43.575 10.2748 35.257C10.9594 34.812 11.4387 33.7851 11.6098 32.9636C13.4925 23.9611 18.7981 18.0735 27.5268 15.2667C31.0183 14.1371 34.5782 14.0002 38.1381 14.7874C39.0966 14.9928 39.5758 14.719 40.1577 14.1028C44.9499 9.03679 51.1113 7.80451 57.615 10.5771C58.1285 10.8168 59.0527 10.7483 59.5319 10.406C65.0772 6.36685 72.1286 6.40108 77.6396 10.5429C78.1873 10.9537 79.1115 11.1933 79.7619 11.0906C85.7864 10.0295 91.982 12.8363 95.0628 18.1762C95.6104 19.1347 96.1581 19.477 97.2535 19.6139C108.515 20.8462 114.369 32.0052 109.063 42.0346C108.344 43.3696 108.344 44.2253 109.2 45.4918C112.897 51.0371 110.809 59.4919 104.716 63.7022C103.141 64.7634 101.019 65.0714 99.5811 66.2353C98.2119 67.3991 97.5616 69.3844 96.295 70.7194C93.3855 73.7317 89.7229 75.1009 85.5468 75.1009C82.4661 75.1009 79.3854 75.0666 76.3047 75.1351C75.757 75.1351 74.9697 75.3747 74.7643 75.7512C72.3682 79.9273 68.8083 82.4261 64.153 83.5215ZM13.5951 75.4774C13.8005 75.9224 14.0059 76.4358 14.2455 76.9151C19.9962 88.1768 34.5782 90.6071 44.2653 81.8442C48.1675 78.3185 52.3778 77.3943 57.307 79.4139C62.8865 81.673 69.1506 79.1058 71.6494 73.6632C72.1628 72.5336 72.3682 71.2671 72.8132 69.7267C69.5956 69.7267 66.8572 69.7267 64.1188 69.7267C64.1188 68.4945 64.1188 67.5018 64.1188 66.5433C64.3241 66.4407 64.4268 66.3722 64.5295 66.3722C67.1995 66.338 69.9036 66.3722 72.5736 66.338C75.6201 66.3037 77.7081 64.3868 77.9819 61.3404C78.0162 60.7927 78.0504 60.245 78.0846 59.5946C79.2142 59.5946 80.2754 59.5946 81.405 59.5946C81.713 63.223 80.7546 66.3037 77.6739 68.2548C76.3389 69.1106 76.0651 70.1033 76.0993 71.4725C80.0015 71.4725 83.8353 71.7121 87.6006 71.404C90.7498 71.1302 93.2486 69.3502 95.2681 66.338C92.1874 66.338 89.449 66.338 86.7449 66.338C86.7449 65.0714 86.7449 64.0445 86.7449 62.9492C89.9625 62.9492 93.0432 62.9492 96.1239 62.9492C100.779 62.915 104.921 60.1081 106.667 55.8293C108.139 52.2352 107.659 48.6752 105.537 46.6557C103.483 47.4087 101.532 48.0933 99.5811 48.8806C99.1019 49.086 98.52 49.4625 98.3146 49.9075C96.7058 53.2621 94.0016 54.6997 90.1679 54.1178C90.1679 53.0909 90.1679 52.0298 90.1679 50.7975C94.0359 51.2425 95.7131 49.3598 95.3366 45.663C103.997 45.0126 108.276 40.4942 107.454 33.169C106.838 27.6237 101.498 22.6946 96.9796 23.4134C96.9796 24.7142 96.9796 25.9807 96.9796 27.3841C96.3635 27.3841 95.85 27.3841 95.3366 27.3841C94.7889 27.3841 94.2412 27.3157 93.5566 27.2814C93.5566 26.5284 93.5909 25.9122 93.5566 25.2961C93.2143 18.0051 86.5395 12.939 79.5223 14.8217C77.8793 15.2667 77.0577 14.9586 75.9281 13.8632C71.9232 10.0637 65.2484 9.96101 61.62 13.5209C61.8596 13.829 62.1676 14.1028 62.373 14.4451C63.1603 15.7801 64.1872 16.2251 65.8303 16.1567C69.4244 16.054 72.6078 17.4232 74.8328 20.23C76.1677 21.9073 77.092 23.9611 78.2558 25.9807C84.5883 25.2961 88.3537 27.0761 90.0652 31.7998C91.5713 35.9074 90.1336 40.2889 86.7106 42.5823C85.9233 41.8292 85.1703 41.1104 84.383 40.3573C87.6348 36.3182 87.9771 33.5113 85.5126 30.9098C83.0822 28.3426 80.2754 28.6164 75.7912 31.8683C75.0039 31.1494 74.2166 30.4306 73.7374 30.0198C74.0113 28.7876 74.422 27.8976 74.3193 27.0418C73.8401 23.4134 71.6836 21.0173 68.2264 19.9904C64.8034 18.9635 61.7911 19.8877 59.395 22.5234C58.6419 23.345 58.06 24.3376 57.307 25.3645C56.3485 24.8169 55.3901 24.2692 53.9867 23.4819C56.1089 21.2227 57.9916 19.1689 59.9427 17.0809C55.3901 10.8852 46.3533 11.7067 43.1015 16.2936C44.813 17.3547 46.4903 18.4501 48.236 19.5454C47.4487 20.6066 46.8326 21.4623 46.2164 22.3181C31.3948 11.3987 16.402 22.8657 15.3751 32.5871C17.7028 32.3133 20.0304 32.0736 22.3923 31.7998C22.803 31.7313 23.248 31.5602 23.5903 31.2864C25.7811 29.6091 28.2456 28.7533 31.121 28.6849C31.2579 29.7802 31.3948 30.8414 31.5659 32.0052C25.4045 32.6556 22.3581 36.0443 22.3581 42.0346C21.0915 42.0346 19.9962 42.0346 18.6612 42.0346C19.072 39.7412 19.4827 37.6531 19.8593 35.5993C10.2748 36.1813 2.70998 45.5603 3.39458 56.0689C3.94226 64.7634 12.7052 73.629 20.2358 73.1155C18.4558 66.2353 19.9962 61.0323 24.7884 58.1912C25.473 58.9785 26.1576 59.7658 26.8422 60.5531C22.94 64.6949 21.9131 67.536 23.3507 71.1644C25.1649 75.717 28.7933 77.2916 33.6198 76.7439C33.6882 77.9762 33.7567 79.0373 33.8251 80.1669C30.1967 80.7488 27.0476 80.03 24.1722 77.942C23.6246 77.5654 23.0427 77.0862 22.4265 76.9835C19.6196 76.3331 16.7101 75.9566 13.5951 75.4774Z" fill="#178680"/>
<path d="M32.3191 0.753081C32.5587 0.684621 32.5929 0.650391 32.6614 0.650391C35.7421 1.02692 35.7421 1.02692 35.2629 4.0734C35.0917 5.13453 34.8863 6.19567 34.681 7.2568C34.6125 7.63333 34.5098 8.00986 34.4071 8.45485C33.2775 8.21524 32.2506 8.00986 31.0868 7.77025C31.4976 5.33991 31.9083 3.0465 32.3191 0.753081Z" fill="#178680"/>
<path d="M11.3018 8.2837C12.1575 7.49641 12.9448 6.77758 13.8348 5.95605C15.5121 7.77025 17.1551 9.51598 18.8666 11.3302C18.0109 12.1175 17.2236 12.8705 16.2994 13.7263C14.6221 11.8779 12.979 10.1321 11.3018 8.2837Z" fill="#178680"/>
<path d="M22.5977 7.66754C21.9131 5.37412 21.3312 3.25186 20.6466 1.0269C21.742 0.684602 22.7346 0.376531 23.9669 0C24.6173 2.22496 25.2677 4.38145 25.918 6.64064C24.8569 6.98294 23.83 7.29101 22.5977 7.66754Z" fill="#178680"/>
<path d="M51.8987 28.2052C62.4758 28.171 71.0333 36.6942 71.0333 47.2713C71.0333 57.8142 62.51 66.3033 51.8645 66.3375C41.4243 66.3375 32.8667 57.8827 32.8325 47.5452C32.8325 36.7285 41.2189 28.2394 51.8987 28.2052ZM67.4734 47.3056C67.4734 38.6454 60.6616 31.7651 52.0698 31.7309C43.3412 31.7309 36.2898 38.6111 36.2898 47.1686C36.2898 55.7604 43.3412 62.8803 51.8645 62.8803C60.5589 62.8803 67.4734 55.9658 67.4734 47.3056Z" fill="#178680"/>
<path d="M36.5293 69.3844C37.4535 68.7683 38.3093 68.1864 39.1308 67.6387C42.4853 71.1986 42.9646 71.3013 46.4903 69.1106C47.1064 70.0348 47.7225 70.959 48.3044 71.8832C44.0599 75.5458 39.0966 74.5189 36.5293 69.3844Z" fill="#178680"/>
<path d="M78.735 52.5087C77.9477 51.6529 77.2289 50.8657 76.4758 50.0441C79.2827 46.6211 79.3169 45.8681 76.647 42.7531C77.4343 42.0685 78.2558 41.3497 79.1115 40.6309C82.8426 43.0612 83.6642 48.7776 78.735 52.5087Z" fill="#178680"/>
<path d="M10.5144 47.2715C11.644 47.2715 12.6367 47.2715 13.6294 47.2715C14.1428 52.6798 15.4778 52.2006 18.8666 52.7483C18.8666 53.741 18.8666 54.7679 18.8666 55.7605C13.9374 57.0955 9.55598 52.6456 10.5144 47.2715Z" fill="#178680"/>
<path d="M64.0503 47.306C64.0503 53.9467 58.642 59.4235 52.0698 59.4235C45.2922 59.4235 39.7469 53.9124 39.7469 47.2033C39.7469 40.5285 45.2922 35.1201 52.1725 35.1201C58.7446 35.1543 64.0503 40.5969 64.0503 47.306ZM60.5931 47.2718C60.5931 42.548 56.6224 38.5774 51.8986 38.5774C47.1064 38.5774 43.3753 42.4454 43.3411 47.3745C43.3069 52.064 47.2091 55.9662 51.9329 55.9662C56.6908 55.932 60.5931 52.0298 60.5931 47.2718Z" fill="#178680"/>
<path d="M57.1701 47.2372C57.2043 50.0782 54.7055 52.5428 51.8302 52.5428C49.1945 52.5428 46.7641 50.1125 46.6957 47.3741C46.6272 44.4303 48.9891 42.0342 51.9671 42.0342C54.8082 42.0342 57.1701 44.3961 57.1701 47.2372ZM50.016 46.7237C49.9818 46.9975 49.9818 47.2714 49.9475 47.5452C50.5637 48.0244 51.2483 48.9144 51.796 48.8802C52.4463 48.8117 53.4048 48.0244 53.5759 47.3741C53.884 46.3814 53.0282 45.5941 52.0356 45.6626C51.3852 45.731 50.7006 46.3472 50.016 46.7237Z" fill="#178680"/>
</svg>
